<?xml version="1.0" encoding="UTF-8" standalone="no"?>
<svg
   style="font-style:normal;font-weight:normal;font-size:12px;font-family:Dialog;color-interpolation:auto;fill:#000000;fill-opacity:1;stroke:#000000;stroke-width:1;stroke-linecap:square;stroke-linejoin:miter;stroke-miterlimit:10;stroke-dasharray:none;stroke-dashoffset:0;stroke-opacity:1;color-rendering:auto;image-rendering:auto;shape-rendering:auto;text-rendering:auto"
   width="15.625in"
   height="10.416667in"
   version="1.1"
   id="svg18562"
   sodipodi:docname="SVGTest006.svg"
   inkscape:version="1.1 (c4e8f9e, 2021-05-24)"
   xmlns:inkscape="http://www.inkscape.org/namespaces/inkscape"
   xmlns:sodipodi="http://sodipodi.sourceforge.net/DTD/sodipodi-0.dtd"
   xmlns="http://www.w3.org/2000/svg"
   xmlns:svg="http://www.w3.org/2000/svg">
  <sodipodi:namedview
     id="namedview18564"
     pagecolor="#505050"
     bordercolor="#eeeeee"
     borderopacity="1"
     inkscape:pageshadow="0"
     inkscape:pageopacity="0"
     inkscape:pagecheckerboard="0"
     showgrid="false"
     units="in"
     inkscape:zoom="0.75133333"
     inkscape:cx="352.04082"
     inkscape:cy="515.74978"
     inkscape:window-width="1296"
     inkscape:window-height="1003"
     inkscape:window-x="0"
     inkscape:window-y="23"
     inkscape:window-maximized="0"
     inkscape:current-layer="svg18562"
     inkscape:document-units="in" />
  <!--Generated by the Batik Graphics2D SVG Generator-->
  <defs
     id="genericDefs" />
  <g
     id="g18560">
    <g
       style="fill:#ffffff;stroke:#ffffff"
       id="g18078">
      <path
         style="stroke:none"
         d="m 479,5 c 10.6667,0 16,5.3333 16,16 v 58 c 0,10.6667 -5.3333,16 -16,16 H 21 C 10.3333,95 5,89.6667 5,79 V 21 C 5,10.3333 10.3333,5 21,5 Z"
         id="path18076" />
    </g>
    <g
       id="g18088">
      <path
         style="fill:none"
         d="m 479,5 c 10.6667,0 16,5.3333 16,16 v 58 c 0,10.6667 -5.3333,16 -16,16 H 21 C 10.3333,95 5,89.6667 5,79 V 21 C 5,10.3333 10.3333,5 21,5 Z"
         id="path18080" />
      <path
         d="m 474,10 c 10.6667,0 16,5.3333 16,16 v 48 c 0,10.6667 -5.3333,16 -16,16 H 26 C 15.3333,90 10,84.6667 10,74 V 26 C 10,15.3333 15.3333,10 26,10 Z"
         style="fill:#ffffff;stroke:none"
         id="path18082" />
      <path
         style="fill:none"
         d="m 474,10 c 10.6667,0 16,5.3333 16,16 v 48 c 0,10.6667 -5.3333,16 -16,16 H 26 C 15.3333,90 10,84.6667 10,74 V 26 C 10,15.3333 15.3333,10 26,10 Z"
         id="path18084" />
      <text
         x="105"
         y="63"
         style="font-size:38.5787px;font-family:Roboto;stroke:none;text-rendering:optimizeLegibility"
         xml:space="preserve"
         id="text18086">capitalism</text>
    </g>
    <g
       style="font-size:38.5787px;font-family:Roboto;fill:#ffffff;stroke:#ffffff"
       id="g18102">
      <circle
         r="16.6667"
         style="stroke:none"
         cx="55"
         cy="50"
         id="circle18090" />
      <circle
         r="16.6667"
         style="fill:none;stroke:#000000"
         cx="55"
         cy="50"
         id="circle18092" />
      <path
         style="stroke:none"
         d="m 479,105 c 10.6667,0 16,5.3333 16,16 v 58 c 0,10.6667 -5.3333,16 -16,16 H 21 C 10.3333,195 5,189.6667 5,179 v -58 c 0,-10.6667 5.3333,-16 16,-16 z"
         id="path18094" />
      <path
         d="m 479,105 c 10.6667,0 16,5.3333 16,16 v 58 c 0,10.6667 -5.3333,16 -16,16 H 21 C 10.3333,195 5,189.6667 5,179 v -58 c 0,-10.6667 5.3333,-16 16,-16 z"
         style="fill:none;stroke:#000000"
         id="path18096" />
      <path
         style="stroke:none"
         d="m 474,110 c 10.6667,0 16,5.3333 16,16 v 48 c 0,10.6667 -5.3333,16 -16,16 H 26 c -10.6667,0 -16,-5.3333 -16,-16 v -48 c 0,-10.6667 5.3333,-16 16,-16 z"
         id="path18098" />
      <path
         d="m 474,110 c 10.6667,0 16,5.3333 16,16 v 48 c 0,10.6667 -5.3333,16 -16,16 H 26 c -10.6667,0 -16,-5.3333 -16,-16 v -48 c 0,-10.6667 5.3333,-16 16,-16 z"
         style="fill:none;stroke:#000000"
         id="path18100" />
    </g>
    <g
       style="font-size:31.1211px;font-family:'Iowan Old Style';text-rendering:optimizeLegibility"
       id="g18120">
      <text
         x="105"
         xml:space="preserve"
         y="162"
         style="stroke:none"
         id="text18104">money</text>
      <circle
         style="fill:#ffffff;stroke:none;text-rendering:auto"
         r="16.6667"
         cx="55"
         cy="150"
         id="circle18106" />
      <circle
         r="16.6667"
         style="fill:none;text-rendering:auto"
         cx="55"
         cy="150"
         id="circle18108" />
      <path
         d="m 479,205 c 10.6667,0 16,5.3333 16,16 v 58 c 0,10.6667 -5.3333,16 -16,16 H 21 C 10.3333,295 5,289.6667 5,279 v -58 c 0,-10.6667 5.3333,-16 16,-16 z"
         style="fill:#ffffff;stroke:none;text-rendering:auto"
         id="path18110" />
      <path
         d="m 479,205 c 10.6667,0 16,5.3333 16,16 v 58 c 0,10.6667 -5.3333,16 -16,16 H 21 C 10.3333,295 5,289.6667 5,279 v -58 c 0,-10.6667 5.3333,-16 16,-16 z"
         style="fill:none;text-rendering:auto"
         id="path18112" />
      <path
         d="m 474,210 c 10.6667,0 16,5.3333 16,16 v 48 c 0,10.6667 -5.3333,16 -16,16 H 26 c -10.6667,0 -16,-5.3333 -16,-16 v -48 c 0,-10.6667 5.3333,-16 16,-16 z"
         style="fill:#ffffff;stroke:none;text-rendering:auto"
         id="path18114" />
      <path
         d="m 474,210 c 10.6667,0 16,5.3333 16,16 v 48 c 0,10.6667 -5.3333,16 -16,16 H 26 c -10.6667,0 -16,-5.3333 -16,-16 v -48 c 0,-10.6667 5.3333,-16 16,-16 z"
         style="fill:none;text-rendering:auto"
         id="path18116" />
      <text
         x="105"
         y="260"
         style="font-size:28.9999px;font-family:'Avenir Next';stroke:none"
         xml:space="preserve"
         id="text18118">addiction</text>
    </g>
    <g
       style="font-size:28.9999px;font-family:'Avenir Next';fill:#ffffff;stroke:#ffffff"
       id="g18134">
      <circle
         r="16.6667"
         style="stroke:none"
         cx="55"
         cy="250"
         id="circle18122" />
      <circle
         r="16.6667"
         style="fill:none;stroke:#000000"
         cx="55"
         cy="250"
         id="circle18124" />
      <path
         style="stroke:none"
         d="m 479,305 c 10.6667,0 16,5.3333 16,16 v 58 c 0,10.6667 -5.3333,16 -16,16 H 21 C 10.3333,395 5,389.6667 5,379 v -58 c 0,-10.6667 5.3333,-16 16,-16 z"
         id="path18126" />
      <path
         d="m 479,305 c 10.6667,0 16,5.3333 16,16 v 58 c 0,10.6667 -5.3333,16 -16,16 H 21 C 10.3333,395 5,389.6667 5,379 v -58 c 0,-10.6667 5.3333,-16 16,-16 z"
         style="fill:none;stroke:#000000"
         id="path18128" />
      <path
         style="stroke:none"
         d="m 474,310 c 10.6667,0 16,5.3333 16,16 v 48 c 0,10.6667 -5.3333,16 -16,16 H 26 c -10.6667,0 -16,-5.3333 -16,-16 v -48 c 0,-10.6667 5.3333,-16 16,-16 z"
         id="path18130" />
      <path
         d="m 474,310 c 10.6667,0 16,5.3333 16,16 v 48 c 0,10.6667 -5.3333,16 -16,16 H 26 c -10.6667,0 -16,-5.3333 -16,-16 v -48 c 0,-10.6667 5.3333,-16 16,-16 z"
         style="fill:none;stroke:#000000"
         id="path18132" />
    </g>
    <g
       style="font-size:27.8339px;font-family:'New Peninim MT';text-rendering:optimizeLegibility"
       id="g18152">
      <text
         x="105"
         xml:space="preserve"
         y="356"
         style="stroke:none"
         id="text18136">alcohol</text>
      <circle
         style="fill:#ffffff;stroke:none;text-rendering:auto"
         r="16.6667"
         cx="55"
         cy="350"
         id="circle18138" />
      <circle
         r="16.6667"
         style="fill:none;text-rendering:auto"
         cx="55"
         cy="350"
         id="circle18140" />
      <path
         d="m 479,405 c 10.6667,0 16,5.3333 16,16 v 58 c 0,10.6667 -5.3333,16 -16,16 H 21 C 10.3333,495 5,489.6667 5,479 v -58 c 0,-10.6667 5.3333,-16 16,-16 z"
         style="fill:#ffffff;stroke:none;text-rendering:auto"
         id="path18142" />
      <path
         d="m 479,405 c 10.6667,0 16,5.3333 16,16 v 58 c 0,10.6667 -5.3333,16 -16,16 H 21 C 10.3333,495 5,489.6667 5,479 v -58 c 0,-10.6667 5.3333,-16 16,-16 z"
         style="fill:none;text-rendering:auto"
         id="path18144" />
      <path
         d="m 474,410 c 10.6667,0 16,5.3333 16,16 v 48 c 0,10.6667 -5.3333,16 -16,16 H 26 c -10.6667,0 -16,-5.3333 -16,-16 v -48 c 0,-10.6667 5.3333,-16 16,-16 z"
         style="fill:#ffffff;stroke:none;text-rendering:auto"
         id="path18146" />
      <path
         d="m 474,410 c 10.6667,0 16,5.3333 16,16 v 48 c 0,10.6667 -5.3333,16 -16,16 H 26 c -10.6667,0 -16,-5.3333 -16,-16 v -48 c 0,-10.6667 5.3333,-16 16,-16 z"
         style="fill:none;text-rendering:auto"
         id="path18148" />
      <text
         x="105"
         y="462"
         style="font-size:35.5475px;font-family:KufiStandardGK;stroke:none"
         xml:space="preserve"
         id="text18150">friends</text>
    </g>
    <g
       style="font-size:35.5475px;font-family:KufiStandardGK;fill:#ffffff;stroke:#ffffff"
       id="g18166">
      <circle
         r="16.6667"
         style="stroke:none"
         cx="55"
         cy="450"
         id="circle18154" />
      <circle
         r="16.6667"
         style="fill:none;stroke:#000000"
         cx="55"
         cy="450"
         id="circle18156" />
      <path
         style="stroke:none"
         d="m 479,505 c 10.6667,0 16,5.3333 16,16 v 58 c 0,10.6667 -5.3333,16 -16,16 H 21 C 10.3333,595 5,589.6667 5,579 v -58 c 0,-10.6667 5.3333,-16 16,-16 z"
         id="path18158" />
      <path
         d="m 479,505 c 10.6667,0 16,5.3333 16,16 v 58 c 0,10.6667 -5.3333,16 -16,16 H 21 C 10.3333,595 5,589.6667 5,579 v -58 c 0,-10.6667 5.3333,-16 16,-16 z"
         style="fill:none;stroke:#000000"
         id="path18160" />
      <path
         style="stroke:none"
         d="m 474,510 c 10.6667,0 16,5.3333 16,16 v 48 c 0,10.6667 -5.3333,16 -16,16 H 26 c -10.6667,0 -16,-5.3333 -16,-16 v -48 c 0,-10.6667 5.3333,-16 16,-16 z"
         id="path18162" />
      <path
         d="m 474,510 c 10.6667,0 16,5.3333 16,16 v 48 c 0,10.6667 -5.3333,16 -16,16 H 26 c -10.6667,0 -16,-5.3333 -16,-16 v -48 c 0,-10.6667 5.3333,-16 16,-16 z"
         style="fill:none;stroke:#000000"
         id="path18164" />
    </g>
    <g
       style="font-size:29.3469px;font-family:Skia;text-rendering:optimizeLegibility"
       id="g18184">
      <text
         x="105"
         xml:space="preserve"
         y="557"
         style="stroke:none"
         id="text18168">making art</text>
      <circle
         style="fill:#ffffff;stroke:none;text-rendering:auto"
         r="16.6667"
         cx="55"
         cy="550"
         id="circle18170" />
      <circle
         r="16.6667"
         style="fill:none;text-rendering:auto"
         cx="55"
         cy="550"
         id="circle18172" />
      <path
         d="m 479,605 c 10.6667,0 16,5.3333 16,16 v 58 c 0,10.6667 -5.3333,16 -16,16 H 21 C 10.3333,695 5,689.6667 5,679 v -58 c 0,-10.6667 5.3333,-16 16,-16 z"
         style="fill:#ffffff;stroke:none;text-rendering:auto"
         id="path18174" />
      <path
         d="m 479,605 c 10.6667,0 16,5.3333 16,16 v 58 c 0,10.6667 -5.3333,16 -16,16 H 21 C 10.3333,695 5,689.6667 5,679 v -58 c 0,-10.6667 5.3333,-16 16,-16 z"
         style="fill:none;text-rendering:auto"
         id="path18176" />
      <path
         d="m 474,610 c 10.6667,0 16,5.3333 16,16 v 48 c 0,10.6667 -5.3333,16 -16,16 H 26 c -10.6667,0 -16,-5.3333 -16,-16 v -48 c 0,-10.6667 5.3333,-16 16,-16 z"
         style="fill:#ffffff;stroke:none;text-rendering:auto"
         id="path18178" />
      <path
         d="m 474,610 c 10.6667,0 16,5.3333 16,16 v 48 c 0,10.6667 -5.3333,16 -16,16 H 26 c -10.6667,0 -16,-5.3333 -16,-16 v -48 c 0,-10.6667 5.3333,-16 16,-16 z"
         style="fill:none;text-rendering:auto"
         id="path18180" />
      <text
         x="105"
         y="659"
         style="font-size:28.6975px;font-family:'Myanmar Sangam MN';stroke:none"
         xml:space="preserve"
         id="text18182">looking at art</text>
    </g>
    <g
       style="font-size:28.6975px;font-family:'Myanmar Sangam MN';fill:#ffffff;stroke:#ffffff"
       id="g18198">
      <circle
         r="16.6667"
         style="stroke:none"
         cx="55"
         cy="650"
         id="circle18186" />
      <circle
         r="16.6667"
         style="fill:none;stroke:#000000"
         cx="55"
         cy="650"
         id="circle18188" />
      <path
         style="stroke:none"
         d="m 479,705 c 10.6667,0 16,5.3333 16,16 v 58 c 0,10.6667 -5.3333,16 -16,16 H 21 C 10.3333,795 5,789.6667 5,779 v -58 c 0,-10.6667 5.3333,-16 16,-16 z"
         id="path18190" />
      <path
         d="m 479,705 c 10.6667,0 16,5.3333 16,16 v 58 c 0,10.6667 -5.3333,16 -16,16 H 21 C 10.3333,795 5,789.6667 5,779 v -58 c 0,-10.6667 5.3333,-16 16,-16 z"
         style="fill:none;stroke:#000000"
         id="path18192" />
      <path
         style="stroke:none"
         d="m 474,710 c 10.6667,0 16,5.3333 16,16 v 48 c 0,10.6667 -5.3333,16 -16,16 H 26 c -10.6667,0 -16,-5.3333 -16,-16 v -48 c 0,-10.6667 5.3333,-16 16,-16 z"
         id="path18194" />
      <path
         d="m 474,710 c 10.6667,0 16,5.3333 16,16 v 48 c 0,10.6667 -5.3333,16 -16,16 H 26 c -10.6667,0 -16,-5.3333 -16,-16 v -48 c 0,-10.6667 5.3333,-16 16,-16 z"
         style="fill:none;stroke:#000000"
         id="path18196" />
    </g>
    <g
       style="font-size:29.5211px;font-family:STIXSizeTwoSym;text-rendering:optimizeLegibility"
       id="g18216">
      <text
         x="105"
         xml:space="preserve"
         y="776"
         style="stroke:none"
         id="text18200">understanding</text>
      <circle
         style="fill:#ffffff;stroke:none;text-rendering:auto"
         r="16.6667"
         cx="55"
         cy="750"
         id="circle18202" />
      <circle
         r="16.6667"
         style="fill:none;text-rendering:auto"
         cx="55"
         cy="750"
         id="circle18204" />
      <path
         d="m 479,805 c 10.6667,0 16,5.3333 16,16 v 58 c 0,10.6667 -5.3333,16 -16,16 H 21 C 10.3333,895 5,889.6667 5,879 v -58 c 0,-10.6667 5.3333,-16 16,-16 z"
         style="fill:#ffffff;stroke:none;text-rendering:auto"
         id="path18206" />
      <path
         d="m 479,805 c 10.6667,0 16,5.3333 16,16 v 58 c 0,10.6667 -5.3333,16 -16,16 H 21 C 10.3333,895 5,889.6667 5,879 v -58 c 0,-10.6667 5.3333,-16 16,-16 z"
         style="fill:none;text-rendering:auto"
         id="path18208" />
      <path
         d="m 474,810 c 10.6667,0 16,5.3333 16,16 v 48 c 0,10.6667 -5.3333,16 -16,16 H 26 c -10.6667,0 -16,-5.3333 -16,-16 v -48 c 0,-10.6667 5.3333,-16 16,-16 z"
         style="fill:#ffffff;stroke:none;text-rendering:auto"
         id="path18210" />
      <path
         d="m 474,810 c 10.6667,0 16,5.3333 16,16 v 48 c 0,10.6667 -5.3333,16 -16,16 H 26 c -10.6667,0 -16,-5.3333 -16,-16 v -48 c 0,-10.6667 5.3333,-16 16,-16 z"
         style="fill:none;text-rendering:auto"
         id="path18212" />
      <text
         x="105"
         y="863"
         style="font-size:39.0831px;font-family:'American Typewriter';stroke:none"
         xml:space="preserve"
         id="text18214">the usa</text>
    </g>
    <g
       style="font-size:39.0831px;font-family:'American Typewriter';fill:#ffffff;stroke:#ffffff"
       id="g18230">
      <circle
         r="16.6667"
         style="stroke:none"
         cx="55"
         cy="850"
         id="circle18218" />
      <circle
         r="16.6667"
         style="fill:none;stroke:#000000"
         cx="55"
         cy="850"
         id="circle18220" />
      <path
         style="stroke:none"
         d="m 479,905 c 10.6667,0 16,5.3333 16,16 v 58 c 0,10.6667 -5.3333,16 -16,16 H 21 C 10.3333,995 5,989.6667 5,979 v -58 c 0,-10.6667 5.3333,-16 16,-16 z"
         id="path18222" />
      <path
         d="m 479,905 c 10.6667,0 16,5.3333 16,16 v 58 c 0,10.6667 -5.3333,16 -16,16 H 21 C 10.3333,995 5,989.6667 5,979 v -58 c 0,-10.6667 5.3333,-16 16,-16 z"
         style="fill:none;stroke:#000000"
         id="path18224" />
      <path
         style="stroke:none"
         d="m 474,910 c 10.6667,0 16,5.3333 16,16 v 48 c 0,10.6667 -5.3333,16 -16,16 H 26 c -10.6667,0 -16,-5.3333 -16,-16 v -48 c 0,-10.6667 5.3333,-16 16,-16 z"
         id="path18226" />
      <path
         d="m 474,910 c 10.6667,0 16,5.3333 16,16 v 48 c 0,10.6667 -5.3333,16 -16,16 H 26 c -10.6667,0 -16,-5.3333 -16,-16 v -48 c 0,-10.6667 5.3333,-16 16,-16 z"
         style="fill:none;stroke:#000000"
         id="path18228" />
    </g>
    <g
       style="font-size:40.4594px;font-family:'Open Sans Condensed';text-rendering:optimizeLegibility"
       id="g18248">
      <text
         x="105"
         xml:space="preserve"
         y="967"
         style="stroke:none"
         id="text18232">Putin</text>
      <circle
         style="fill:#ffffff;stroke:none;text-rendering:auto"
         r="16.6667"
         cx="55"
         cy="950"
         id="circle18234" />
      <circle
         r="16.6667"
         style="fill:none;text-rendering:auto"
         cx="55"
         cy="950"
         id="circle18236" />
      <path
         d="m 979,5 c 10.6667,0 16,5.3333 16,16 v 58 c 0,10.6667 -5.3333,16 -16,16 H 521 C 510.3333,95 505,89.6667 505,79 V 21 c 0,-10.6667 5.3333,-16 16,-16 z"
         style="fill:#ffffff;stroke:none;text-rendering:auto"
         id="path18238" />
      <path
         d="m 979,5 c 10.6667,0 16,5.3333 16,16 v 58 c 0,10.6667 -5.3333,16 -16,16 H 521 C 510.3333,95 505,89.6667 505,79 V 21 c 0,-10.6667 5.3333,-16 16,-16 z"
         style="fill:none;text-rendering:auto"
         id="path18240" />
      <path
         d="m 974,10 c 10.6667,0 16,5.3333 16,16 v 48 c 0,10.6667 -5.3333,16 -16,16 H 526 C 515.3333,90 510,84.6667 510,74 V 26 c 0,-10.6667 5.3333,-16 16,-16 z"
         style="fill:#ffffff;stroke:none;text-rendering:auto"
         id="path18242" />
      <path
         d="m 974,10 c 10.6667,0 16,5.3333 16,16 v 48 c 0,10.6667 -5.3333,16 -16,16 H 526 C 515.3333,90 510,84.6667 510,74 V 26 c 0,-10.6667 5.3333,-16 16,-16 z"
         style="fill:none;text-rendering:auto"
         id="path18244" />
      <text
         x="605"
         y="68"
         style="font-size:43.3731px;font-family:'PT Serif';stroke:none"
         xml:space="preserve"
         id="text18246">gluten</text>
    </g>
    <g
       style="font-size:43.3731px;font-family:'PT Serif';fill:#ffffff;stroke:#ffffff"
       id="g18262">
      <circle
         r="16.6667"
         style="stroke:none"
         cx="555"
         cy="50"
         id="circle18250" />
      <circle
         r="16.6667"
         style="fill:none;stroke:#000000"
         cx="555"
         cy="50"
         id="circle18252" />
      <path
         style="stroke:none"
         d="m 979,105 c 10.6667,0 16,5.3333 16,16 v 58 c 0,10.6667 -5.3333,16 -16,16 H 521 c -10.6667,0 -16,-5.3333 -16,-16 v -58 c 0,-10.6667 5.3333,-16 16,-16 z"
         id="path18254" />
      <path
         d="m 979,105 c 10.6667,0 16,5.3333 16,16 v 58 c 0,10.6667 -5.3333,16 -16,16 H 521 c -10.6667,0 -16,-5.3333 -16,-16 v -58 c 0,-10.6667 5.3333,-16 16,-16 z"
         style="fill:none;stroke:#000000"
         id="path18256" />
      <path
         style="stroke:none"
         d="m 974,110 c 10.6667,0 16,5.3333 16,16 v 48 c 0,10.6667 -5.3333,16 -16,16 H 526 c -10.6667,0 -16,-5.3333 -16,-16 v -48 c 0,-10.6667 5.3333,-16 16,-16 z"
         id="path18258" />
      <path
         d="m 974,110 c 10.6667,0 16,5.3333 16,16 v 48 c 0,10.6667 -5.3333,16 -16,16 H 526 c -10.6667,0 -16,-5.3333 -16,-16 v -48 c 0,-10.6667 5.3333,-16 16,-16 z"
         style="fill:none;stroke:#000000"
         id="path18260" />
    </g>
    <g
       style="font-size:41.0724px;font-family:Selphia;text-rendering:optimizeLegibility"
       id="g18280">
      <text
         x="605"
         xml:space="preserve"
         y="160"
         style="stroke:none"
         id="text18264">dairy</text>
      <circle
         style="fill:#ffffff;stroke:none;text-rendering:auto"
         r="16.6667"
         cx="555"
         cy="150"
         id="circle18266" />
      <circle
         r="16.6667"
         style="fill:none;text-rendering:auto"
         cx="555"
         cy="150"
         id="circle18268" />
      <path
         d="m 979,205 c 10.6667,0 16,5.3333 16,16 v 58 c 0,10.6667 -5.3333,16 -16,16 H 521 c -10.6667,0 -16,-5.3333 -16,-16 v -58 c 0,-10.6667 5.3333,-16 16,-16 z"
         style="fill:#ffffff;stroke:none;text-rendering:auto"
         id="path18270" />
      <path
         d="m 979,205 c 10.6667,0 16,5.3333 16,16 v 58 c 0,10.6667 -5.3333,16 -16,16 H 521 c -10.6667,0 -16,-5.3333 -16,-16 v -58 c 0,-10.6667 5.3333,-16 16,-16 z"
         style="fill:none;text-rendering:auto"
         id="path18272" />
      <path
         d="m 974,210 c 10.6667,0 16,5.3333 16,16 v 48 c 0,10.6667 -5.3333,16 -16,16 H 526 c -10.6667,0 -16,-5.3333 -16,-16 v -48 c 0,-10.6667 5.3333,-16 16,-16 z"
         style="fill:#ffffff;stroke:none;text-rendering:auto"
         id="path18274" />
      <path
         d="m 974,210 c 10.6667,0 16,5.3333 16,16 v 48 c 0,10.6667 -5.3333,16 -16,16 H 526 c -10.6667,0 -16,-5.3333 -16,-16 v -48 c 0,-10.6667 5.3333,-16 16,-16 z"
         style="fill:none;text-rendering:auto"
         id="path18276" />
      <text
         x="605"
         y="268"
         style="font-size:44.3819px;font-family:'Avenir Next';stroke:none"
         xml:space="preserve"
         id="text18278">overeating</text>
    </g>
    <g
       style="font-size:44.3819px;font-family:'Avenir Next';fill:#ffffff;stroke:#ffffff"
       id="g18294">
      <circle
         r="16.6667"
         style="stroke:none"
         cx="555"
         cy="250"
         id="circle18282" />
      <circle
         r="16.6667"
         style="fill:none;stroke:#000000"
         cx="555"
         cy="250"
         id="circle18284" />
      <path
         style="stroke:none"
         d="m 979,305 c 10.6667,0 16,5.3333 16,16 v 58 c 0,10.6667 -5.3333,16 -16,16 H 521 c -10.6667,0 -16,-5.3333 -16,-16 v -58 c 0,-10.6667 5.3333,-16 16,-16 z"
         id="path18286" />
      <path
         d="m 979,305 c 10.6667,0 16,5.3333 16,16 v 58 c 0,10.6667 -5.3333,16 -16,16 H 521 c -10.6667,0 -16,-5.3333 -16,-16 v -58 c 0,-10.6667 5.3333,-16 16,-16 z"
         style="fill:none;stroke:#000000"
         id="path18288" />
      <path
         style="stroke:none"
         d="m 974,310 c 10.6667,0 16,5.3333 16,16 v 48 c 0,10.6667 -5.3333,16 -16,16 H 526 c -10.6667,0 -16,-5.3333 -16,-16 v -48 c 0,-10.6667 5.3333,-16 16,-16 z"
         id="path18290" />
      <path
         d="m 974,310 c 10.6667,0 16,5.3333 16,16 v 48 c 0,10.6667 -5.3333,16 -16,16 H 526 c -10.6667,0 -16,-5.3333 -16,-16 v -48 c 0,-10.6667 5.3333,-16 16,-16 z"
         style="fill:none;stroke:#000000"
         id="path18292" />
    </g>
    <g
       style="font-size:26.4838px;font-family:'Gujarati Sangam MN';text-rendering:optimizeLegibility"
       id="g18312">
      <text
         x="605"
         xml:space="preserve"
         y="359"
         style="stroke:none"
         id="text18296">asbestos</text>
      <circle
         style="fill:#ffffff;stroke:none;text-rendering:auto"
         r="16.6667"
         cx="555"
         cy="350"
         id="circle18298" />
      <circle
         r="16.6667"
         style="fill:none;text-rendering:auto"
         cx="555"
         cy="350"
         id="circle18300" />
      <path
         d="m 979,405 c 10.6667,0 16,5.3333 16,16 v 58 c 0,10.6667 -5.3333,16 -16,16 H 521 c -10.6667,0 -16,-5.3333 -16,-16 v -58 c 0,-10.6667 5.3333,-16 16,-16 z"
         style="fill:#ffffff;stroke:none;text-rendering:auto"
         id="path18302" />
      <path
         d="m 979,405 c 10.6667,0 16,5.3333 16,16 v 58 c 0,10.6667 -5.3333,16 -16,16 H 521 c -10.6667,0 -16,-5.3333 -16,-16 v -58 c 0,-10.6667 5.3333,-16 16,-16 z"
         style="fill:none;text-rendering:auto"
         id="path18304" />
      <path
         d="m 974,410 c 10.6667,0 16,5.3333 16,16 v 48 c 0,10.6667 -5.3333,16 -16,16 H 526 c -10.6667,0 -16,-5.3333 -16,-16 v -48 c 0,-10.6667 5.3333,-16 16,-16 z"
         style="fill:#ffffff;stroke:none;text-rendering:auto"
         id="path18306" />
      <path
         d="m 974,410 c 10.6667,0 16,5.3333 16,16 v 48 c 0,10.6667 -5.3333,16 -16,16 H 526 c -10.6667,0 -16,-5.3333 -16,-16 v -48 c 0,-10.6667 5.3333,-16 16,-16 z"
         style="fill:none;text-rendering:auto"
         id="path18308" />
      <text
         x="605"
         y="472"
         style="font-size:46.9216px;font-family:'Chalkboard SE';stroke:none"
         xml:space="preserve"
         id="text18310">alligators</text>
    </g>
    <g
       style="font-size:46.9216px;font-family:'Chalkboard SE';fill:#ffffff;stroke:#ffffff"
       id="g18326">
      <circle
         r="16.6667"
         style="stroke:none"
         cx="555"
         cy="450"
         id="circle18314" />
      <circle
         r="16.6667"
         style="fill:none;stroke:#000000"
         cx="555"
         cy="450"
         id="circle18316" />
      <path
         style="stroke:none"
         d="m 979,505 c 10.6667,0 16,5.3333 16,16 v 58 c 0,10.6667 -5.3333,16 -16,16 H 521 c -10.6667,0 -16,-5.3333 -16,-16 v -58 c 0,-10.6667 5.3333,-16 16,-16 z"
         id="path18318" />
      <path
         d="m 979,505 c 10.6667,0 16,5.3333 16,16 v 58 c 0,10.6667 -5.3333,16 -16,16 H 521 c -10.6667,0 -16,-5.3333 -16,-16 v -58 c 0,-10.6667 5.3333,-16 16,-16 z"
         style="fill:none;stroke:#000000"
         id="path18320" />
      <path
         style="stroke:none"
         d="m 974,510 c 10.6667,0 16,5.3333 16,16 v 48 c 0,10.6667 -5.3333,16 -16,16 H 526 c -10.6667,0 -16,-5.3333 -16,-16 v -48 c 0,-10.6667 5.3333,-16 16,-16 z"
         id="path18322" />
      <path
         d="m 974,510 c 10.6667,0 16,5.3333 16,16 v 48 c 0,10.6667 -5.3333,16 -16,16 H 526 c -10.6667,0 -16,-5.3333 -16,-16 v -48 c 0,-10.6667 5.3333,-16 16,-16 z"
         style="fill:none;stroke:#000000"
         id="path18324" />
    </g>
    <g
       style="font-size:38.9238px;font-family:'GT Zirkon';text-rendering:optimizeLegibility"
       id="g18344">
      <text
         x="605"
         xml:space="preserve"
         y="561"
         style="stroke:none"
         id="text18328">string theory</text>
      <circle
         style="fill:#ffffff;stroke:none;text-rendering:auto"
         r="16.6667"
         cx="555"
         cy="550"
         id="circle18330" />
      <circle
         r="16.6667"
         style="fill:none;text-rendering:auto"
         cx="555"
         cy="550"
         id="circle18332" />
      <path
         d="m 979,605 c 10.6667,0 16,5.3333 16,16 v 58 c 0,10.6667 -5.3333,16 -16,16 H 521 c -10.6667,0 -16,-5.3333 -16,-16 v -58 c 0,-10.6667 5.3333,-16 16,-16 z"
         style="fill:#ffffff;stroke:none;text-rendering:auto"
         id="path18334" />
      <path
         d="m 979,605 c 10.6667,0 16,5.3333 16,16 v 58 c 0,10.6667 -5.3333,16 -16,16 H 521 c -10.6667,0 -16,-5.3333 -16,-16 v -58 c 0,-10.6667 5.3333,-16 16,-16 z"
         style="fill:none;text-rendering:auto"
         id="path18336" />
      <path
         d="m 974,610 c 10.6667,0 16,5.3333 16,16 v 48 c 0,10.6667 -5.3333,16 -16,16 H 526 c -10.6667,0 -16,-5.3333 -16,-16 v -48 c 0,-10.6667 5.3333,-16 16,-16 z"
         style="fill:#ffffff;stroke:none;text-rendering:auto"
         id="path18338" />
      <path
         d="m 974,610 c 10.6667,0 16,5.3333 16,16 v 48 c 0,10.6667 -5.3333,16 -16,16 H 526 c -10.6667,0 -16,-5.3333 -16,-16 v -48 c 0,-10.6667 5.3333,-16 16,-16 z"
         style="fill:none;text-rendering:auto"
         id="path18340" />
      <text
         x="605"
         y="667"
         style="font-size:40.3852px;font-family:'Open Sans Condensed';stroke:none"
         xml:space="preserve"
         id="text18342">physics</text>
    </g>
    <g
       style="font-size:40.3852px;font-family:'Open Sans Condensed';fill:#ffffff;stroke:#ffffff"
       id="g18358">
      <circle
         r="16.6667"
         style="stroke:none"
         cx="555"
         cy="650"
         id="circle18346" />
      <circle
         r="16.6667"
         style="fill:none;stroke:#000000"
         cx="555"
         cy="650"
         id="circle18348" />
      <path
         style="stroke:none"
         d="m 979,705 c 10.6667,0 16,5.3333 16,16 v 58 c 0,10.6667 -5.3333,16 -16,16 H 521 c -10.6667,0 -16,-5.3333 -16,-16 v -58 c 0,-10.6667 5.3333,-16 16,-16 z"
         id="path18350" />
      <path
         d="m 979,705 c 10.6667,0 16,5.3333 16,16 v 58 c 0,10.6667 -5.3333,16 -16,16 H 521 c -10.6667,0 -16,-5.3333 -16,-16 v -58 c 0,-10.6667 5.3333,-16 16,-16 z"
         style="fill:none;stroke:#000000"
         id="path18352" />
      <path
         style="stroke:none"
         d="m 974,710 c 10.6667,0 16,5.3333 16,16 v 48 c 0,10.6667 -5.3333,16 -16,16 H 526 c -10.6667,0 -16,-5.3333 -16,-16 v -48 c 0,-10.6667 5.3333,-16 16,-16 z"
         id="path18354" />
      <path
         d="m 974,710 c 10.6667,0 16,5.3333 16,16 v 48 c 0,10.6667 -5.3333,16 -16,16 H 526 c -10.6667,0 -16,-5.3333 -16,-16 v -48 c 0,-10.6667 5.3333,-16 16,-16 z"
         style="fill:none;stroke:#000000"
         id="path18356" />
    </g>
    <g
       style="font-size:32.14px;font-family:Muna;text-rendering:optimizeLegibility"
       id="g18376">
      <text
         x="605"
         xml:space="preserve"
         y="757"
         style="stroke:none"
         id="text18360">bathrooms</text>
      <circle
         style="fill:#ffffff;stroke:none;text-rendering:auto"
         r="16.6667"
         cx="555"
         cy="750"
         id="circle18362" />
      <circle
         r="16.6667"
         style="fill:none;text-rendering:auto"
         cx="555"
         cy="750"
         id="circle18364" />
      <path
         d="m 979,805 c 10.6667,0 16,5.3333 16,16 v 58 c 0,10.6667 -5.3333,16 -16,16 H 521 c -10.6667,0 -16,-5.3333 -16,-16 v -58 c 0,-10.6667 5.3333,-16 16,-16 z"
         style="fill:#ffffff;stroke:none;text-rendering:auto"
         id="path18366" />
      <path
         d="m 979,805 c 10.6667,0 16,5.3333 16,16 v 58 c 0,10.6667 -5.3333,16 -16,16 H 521 c -10.6667,0 -16,-5.3333 -16,-16 v -58 c 0,-10.6667 5.3333,-16 16,-16 z"
         style="fill:none;text-rendering:auto"
         id="path18368" />
      <path
         d="m 974,810 c 10.6667,0 16,5.3333 16,16 v 48 c 0,10.6667 -5.3333,16 -16,16 H 526 c -10.6667,0 -16,-5.3333 -16,-16 v -48 c 0,-10.6667 5.3333,-16 16,-16 z"
         style="fill:#ffffff;stroke:none;text-rendering:auto"
         id="path18370" />
      <path
         d="m 974,810 c 10.6667,0 16,5.3333 16,16 v 48 c 0,10.6667 -5.3333,16 -16,16 H 526 c -10.6667,0 -16,-5.3333 -16,-16 v -48 c 0,-10.6667 5.3333,-16 16,-16 z"
         style="fill:none;text-rendering:auto"
         id="path18372" />
      <text
         x="605"
         y="859"
         style="font-size:24.7305px;font-family:'Open Sans';stroke:none"
         xml:space="preserve"
         id="text18374">myself</text>
    </g>
    <g
       style="font-size:24.7305px;font-family:'Open Sans';fill:#ffffff;stroke:#ffffff"
       id="g18390">
      <circle
         r="16.6667"
         style="stroke:none"
         cx="555"
         cy="850"
         id="circle18378" />
      <circle
         r="16.6667"
         style="fill:none;stroke:#000000"
         cx="555"
         cy="850"
         id="circle18380" />
      <path
         style="stroke:none"
         d="m 979,905 c 10.6667,0 16,5.3333 16,16 v 58 c 0,10.6667 -5.3333,16 -16,16 H 521 c -10.6667,0 -16,-5.3333 -16,-16 v -58 c 0,-10.6667 5.3333,-16 16,-16 z"
         id="path18382" />
      <path
         d="m 979,905 c 10.6667,0 16,5.3333 16,16 v 58 c 0,10.6667 -5.3333,16 -16,16 H 521 c -10.6667,0 -16,-5.3333 -16,-16 v -58 c 0,-10.6667 5.3333,-16 16,-16 z"
         style="fill:none;stroke:#000000"
         id="path18384" />
      <path
         style="stroke:none"
         d="m 974,910 c 10.6667,0 16,5.3333 16,16 v 48 c 0,10.6667 -5.3333,16 -16,16 H 526 c -10.6667,0 -16,-5.3333 -16,-16 v -48 c 0,-10.6667 5.3333,-16 16,-16 z"
         id="path18386" />
      <path
         d="m 974,910 c 10.6667,0 16,5.3333 16,16 v 48 c 0,10.6667 -5.3333,16 -16,16 H 526 c -10.6667,0 -16,-5.3333 -16,-16 v -48 c 0,-10.6667 5.3333,-16 16,-16 z"
         style="fill:none;stroke:#000000"
         id="path18388" />
    </g>
    <g
       style="font-size:29.965px;font-family:'.SF NS Text';text-rendering:optimizeLegibility"
       id="g18408">
      <text
         x="605"
         xml:space="preserve"
         y="960"
         style="stroke:none"
         id="text18392">others</text>
      <circle
         style="fill:#ffffff;stroke:none;text-rendering:auto"
         r="16.6667"
         cx="555"
         cy="950"
         id="circle18394" />
      <circle
         r="16.6667"
         style="fill:none;text-rendering:auto"
         cx="555"
         cy="950"
         id="circle18396" />
      <path
         d="m 1479,5 c 10.6666,0 16,5.3333 16,16 v 58 c 0,10.6667 -5.3334,16 -16,16 h -458 c -10.6667,0 -16,-5.3333 -16,-16 V 21 c 0,-10.6667 5.3333,-16 16,-16 z"
         style="fill:#ffffff;stroke:none;text-rendering:auto"
         id="path18398" />
      <path
         d="m 1479,5 c 10.6666,0 16,5.3333 16,16 v 58 c 0,10.6667 -5.3334,16 -16,16 h -458 c -10.6667,0 -16,-5.3333 -16,-16 V 21 c 0,-10.6667 5.3333,-16 16,-16 z"
         style="fill:none;text-rendering:auto"
         id="path18400" />
      <path
         d="m 1474,10 c 10.6666,0 16,5.3333 16,16 v 48 c 0,10.6667 -5.3334,16 -16,16 h -448 c -10.6667,0 -16,-5.3333 -16,-16 V 26 c 0,-10.6667 5.3333,-16 16,-16 z"
         style="fill:#ffffff;stroke:none;text-rendering:auto"
         id="path18402" />
      <path
         d="m 1474,10 c 10.6666,0 16,5.3333 16,16 v 48 c 0,10.6667 -5.3334,16 -16,16 h -448 c -10.6667,0 -16,-5.3333 -16,-16 V 26 c 0,-10.6667 5.3333,-16 16,-16 z"
         style="fill:none;text-rendering:auto"
         id="path18404" />
      <text
         x="1105"
         y="59"
         style="font-size:25.3137px;font-family:'Bangla MN';stroke:none"
         xml:space="preserve"
         id="text18406">rocks</text>
    </g>
    <g
       style="font-size:25.3137px;font-family:'Bangla MN';fill:#ffffff;stroke:#ffffff"
       id="g18422">
      <circle
         r="16.6667"
         style="stroke:none"
         cx="1055"
         cy="50"
         id="circle18410" />
      <circle
         r="16.6667"
         style="fill:none;stroke:#000000"
         cx="1055"
         cy="50"
         id="circle18412" />
      <path
         style="stroke:none"
         d="m 1479,105 c 10.6666,0 16,5.3333 16,16 v 58 c 0,10.6667 -5.3334,16 -16,16 h -458 c -10.6667,0 -16,-5.3333 -16,-16 v -58 c 0,-10.6667 5.3333,-16 16,-16 z"
         id="path18414" />
      <path
         d="m 1479,105 c 10.6666,0 16,5.3333 16,16 v 58 c 0,10.6667 -5.3334,16 -16,16 h -458 c -10.6667,0 -16,-5.3333 -16,-16 v -58 c 0,-10.6667 5.3333,-16 16,-16 z"
         style="fill:none;stroke:#000000"
         id="path18416" />
      <path
         style="stroke:none"
         d="m 1474,110 c 10.6666,0 16,5.3333 16,16 v 48 c 0,10.6667 -5.3334,16 -16,16 h -448 c -10.6667,0 -16,-5.3333 -16,-16 v -48 c 0,-10.6667 5.3333,-16 16,-16 z"
         id="path18418" />
      <path
         d="m 1474,110 c 10.6666,0 16,5.3333 16,16 v 48 c 0,10.6667 -5.3334,16 -16,16 h -448 c -10.6667,0 -16,-5.3333 -16,-16 v -48 c 0,-10.6667 5.3333,-16 16,-16 z"
         style="fill:none;stroke:#000000"
         id="path18420" />
    </g>
    <g
       style="font-size:33.8601px;font-family:'Arial Hebrew Scholar';text-rendering:optimizeLegibility"
       id="g18440">
      <text
         x="1105"
         xml:space="preserve"
         y="158"
         style="stroke:none"
         id="text18424">logistics</text>
      <circle
         style="fill:#ffffff;stroke:none;text-rendering:auto"
         r="16.6667"
         cx="1055"
         cy="150"
         id="circle18426" />
      <circle
         r="16.6667"
         style="fill:none;text-rendering:auto"
         cx="1055"
         cy="150"
         id="circle18428" />
      <path
         d="m 1479,205 c 10.6666,0 16,5.3333 16,16 v 58 c 0,10.6667 -5.3334,16 -16,16 h -458 c -10.6667,0 -16,-5.3333 -16,-16 v -58 c 0,-10.6667 5.3333,-16 16,-16 z"
         style="fill:#ffffff;stroke:none;text-rendering:auto"
         id="path18430" />
      <path
         d="m 1479,205 c 10.6666,0 16,5.3333 16,16 v 58 c 0,10.6667 -5.3334,16 -16,16 h -458 c -10.6667,0 -16,-5.3333 -16,-16 v -58 c 0,-10.6667 5.3333,-16 16,-16 z"
         style="fill:none;text-rendering:auto"
         id="path18432" />
      <path
         d="m 1474,210 c 10.6666,0 16,5.3333 16,16 v 48 c 0,10.6667 -5.3334,16 -16,16 h -448 c -10.6667,0 -16,-5.3333 -16,-16 v -48 c 0,-10.6667 5.3333,-16 16,-16 z"
         style="fill:#ffffff;stroke:none;text-rendering:auto"
         id="path18434" />
      <path
         d="m 1474,210 c 10.6666,0 16,5.3333 16,16 v 48 c 0,10.6667 -5.3334,16 -16,16 h -448 c -10.6667,0 -16,-5.3333 -16,-16 v -48 c 0,-10.6667 5.3333,-16 16,-16 z"
         style="fill:none;text-rendering:auto"
         id="path18436" />
      <text
         x="1105"
         y="267"
         style="font-size:41.1837px;font-family:'PingFang TC';stroke:none"
         xml:space="preserve"
         id="text18438">tools</text>
    </g>
    <g
       style="font-size:41.1837px;font-family:'PingFang TC';fill:#ffffff;stroke:#ffffff"
       id="g18454">
      <circle
         r="16.6667"
         style="stroke:none"
         cx="1055"
         cy="250"
         id="circle18442" />
      <circle
         r="16.6667"
         style="fill:none;stroke:#000000"
         cx="1055"
         cy="250"
         id="circle18444" />
      <path
         style="stroke:none"
         d="m 1479,305 c 10.6666,0 16,5.3333 16,16 v 58 c 0,10.6667 -5.3334,16 -16,16 h -458 c -10.6667,0 -16,-5.3333 -16,-16 v -58 c 0,-10.6667 5.3333,-16 16,-16 z"
         id="path18446" />
      <path
         d="m 1479,305 c 10.6666,0 16,5.3333 16,16 v 58 c 0,10.6667 -5.3334,16 -16,16 h -458 c -10.6667,0 -16,-5.3333 -16,-16 v -58 c 0,-10.6667 5.3333,-16 16,-16 z"
         style="fill:none;stroke:#000000"
         id="path18448" />
      <path
         style="stroke:none"
         d="m 1474,310 c 10.6666,0 16,5.3333 16,16 v 48 c 0,10.6667 -5.3334,16 -16,16 h -448 c -10.6667,0 -16,-5.3333 -16,-16 v -48 c 0,-10.6667 5.3333,-16 16,-16 z"
         id="path18450" />
      <path
         d="m 1474,310 c 10.6666,0 16,5.3333 16,16 v 48 c 0,10.6667 -5.3334,16 -16,16 h -448 c -10.6667,0 -16,-5.3333 -16,-16 v -48 c 0,-10.6667 5.3333,-16 16,-16 z"
         style="fill:none;stroke:#000000"
         id="path18452" />
    </g>
    <g
       style="font-size:37.7126px;font-family:Chalkboard;text-rendering:optimizeLegibility"
       id="g18472">
      <text
         x="1105"
         xml:space="preserve"
         y="364"
         style="stroke:none"
         id="text18456">computers</text>
      <circle
         style="fill:#ffffff;stroke:none;text-rendering:auto"
         r="16.6667"
         cx="1055"
         cy="350"
         id="circle18458" />
      <circle
         r="16.6667"
         style="fill:none;text-rendering:auto"
         cx="1055"
         cy="350"
         id="circle18460" />
      <path
         d="m 1479,405 c 10.6666,0 16,5.3333 16,16 v 58 c 0,10.6667 -5.3334,16 -16,16 h -458 c -10.6667,0 -16,-5.3333 -16,-16 v -58 c 0,-10.6667 5.3333,-16 16,-16 z"
         style="fill:#ffffff;stroke:none;text-rendering:auto"
         id="path18462" />
      <path
         d="m 1479,405 c 10.6666,0 16,5.3333 16,16 v 58 c 0,10.6667 -5.3334,16 -16,16 h -458 c -10.6667,0 -16,-5.3333 -16,-16 v -58 c 0,-10.6667 5.3333,-16 16,-16 z"
         style="fill:none;text-rendering:auto"
         id="path18464" />
      <path
         d="m 1474,410 c 10.6666,0 16,5.3333 16,16 v 48 c 0,10.6667 -5.3334,16 -16,16 h -448 c -10.6667,0 -16,-5.3333 -16,-16 v -48 c 0,-10.6667 5.3333,-16 16,-16 z"
         style="fill:#ffffff;stroke:none;text-rendering:auto"
         id="path18466" />
      <path
         d="m 1474,410 c 10.6666,0 16,5.3333 16,16 v 48 c 0,10.6667 -5.3334,16 -16,16 h -448 c -10.6667,0 -16,-5.3333 -16,-16 v -48 c 0,-10.6667 5.3333,-16 16,-16 z"
         style="fill:none;text-rendering:auto"
         id="path18468" />
      <text
         x="1105"
         y="458"
         style="font-size:26.6325px;font-family:'Snell Roundhand';stroke:none"
         xml:space="preserve"
         id="text18470">the internet</text>
    </g>
    <g
       style="font-size:26.6325px;font-family:'Snell Roundhand';fill:#ffffff;stroke:#ffffff"
       id="g18486">
      <circle
         r="16.6667"
         style="stroke:none"
         cx="1055"
         cy="450"
         id="circle18474" />
      <circle
         r="16.6667"
         style="fill:none;stroke:#000000"
         cx="1055"
         cy="450"
         id="circle18476" />
      <path
         style="stroke:none"
         d="m 1479,505 c 10.6666,0 16,5.3333 16,16 v 58 c 0,10.6667 -5.3334,16 -16,16 h -458 c -10.6667,0 -16,-5.3333 -16,-16 v -58 c 0,-10.6667 5.3333,-16 16,-16 z"
         id="path18478" />
      <path
         d="m 1479,505 c 10.6666,0 16,5.3333 16,16 v 58 c 0,10.6667 -5.3334,16 -16,16 h -458 c -10.6667,0 -16,-5.3333 -16,-16 v -58 c 0,-10.6667 5.3333,-16 16,-16 z"
         style="fill:none;stroke:#000000"
         id="path18480" />
      <path
         style="stroke:none"
         d="m 1474,510 c 10.6666,0 16,5.3333 16,16 v 48 c 0,10.6667 -5.3334,16 -16,16 h -448 c -10.6667,0 -16,-5.3333 -16,-16 v -48 c 0,-10.6667 5.3333,-16 16,-16 z"
         id="path18482" />
      <path
         d="m 1474,510 c 10.6666,0 16,5.3333 16,16 v 48 c 0,10.6667 -5.3334,16 -16,16 h -448 c -10.6667,0 -16,-5.3333 -16,-16 v -48 c 0,-10.6667 5.3333,-16 16,-16 z"
         style="fill:none;stroke:#000000"
         id="path18484" />
    </g>
    <g
       style="font-size:25.984px;font-family:'Songti SC';text-rendering:optimizeLegibility"
       id="g18504">
      <text
         x="1105"
         xml:space="preserve"
         y="559"
         style="stroke:none"
         id="text18488">strange noises</text>
      <circle
         style="fill:#ffffff;stroke:none;text-rendering:auto"
         r="16.6667"
         cx="1055"
         cy="550"
         id="circle18490" />
      <circle
         r="16.6667"
         style="fill:none;text-rendering:auto"
         cx="1055"
         cy="550"
         id="circle18492" />
      <path
         d="m 1479,605 c 10.6666,0 16,5.3333 16,16 v 58 c 0,10.6667 -5.3334,16 -16,16 h -458 c -10.6667,0 -16,-5.3333 -16,-16 v -58 c 0,-10.6667 5.3333,-16 16,-16 z"
         style="fill:#ffffff;stroke:none;text-rendering:auto"
         id="path18494" />
      <path
         d="m 1479,605 c 10.6666,0 16,5.3333 16,16 v 58 c 0,10.6667 -5.3334,16 -16,16 h -458 c -10.6667,0 -16,-5.3333 -16,-16 v -58 c 0,-10.6667 5.3333,-16 16,-16 z"
         style="fill:none;text-rendering:auto"
         id="path18496" />
      <path
         d="m 1474,610 c 10.6666,0 16,5.3333 16,16 v 48 c 0,10.6667 -5.3334,16 -16,16 h -448 c -10.6667,0 -16,-5.3333 -16,-16 v -48 c 0,-10.6667 5.3333,-16 16,-16 z"
         style="fill:#ffffff;stroke:none;text-rendering:auto"
         id="path18498" />
      <path
         d="m 1474,610 c 10.6666,0 16,5.3333 16,16 v 48 c 0,10.6667 -5.3334,16 -16,16 h -448 c -10.6667,0 -16,-5.3333 -16,-16 v -48 c 0,-10.6667 5.3333,-16 16,-16 z"
         style="fill:none;text-rendering:auto"
         id="path18500" />
      <text
         x="1105"
         y="663"
         style="font-size:35.0267px;font-family:'Avenir Next Condensed';stroke:none"
         xml:space="preserve"
         id="text18502">rodeos</text>
    </g>
    <g
       style="font-size:35.0267px;font-family:'Avenir Next Condensed';fill:#ffffff;stroke:#ffffff"
       id="g18518">
      <circle
         r="16.6667"
         style="stroke:none"
         cx="1055"
         cy="650"
         id="circle18506" />
      <circle
         r="16.6667"
         style="fill:none;stroke:#000000"
         cx="1055"
         cy="650"
         id="circle18508" />
      <path
         style="stroke:none"
         d="m 1479,705 c 10.6666,0 16,5.3333 16,16 v 58 c 0,10.6667 -5.3334,16 -16,16 h -458 c -10.6667,0 -16,-5.3333 -16,-16 v -58 c 0,-10.6667 5.3333,-16 16,-16 z"
         id="path18510" />
      <path
         d="m 1479,705 c 10.6666,0 16,5.3333 16,16 v 58 c 0,10.6667 -5.3334,16 -16,16 h -458 c -10.6667,0 -16,-5.3333 -16,-16 v -58 c 0,-10.6667 5.3333,-16 16,-16 z"
         style="fill:none;stroke:#000000"
         id="path18512" />
      <path
         style="stroke:none"
         d="m 1474,710 c 10.6666,0 16,5.3333 16,16 v 48 c 0,10.6667 -5.3334,16 -16,16 h -448 c -10.6667,0 -16,-5.3333 -16,-16 v -48 c 0,-10.6667 5.3333,-16 16,-16 z"
         id="path18514" />
      <path
         d="m 1474,710 c 10.6666,0 16,5.3333 16,16 v 48 c 0,10.6667 -5.3334,16 -16,16 h -448 c -10.6667,0 -16,-5.3333 -16,-16 v -48 c 0,-10.6667 5.3333,-16 16,-16 z"
         style="fill:none;stroke:#000000"
         id="path18516" />
    </g>
    <g
       style="font-size:47.9599px;font-family:AppleMyungjo;text-rendering:optimizeLegibility"
       id="g18536">
      <text
         x="1105"
         xml:space="preserve"
         y="766"
         style="stroke:none"
         id="text18520">vehicle problems</text>
      <circle
         style="fill:#ffffff;stroke:none;text-rendering:auto"
         r="16.6667"
         cx="1055"
         cy="750"
         id="circle18522" />
      <circle
         r="16.6667"
         style="fill:none;text-rendering:auto"
         cx="1055"
         cy="750"
         id="circle18524" />
      <path
         d="m 1479,805 c 10.6666,0 16,5.3333 16,16 v 58 c 0,10.6667 -5.3334,16 -16,16 h -458 c -10.6667,0 -16,-5.3333 -16,-16 v -58 c 0,-10.6667 5.3333,-16 16,-16 z"
         style="fill:#ffffff;stroke:none;text-rendering:auto"
         id="path18526" />
      <path
         d="m 1479,805 c 10.6666,0 16,5.3333 16,16 v 58 c 0,10.6667 -5.3334,16 -16,16 h -458 c -10.6667,0 -16,-5.3333 -16,-16 v -58 c 0,-10.6667 5.3333,-16 16,-16 z"
         style="fill:none;text-rendering:auto"
         id="path18528" />
      <path
         d="m 1474,810 c 10.6666,0 16,5.3333 16,16 v 48 c 0,10.6667 -5.3334,16 -16,16 h -448 c -10.6667,0 -16,-5.3333 -16,-16 v -48 c 0,-10.6667 5.3333,-16 16,-16 z"
         style="fill:#ffffff;stroke:none;text-rendering:auto"
         id="path18530" />
      <path
         d="m 1474,810 c 10.6666,0 16,5.3333 16,16 v 48 c 0,10.6667 -5.3334,16 -16,16 h -448 c -10.6667,0 -16,-5.3333 -16,-16 v -48 c 0,-10.6667 5.3333,-16 16,-16 z"
         style="fill:none;text-rendering:auto"
         id="path18532" />
      <text
         x="1105"
         y="860"
         style="font-size:29.6278px;font-family:'Gill Sans';stroke:none"
         xml:space="preserve"
         id="text18534">waking up</text>
    </g>
    <g
       style="font-size:29.6278px;font-family:'Gill Sans';fill:#ffffff;stroke:#ffffff"
       id="g18550">
      <circle
         r="16.6667"
         style="stroke:none"
         cx="1055"
         cy="850"
         id="circle18538" />
      <circle
         r="16.6667"
         style="fill:none;stroke:#000000"
         cx="1055"
         cy="850"
         id="circle18540" />
      <path
         style="stroke:none"
         d="m 1479,905 c 10.6666,0 16,5.3333 16,16 v 58 c 0,10.6667 -5.3334,16 -16,16 h -458 c -10.6667,0 -16,-5.3333 -16,-16 v -58 c 0,-10.6667 5.3333,-16 16,-16 z"
         id="path18542" />
      <path
         d="m 1479,905 c 10.6666,0 16,5.3333 16,16 v 58 c 0,10.6667 -5.3334,16 -16,16 h -458 c -10.6667,0 -16,-5.3333 -16,-16 v -58 c 0,-10.6667 5.3333,-16 16,-16 z"
         style="fill:none;stroke:#000000"
         id="path18544" />
      <path
         style="stroke:none"
         d="m 1474,910 c 10.6666,0 16,5.3333 16,16 v 48 c 0,10.6667 -5.3334,16 -16,16 h -448 c -10.6667,0 -16,-5.3333 -16,-16 v -48 c 0,-10.6667 5.3333,-16 16,-16 z"
         id="path18546" />
      <path
         d="m 1474,910 c 10.6666,0 16,5.3333 16,16 v 48 c 0,10.6667 -5.3334,16 -16,16 h -448 c -10.6667,0 -16,-5.3333 -16,-16 v -48 c 0,-10.6667 5.3333,-16 16,-16 z"
         style="fill:none;stroke:#000000"
         id="path18548" />
    </g>
    <g
       style="font-size:38.1567px;font-family:'Open Sans';text-rendering:optimizeLegibility"
       id="g18558">
      <text
         x="1105"
         xml:space="preserve"
         y="966"
         style="stroke:none"
         id="text18552">the next ice age</text>
      <circle
         style="fill:#ffffff;stroke:none;text-rendering:auto"
         r="16.6667"
         cx="1055"
         cy="950"
         id="circle18554" />
      <circle
         r="16.6667"
         style="fill:none;text-rendering:auto"
         cx="1055"
         cy="950"
         id="circle18556" />
    </g>
  </g>
  <WCB
     layer="12345"
     node="5254"
     lastpath="142"
     lastpathnc="5254"
     lastknownposx="-2.442143709480149e-14"
     lastknownposy="1.6917023337725823e-14"
     pausedposx="15.35408464566927"
     pausedposy="3.229084645669308"
     randseed="1658813639.63"
     row="0"
     application="Axidraw" />
</svg>
