<?xml version="1.0" encoding="utf-8"?>
<!-- Generator: Adobe Illustrator 25.2.1, SVG Export Plug-In . SVG Version: 6.00 Build 0)  -->
<svg version="1.1" id="Layer_1" xmlns="http://www.w3.org/2000/svg" xmlns:xlink="http://www.w3.org/1999/xlink" x="0px" y="0px"
	 viewBox="0 0 1500 1000" style="enable-background:new 0 0 1500 1000;" xml:space="preserve">
<style type="text/css">
	.st0{fill:#FFFFFF;}
	.st1{fill:none;stroke:#000000;stroke-linecap:square;stroke-miterlimit:10;}
	.st2{font-family:'STHeitiTC-Medium';}
	.st3{font-size:36px;}
	.st4{fill:none;stroke:#000000;stroke-linecap:round;stroke-miterlimit:10;}
	.st5{font-family:'Bungee-Regular';}
	.st6{font-family:'NasalizationRg-Regular';}
	.st7{font-family:'Trattatello';}
	.st8{font-family:'SavoyeLetPlain';}
	.st9{enable-background:new    ;}
	.st10{font-family:'Baskerville';}
	.st11{font-family:'SignPainter-HouseScriptSemibold';}
	.st12{font-family:'AmericanTypewriter-Semibold';}
	.st13{font-family:'Montserrat-Black';}
	.st14{font-family:'JerseyLetters';}
	.st15{font-family:'GillSans';}
	.st16{font-family:'Didot';}
	.st17{font-family:'Copperplate';}
	.st18{font-family:'HoeflerText-Regular';}
	.st19{font-family:'Silom';}
	.st20{font-family:'Athelas-Regular';}
	.st21{font-family:'CooperBlack';}
</style>
<g>
	<g>
		<path class="st0" d="M354,5c10.7,0,16,5.3,16,16v83c0,10.7-5.3,16-16,16H21c-10.7,0-16-5.3-16-16V21C5,10.3,10.3,5,21,5H354z"/>
	</g>
	<g>
		<path class="st1" d="M354,5c10.7,0,16,5.3,16,16v83c0,10.7-5.3,16-16,16H21c-10.7,0-16-5.3-16-16V21C5,10.3,10.3,5,21,5H354z"/>
		<path class="st0" d="M349,10c10.7,0,16,5.3,16,16v73c0,10.7-5.3,16-16,16H26c-10.7,0-16-5.3-16-16V26c0-10.7,5.3-16,16-16H349z"/>
		<path class="st1" d="M349,10c10.7,0,16,5.3,16,16v73c0,10.7-5.3,16-16,16H26c-10.7,0-16-5.3-16-16V26c0-10.7,5.3-16,16-16H349z"/>
		<text transform="matrix(1 0 0 1 68 78)" class="st2 st3">capitalism</text>
		<circle class="st4" cx="36.2" cy="62.5" r="12.5"/>
	</g>
	<g>
		<path class="st0" d="M354,130c10.7,0,16,5.3,16,16v83c0,10.7-5.3,16-16,16H21c-10.7,0-16-5.3-16-16v-83c0-10.7,5.3-16,16-16H354z"
			/>
		<path class="st4" d="M354,130c10.7,0,16,5.3,16,16v83c0,10.7-5.3,16-16,16H21c-10.7,0-16-5.3-16-16v-83c0-10.7,5.3-16,16-16H354z"
			/>
		<path class="st0" d="M349,135c10.7,0,16,5.3,16,16v73c0,10.7-5.3,16-16,16H26c-10.7,0-16-5.3-16-16v-73c0-10.7,5.3-16,16-16H349z"
			/>
		<path class="st4" d="M349,135c10.7,0,16,5.3,16,16v73c0,10.7-5.3,16-16,16H26c-10.7,0-16-5.3-16-16v-73c0-10.7,5.3-16,16-16H349z"
			/>
	</g>
	<g>
		<text transform="matrix(1 0 0 1 68 203)" class="st5 st3">money</text>
		<circle class="st4" cx="36.2" cy="187.5" r="12.5"/>
		<path class="st0" d="M354,255c10.7,0,16,5.3,16,16v83c0,10.7-5.3,16-16,16H21c-10.7,0-16-5.3-16-16v-83c0-10.7,5.3-16,16-16H354z"
			/>
		<path class="st4" d="M354,255c10.7,0,16,5.3,16,16v83c0,10.7-5.3,16-16,16H21c-10.7,0-16-5.3-16-16v-83c0-10.7,5.3-16,16-16H354z"
			/>
		<path class="st0" d="M349,260c10.7,0,16,5.3,16,16v73c0,10.7-5.3,16-16,16H26c-10.7,0-16-5.3-16-16v-73c0-10.7,5.3-16,16-16H349z"
			/>
		<path class="st4" d="M349,260c10.7,0,16,5.3,16,16v73c0,10.7-5.3,16-16,16H26c-10.7,0-16-5.3-16-16v-73c0-10.7,5.3-16,16-16H349z"
			/>
		<text transform="matrix(1 0 0 1 68 330)" class="st6 st3">addiction</text>
		<circle class="st4" cx="36.2" cy="312.5" r="12.5"/>
	</g>
	<g>
		<path class="st0" d="M354,380c10.7,0,16,5.3,16,16v83c0,10.7-5.3,16-16,16H21c-10.7,0-16-5.3-16-16v-83c0-10.7,5.3-16,16-16H354z"
			/>
		<path class="st4" d="M354,380c10.7,0,16,5.3,16,16v83c0,10.7-5.3,16-16,16H21c-10.7,0-16-5.3-16-16v-83c0-10.7,5.3-16,16-16H354z"
			/>
		<path class="st0" d="M349,385c10.7,0,16,5.3,16,16v73c0,10.7-5.3,16-16,16H26c-10.7,0-16-5.3-16-16v-73c0-10.7,5.3-16,16-16H349z"
			/>
		<path class="st4" d="M349,385c10.7,0,16,5.3,16,16v73c0,10.7-5.3,16-16,16H26c-10.7,0-16-5.3-16-16v-73c0-10.7,5.3-16,16-16H349z"
			/>
		<text transform="matrix(1 0 0 1 68 455)" class="st6 st3">alcohol</text>
		<circle class="st4" cx="36.2" cy="437.5" r="12.5"/>
		<path class="st0" d="M354,505c10.7,0,16,5.3,16,16v83c0,10.7-5.3,16-16,16H21c-10.7,0-16-5.3-16-16v-83c0-10.7,5.3-16,16-16H354z"
			/>
		<path class="st4" d="M354,505c10.7,0,16,5.3,16,16v83c0,10.7-5.3,16-16,16H21c-10.7,0-16-5.3-16-16v-83c0-10.7,5.3-16,16-16H354z"
			/>
		<path class="st0" d="M349,510c10.7,0,16,5.3,16,16v73c0,10.7-5.3,16-16,16H26c-10.7,0-16-5.3-16-16v-73c0-10.7,5.3-16,16-16H349z"
			/>
		<path class="st4" d="M349,510c10.7,0,16,5.3,16,16v73c0,10.7-5.3,16-16,16H26c-10.7,0-16-5.3-16-16v-73c0-10.7,5.3-16,16-16H349z"
			/>
	</g>
	<g>
		<text transform="matrix(1 0 0 1 68 584)" class="st7 st3">friends</text>
		<circle class="st4" cx="36.2" cy="562.5" r="12.5"/>
		<path class="st0" d="M354,630c10.7,0,16,5.3,16,16v83c0,10.7-5.3,16-16,16H21c-10.7,0-16-5.3-16-16v-83c0-10.7,5.3-16,16-16H354z"
			/>
		<path class="st4" d="M354,630c10.7,0,16,5.3,16,16v83c0,10.7-5.3,16-16,16H21c-10.7,0-16-5.3-16-16v-83c0-10.7,5.3-16,16-16H354z"
			/>
		<path class="st0" d="M349,635c10.7,0,16,5.3,16,16v73c0,10.7-5.3,16-16,16H26c-10.7,0-16-5.3-16-16v-73c0-10.7,5.3-16,16-16H349z"
			/>
		<path class="st4" d="M349,635c10.7,0,16,5.3,16,16v73c0,10.7-5.3,16-16,16H26c-10.7,0-16-5.3-16-16v-73c0-10.7,5.3-16,16-16H349z"
			/>
		<text transform="matrix(1 0 0 1 68 700)" class="st8 st3">making art</text>
		<circle class="st4" cx="36.2" cy="687.5" r="12.5"/>
	</g>
	<g>
		<path class="st0" d="M354,755c10.7,0,16,5.3,16,16v83c0,10.7-5.3,16-16,16H21c-10.7,0-16-5.3-16-16v-83c0-10.7,5.3-16,16-16H354z"
			/>
		<path class="st4" d="M354,755c10.7,0,16,5.3,16,16v83c0,10.7-5.3,16-16,16H21c-10.7,0-16-5.3-16-16v-83c0-10.7,5.3-16,16-16H354z"
			/>
		<path class="st0" d="M349,760c10.7,0,16,5.3,16,16v73c0,10.7-5.3,16-16,16H26c-10.7,0-16-5.3-16-16v-73c0-10.7,5.3-16,16-16H349z"
			/>
		<path class="st4" d="M349,760c10.7,0,16,5.3,16,16v73c0,10.7-5.3,16-16,16H26c-10.7,0-16-5.3-16-16v-73c0-10.7,5.3-16,16-16H349z"
			/>
	</g>
	<g>
		<g>
			<g class="st9">
				<path d="M69.1,832v-2.2l2.9-0.5v-22l-2.9-0.5v-2.2h6.3v24.7l2.9,0.5v2.2H69.1z"/>
				<path d="M89.4,832.4c-1.8,0-3.3-0.4-4.5-1.2s-2.3-2-2.9-3.4s-1-3.1-1-5v-0.4c0-1.9,0.3-3.5,1-5s1.7-2.6,2.9-3.4s2.8-1.2,4.5-1.2
					c1.8,0,3.3,0.4,4.5,1.2s2.3,2,2.9,3.4s1,3.1,1,5v0.4c0,1.9-0.3,3.6-1,5s-1.7,2.6-2.9,3.4S91.1,832.4,89.4,832.4z M89.4,829.7
					c1.1,0,2-0.3,2.8-0.9s1.3-1.4,1.7-2.5s0.6-2.2,0.6-3.6v-0.4c0-1.3-0.2-2.5-0.6-3.6s-0.9-1.9-1.7-2.5s-1.7-0.9-2.8-0.9
					c-1.1,0-2,0.3-2.8,0.9s-1.3,1.4-1.7,2.5s-0.6,2.2-0.6,3.6v0.4c0,1.3,0.2,2.5,0.6,3.6s0.9,1.9,1.7,2.5S88.3,829.7,89.4,829.7z"/>
				<path d="M109.1,832.4c-1.8,0-3.3-0.4-4.5-1.2s-2.3-2-2.9-3.4s-1-3.1-1-5v-0.4c0-1.9,0.3-3.5,1-5s1.7-2.6,2.9-3.4
					s2.8-1.2,4.5-1.2c1.8,0,3.3,0.4,4.5,1.2s2.3,2,2.9,3.4s1,3.1,1,5v0.4c0,1.9-0.3,3.6-1,5s-1.7,2.6-2.9,3.4
					S110.9,832.4,109.1,832.4z M109.1,829.7c1.1,0,2-0.3,2.8-0.9s1.3-1.4,1.7-2.5s0.6-2.2,0.6-3.6v-0.4c0-1.3-0.2-2.5-0.6-3.6
					s-0.9-1.9-1.7-2.5s-1.7-0.9-2.8-0.9c-1.1,0-2,0.3-2.8,0.9s-1.3,1.4-1.7,2.5s-0.6,2.2-0.6,3.6v0.4c0,1.3,0.2,2.5,0.6,3.6
					s0.9,1.9,1.7,2.5S108,829.7,109.1,829.7z"/>
				<path d="M120.1,832v-2.2l2.9-0.5v-22l-2.9-0.5v-2.2h6.3v24.7l2.9,0.5v2.2H120.1z M126.2,826.5l-1.3-2.7l8.3-8.2l0.1-0.1l-2-0.2
					V813h8.2v2.2l-2.4,0.5L126.2,826.5z M132.3,832v-2.2l1.9-0.2l-0.1-0.1l-5.5-7.1l1.8-2.8l7.7,9.7l2.7,0.4v2.2H132.3z"/>
				<path d="M142.8,832v-2.2l2.9-0.5v-13.6l-2.9-0.5V813h6.3v16.3l2.9,0.5v2.2H142.8z M145.5,808.3v-3.7h3.6v3.7H145.5z"/>
				<path d="M154.4,832v-2.2l2.9-0.5v-13.6l-2.9-0.5V813h6l0.2,2.8c0.6-1,1.4-1.8,2.4-2.3s2-0.8,3.3-0.8c2.1,0,3.6,0.6,4.8,1.8
					s1.7,3.1,1.7,5.6v9.3l2.9,0.5v2.2h-9.2v-2.2l2.9-0.5v-9.2c0-1.7-0.3-2.9-1-3.6s-1.7-1.1-3-1.1c-1,0-1.9,0.2-2.6,0.7
					s-1.4,1.1-1.8,2v11.2l2.9,0.5v2.2H154.4z"/>
				<path d="M186.3,839.7c-0.9,0-1.9-0.1-3-0.4s-2-0.6-2.8-1l0.9-2.7c0.6,0.3,1.4,0.6,2.3,0.8s1.7,0.3,2.6,0.3
					c1.5,0,2.7-0.4,3.4-1.3s1.1-2.1,1.1-3.7v-1.8c-0.6,0.8-1.4,1.4-2.2,1.8s-1.9,0.6-3,0.6c-1.5,0-2.9-0.4-4-1.2s-2-1.8-2.6-3.2
					s-0.9-3-0.9-4.8v-0.4c0-2,0.3-3.8,0.9-5.4s1.5-2.7,2.6-3.6s2.5-1.3,4-1.3c1.2,0,2.2,0.2,3.1,0.7s1.7,1.1,2.3,2l0.3-2.4h2.9v18.8
					c0,1.6-0.3,3.1-0.9,4.2s-1.5,2.1-2.7,2.7S188,839.7,186.3,839.7z M186.4,829.6c1,0,1.9-0.2,2.6-0.7s1.3-1.1,1.7-2v-8.8
					c-0.4-0.8-1-1.5-1.7-1.9s-1.6-0.7-2.6-0.7c-1.1,0-2,0.3-2.8,0.9s-1.3,1.5-1.6,2.6s-0.5,2.4-0.5,3.8v0.4c0,1.9,0.4,3.4,1.2,4.6
					S184.8,829.6,186.4,829.6z M193.7,815.8l-1.4-2.8h4.2v2.2L193.7,815.8z"/>
				<path d="M213.4,832.4c-2,0-3.5-0.5-4.5-1.5s-1.5-2.3-1.5-4.1c0-1.2,0.3-2.3,1-3.2s1.6-1.6,2.9-2.1s2.8-0.7,4.5-0.7h3.4V819
					c0-1.1-0.3-2-1-2.7s-1.7-0.9-2.9-0.9c-0.8,0-1.5,0.1-2.1,0.3s-1.1,0.5-1.6,0.8l-0.4,2.7h-2.7v-4.4c0.9-0.7,1.9-1.2,3-1.6
					s2.4-0.5,3.8-0.5c2.3,0,4.1,0.6,5.4,1.7s2,2.7,2,4.7v9.2c0,0.2,0,0.5,0,0.7s0,0.5,0,0.7l1.8,0.2v2.2h-5c-0.1-0.5-0.2-1-0.2-1.4
					s-0.1-0.8-0.1-1.2c-0.7,0.9-1.5,1.6-2.5,2.1S214.6,832.4,213.4,832.4z M213.9,829.5c1.1,0,2.2-0.3,3.1-0.8s1.6-1.2,2-2v-3.4
					h-3.5c-1.6,0-2.8,0.4-3.6,1.1s-1.2,1.6-1.2,2.5c0,0.8,0.3,1.5,0.8,1.9S212.9,829.5,213.9,829.5z"/>
				<path d="M233.9,832.3c-1.4,0-2.5-0.4-3.3-1.2s-1.2-2.1-1.2-4v-11.5h-3V813h3v-4.6h3.5v4.6h4.1v2.6h-4.1v11.5
					c0,0.9,0.2,1.6,0.5,2s0.8,0.7,1.5,0.7c0.4,0,0.9,0,1.4-0.1s0.9-0.1,1.2-0.2l0.5,2.3c-0.5,0.2-1.1,0.3-1.9,0.4
					S234.5,832.3,233.9,832.3z"/>
				<path d="M255.1,832.4c-2,0-3.5-0.5-4.5-1.5s-1.5-2.3-1.5-4.1c0-1.2,0.3-2.3,1-3.2s1.6-1.6,2.9-2.1s2.8-0.7,4.5-0.7h3.4V819
					c0-1.1-0.3-2-1-2.7s-1.7-0.9-2.9-0.9c-0.8,0-1.5,0.1-2.1,0.3s-1.1,0.5-1.6,0.8l-0.4,2.7h-2.7v-4.4c0.9-0.7,1.9-1.2,3-1.6
					s2.4-0.5,3.8-0.5c2.3,0,4.1,0.6,5.4,1.7s2,2.7,2,4.7v9.2c0,0.2,0,0.5,0,0.7s0,0.5,0,0.7l1.8,0.2v2.2h-5c-0.1-0.5-0.2-1-0.2-1.4
					s-0.1-0.8-0.1-1.2c-0.7,0.9-1.5,1.6-2.5,2.1S256.2,832.4,255.1,832.4z M255.6,829.5c1.1,0,2.2-0.3,3.1-0.8s1.6-1.2,2-2v-3.4
					h-3.5c-1.6,0-2.8,0.4-3.6,1.1s-1.2,1.6-1.2,2.5c0,0.8,0.3,1.5,0.8,1.9S254.6,829.5,255.6,829.5z"/>
				<path d="M268.8,832v-2.2l2.9-0.5v-13.6l-2.9-0.5V813h6l0.3,2.4l0,0.3c0.5-1,1.2-1.7,2-2.3s1.7-0.8,2.7-0.8c0.4,0,0.7,0,1.1,0.1
					s0.7,0.1,0.8,0.2l-0.5,3.2l-2.4-0.1c-0.9-0.1-1.7,0.1-2.3,0.6s-1.1,1.1-1.4,1.9v10.8l2.9,0.5v2.2H268.8z"/>
				<path d="M290.6,832.3c-1.4,0-2.5-0.4-3.3-1.2s-1.2-2.1-1.2-4v-11.5h-3V813h3v-4.6h3.5v4.6h4.1v2.6h-4.1v11.5
					c0,0.9,0.2,1.6,0.5,2s0.8,0.7,1.5,0.7c0.4,0,0.9,0,1.4-0.1s0.9-0.1,1.2-0.2l0.5,2.3c-0.5,0.2-1.1,0.3-1.9,0.4
					S291.2,832.3,290.6,832.3z"/>
			</g>
		</g>
		<circle class="st4" cx="36.2" cy="812.5" r="12.5"/>
		<path class="st0" d="M354,880c10.7,0,16,5.3,16,16v83c0,10.7-5.3,16-16,16H21c-10.7,0-16-5.3-16-16v-83c0-10.7,5.3-16,16-16H354z"
			/>
		<path class="st4" d="M354,880c10.7,0,16,5.3,16,16v83c0,10.7-5.3,16-16,16H21c-10.7,0-16-5.3-16-16v-83c0-10.7,5.3-16,16-16H354z"
			/>
		<path class="st0" d="M349,885c10.7,0,16,5.3,16,16v73c0,10.7-5.3,16-16,16H26c-10.7,0-16-5.3-16-16v-73c0-10.7,5.3-16,16-16H349z"
			/>
		<path class="st4" d="M349,885c10.7,0,16,5.3,16,16v73c0,10.7-5.3,16-16,16H26c-10.7,0-16-5.3-16-16v-73c0-10.7,5.3-16,16-16H349z"
			/>
		<text transform="matrix(1 0 0 1 68 953)" class="st2 st3">understanding</text>
		<circle class="st4" cx="36.2" cy="937.5" r="12.5"/>
	</g>
	<g>
		<path class="st0" d="M729,5c10.7,0,16,5.3,16,16v83c0,10.7-5.3,16-16,16H396c-10.7,0-16-5.3-16-16V21c0-10.7,5.3-16,16-16H729z"/>
		<path class="st4" d="M729,5c10.7,0,16,5.3,16,16v83c0,10.7-5.3,16-16,16H396c-10.7,0-16-5.3-16-16V21c0-10.7,5.3-16,16-16H729z"/>
		<path class="st0" d="M724,10c10.7,0,16,5.3,16,16v73c0,10.7-5.3,16-16,16H401c-10.7,0-16-5.3-16-16V26c0-10.7,5.3-16,16-16H724z"
			/>
		<path class="st4" d="M724,10c10.7,0,16,5.3,16,16v73c0,10.7-5.3,16-16,16H401c-10.7,0-16-5.3-16-16V26c0-10.7,5.3-16,16-16H724z"
			/>
	</g>
	<g>
		<text transform="matrix(1 0 0 1 443 79)" class="st10 st3">the usa</text>
		<circle class="st4" cx="411.2" cy="62.5" r="12.5"/>
		<path class="st0" d="M729,130c10.7,0,16,5.3,16,16v83c0,10.7-5.3,16-16,16H396c-10.7,0-16-5.3-16-16v-83c0-10.7,5.3-16,16-16H729z
			"/>
		<path class="st4" d="M729,130c10.7,0,16,5.3,16,16v83c0,10.7-5.3,16-16,16H396c-10.7,0-16-5.3-16-16v-83c0-10.7,5.3-16,16-16H729z
			"/>
		<path class="st0" d="M724,135c10.7,0,16,5.3,16,16v73c0,10.7-5.3,16-16,16H401c-10.7,0-16-5.3-16-16v-73c0-10.7,5.3-16,16-16H724z
			"/>
		<path class="st4" d="M724,135c10.7,0,16,5.3,16,16v73c0,10.7-5.3,16-16,16H401c-10.7,0-16-5.3-16-16v-73c0-10.7,5.3-16,16-16H724z
			"/>
		<text transform="matrix(1 0 0 1 443 201)" class="st11 st3">Putin</text>
		<circle class="st4" cx="411.2" cy="187.5" r="12.5"/>
	</g>
	<g>
		<path class="st0" d="M729,255c10.7,0,16,5.3,16,16v83c0,10.7-5.3,16-16,16H396c-10.7,0-16-5.3-16-16v-83c0-10.7,5.3-16,16-16H729z
			"/>
		<path class="st4" d="M729,255c10.7,0,16,5.3,16,16v83c0,10.7-5.3,16-16,16H396c-10.7,0-16-5.3-16-16v-83c0-10.7,5.3-16,16-16H729z
			"/>
		<path class="st0" d="M724,260c10.7,0,16,5.3,16,16v73c0,10.7-5.3,16-16,16H401c-10.7,0-16-5.3-16-16v-73c0-10.7,5.3-16,16-16H724z
			"/>
		<path class="st4" d="M724,260c10.7,0,16,5.3,16,16v73c0,10.7-5.3,16-16,16H401c-10.7,0-16-5.3-16-16v-73c0-10.7,5.3-16,16-16H724z
			"/>
	</g>
	<g>
		<text transform="matrix(1 0 0 1 443 329)" class="st12 st3">gluten</text>
		<circle class="st4" cx="411.2" cy="312.5" r="12.5"/>
		<path class="st0" d="M729,380c10.7,0,16,5.3,16,16v83c0,10.7-5.3,16-16,16H396c-10.7,0-16-5.3-16-16v-83c0-10.7,5.3-16,16-16H729z
			"/>
		<path class="st4" d="M729,380c10.7,0,16,5.3,16,16v83c0,10.7-5.3,16-16,16H396c-10.7,0-16-5.3-16-16v-83c0-10.7,5.3-16,16-16H729z
			"/>
		<path class="st0" d="M724,385c10.7,0,16,5.3,16,16v73c0,10.7-5.3,16-16,16H401c-10.7,0-16-5.3-16-16v-73c0-10.7,5.3-16,16-16H724z
			"/>
		<path class="st4" d="M724,385c10.7,0,16,5.3,16,16v73c0,10.7-5.3,16-16,16H401c-10.7,0-16-5.3-16-16v-73c0-10.7,5.3-16,16-16H724z
			"/>
		<text transform="matrix(1 0 0 1 443 453)" class="st5 st3">dairy</text>
		<circle class="st4" cx="411.2" cy="437.5" r="12.5"/>
	</g>
	<g>
		<path class="st0" d="M729,505c10.7,0,16,5.3,16,16v83c0,10.7-5.3,16-16,16H396c-10.7,0-16-5.3-16-16v-83c0-10.7,5.3-16,16-16H729z
			"/>
		<path class="st4" d="M729,505c10.7,0,16,5.3,16,16v83c0,10.7-5.3,16-16,16H396c-10.7,0-16-5.3-16-16v-83c0-10.7,5.3-16,16-16H729z
			"/>
		<path class="st0" d="M724,510c10.7,0,16,5.3,16,16v73c0,10.7-5.3,16-16,16H401c-10.7,0-16-5.3-16-16v-73c0-10.7,5.3-16,16-16H724z
			"/>
		<path class="st4" d="M724,510c10.7,0,16,5.3,16,16v73c0,10.7-5.3,16-16,16H401c-10.7,0-16-5.3-16-16v-73c0-10.7,5.3-16,16-16H724z
			"/>
	</g>
	<g>
		<text transform="matrix(1 0 0 1 443 580)" class="st13 st3">overeating</text>
		<circle class="st4" cx="411.2" cy="562.5" r="12.5"/>
		<path class="st0" d="M729,630c10.7,0,16,5.3,16,16v83c0,10.7-5.3,16-16,16H396c-10.7,0-16-5.3-16-16v-83c0-10.7,5.3-16,16-16H729z
			"/>
		<path class="st4" d="M729,630c10.7,0,16,5.3,16,16v83c0,10.7-5.3,16-16,16H396c-10.7,0-16-5.3-16-16v-83c0-10.7,5.3-16,16-16H729z
			"/>
		<path class="st0" d="M724,635c10.7,0,16,5.3,16,16v73c0,10.7-5.3,16-16,16H401c-10.7,0-16-5.3-16-16v-73c0-10.7,5.3-16,16-16H724z
			"/>
		<path class="st4" d="M724,635c10.7,0,16,5.3,16,16v73c0,10.7-5.3,16-16,16H401c-10.7,0-16-5.3-16-16v-73c0-10.7,5.3-16,16-16H724z
			"/>
		<text transform="matrix(1 0 0 1 443 705)" class="st14 st3">asbestos</text>
		<circle class="st4" cx="411.2" cy="687.5" r="12.5"/>
	</g>
	<g>
		<path class="st0" d="M729,755c10.7,0,16,5.3,16,16v83c0,10.7-5.3,16-16,16H396c-10.7,0-16-5.3-16-16v-83c0-10.7,5.3-16,16-16H729z
			"/>
		<path class="st4" d="M729,755c10.7,0,16,5.3,16,16v83c0,10.7-5.3,16-16,16H396c-10.7,0-16-5.3-16-16v-83c0-10.7,5.3-16,16-16H729z
			"/>
		<path class="st0" d="M724,760c10.7,0,16,5.3,16,16v73c0,10.7-5.3,16-16,16H401c-10.7,0-16-5.3-16-16v-73c0-10.7,5.3-16,16-16H724z
			"/>
		<path class="st4" d="M724,760c10.7,0,16,5.3,16,16v73c0,10.7-5.3,16-16,16H401c-10.7,0-16-5.3-16-16v-73c0-10.7,5.3-16,16-16H724z
			"/>
	</g>
	<g>
		<text transform="matrix(1 0 0 1 443 831)" class="st15 st3">alligators</text>
		<circle class="st4" cx="411.2" cy="812.5" r="12.5"/>
		<path class="st0" d="M729,880c10.7,0,16,5.3,16,16v83c0,10.7-5.3,16-16,16H396c-10.7,0-16-5.3-16-16v-83c0-10.7,5.3-16,16-16H729z
			"/>
		<path class="st4" d="M729,880c10.7,0,16,5.3,16,16v83c0,10.7-5.3,16-16,16H396c-10.7,0-16-5.3-16-16v-83c0-10.7,5.3-16,16-16H729z
			"/>
		<path class="st0" d="M724,885c10.7,0,16,5.3,16,16v73c0,10.7-5.3,16-16,16H401c-10.7,0-16-5.3-16-16v-73c0-10.7,5.3-16,16-16H724z
			"/>
		<path class="st4" d="M724,885c10.7,0,16,5.3,16,16v73c0,10.7-5.3,16-16,16H401c-10.7,0-16-5.3-16-16v-73c0-10.7,5.3-16,16-16H724z
			"/>
		<text transform="matrix(1 0 0 1 443 955)" class="st16 st3">string theory</text>
		<circle class="st4" cx="411.2" cy="937.5" r="12.5"/>
	</g>
	<g>
		<path class="st0" d="M1104,5c10.7,0,16,5.3,16,16v83c0,10.7-5.3,16-16,16H771c-10.7,0-16-5.3-16-16V21c0-10.7,5.3-16,16-16H1104z"
			/>
		<path class="st4" d="M1104,5c10.7,0,16,5.3,16,16v83c0,10.7-5.3,16-16,16H771c-10.7,0-16-5.3-16-16V21c0-10.7,5.3-16,16-16H1104z"
			/>
		<path class="st0" d="M1099,10c10.7,0,16,5.3,16,16v73c0,10.7-5.3,16-16,16H776c-10.7,0-16-5.3-16-16V26c0-10.7,5.3-16,16-16H1099z
			"/>
		<path class="st4" d="M1099,10c10.7,0,16,5.3,16,16v73c0,10.7-5.3,16-16,16H776c-10.7,0-16-5.3-16-16V26c0-10.7,5.3-16,16-16H1099z
			"/>
	</g>
	<g>
		<g>
			<g class="st9">
				<path d="M818.8,89.3v-2.2l2.7-0.5V65.7l-2.9-0.5V63h5.8l0.3,2.3c0.6-0.9,1.4-1.5,2.3-2s2-0.7,3.2-0.7c1.6,0,2.9,0.4,4,1.3
					s2,2,2.5,3.6s0.9,3.3,0.9,5.4v0.4c0,1.8-0.3,3.4-0.9,4.8s-1.4,2.4-2.5,3.2s-2.4,1.2-4,1.2c-1.2,0-2.2-0.2-3.1-0.6
					s-1.6-1-2.3-1.7v6.6l3,0.5v2.2H818.8z M829.2,79.7c1.6,0,2.9-0.6,3.7-1.8s1.3-2.7,1.3-4.7v-0.4c0-1.5-0.2-2.7-0.6-3.8
					s-0.9-2-1.7-2.6s-1.7-0.9-2.8-0.9c-1,0-1.8,0.2-2.5,0.7s-1.3,1.1-1.7,1.8v9.3c0.4,0.8,1,1.4,1.7,1.8S828.2,79.7,829.2,79.7z"/>
				<path d="M839.9,82v-2.2l2.9-0.5v-22l-2.9-0.5v-2.2h6.3v10.9c0.7-0.9,1.5-1.6,2.4-2.1s2-0.8,3.2-0.8c2,0,3.6,0.6,4.7,1.8
					s1.7,3.1,1.7,5.6v9.2l2.9,0.5V82h-9.2v-2.2l2.9-0.5V70c0-1.6-0.3-2.7-1-3.5s-1.7-1.1-3-1.1c-0.9,0-1.8,0.2-2.6,0.7
					s-1.4,1.1-1.9,1.8v11.3l2.9,0.5V82H839.9z"/>
				<path d="M867.6,89.7c-0.3,0-0.6,0-1.1-0.1s-0.8-0.1-1-0.2l0.4-2.7c0.2,0,0.5,0,0.8,0.1s0.6,0,0.7,0c0.7,0,1.3-0.3,1.8-0.8
					s0.9-1.3,1.3-2.3l0.8-2l-6.7-16.1l-2-0.3V63h8v2.2l-2.3,0.4l3.7,9.5l0.9,2.5h0.1l4.4-12l-2.4-0.4V63h7.8v2.2l-2,0.3l-7.5,19.4
					c-0.4,0.9-0.8,1.7-1.3,2.5s-1.1,1.3-1.8,1.7S868.6,89.7,867.6,89.7z"/>
				<path d="M892.1,82.4c-1.3,0-2.5-0.1-3.6-0.4s-2.3-0.7-3.6-1.2l0-4.5h2.6l0.7,2.7c0.7,0.3,1.3,0.5,1.9,0.6s1.3,0.2,2,0.2
					c1.4,0,2.4-0.3,3-0.8s0.9-1.2,0.9-2c0-0.8-0.3-1.4-0.9-1.9s-1.7-1-3.3-1.3c-2.3-0.5-4-1.2-5.1-2.1s-1.6-2.1-1.6-3.5
					c0-1,0.3-2,0.9-2.8s1.4-1.5,2.5-1.9s2.3-0.7,3.7-0.7c1.4,0,2.7,0.2,3.7,0.5s1.9,0.8,2.7,1.3l0.2,4.3h-2.6l-0.6-2.5
					c-0.4-0.3-0.9-0.5-1.5-0.7s-1.2-0.2-1.9-0.2c-1.1,0-2,0.3-2.6,0.8s-1,1.1-1,1.9c0,0.4,0.1,0.8,0.3,1.2s0.6,0.6,1.1,0.9
					s1.4,0.5,2.4,0.8c2.6,0.6,4.5,1.4,5.5,2.4s1.6,2.1,1.6,3.6c0,1.6-0.6,3-1.8,4S894.7,82.4,892.1,82.4z"/>
				<path d="M902.3,82v-2.2l2.9-0.5V65.7l-2.9-0.5V63h6.3v16.3l2.9,0.5V82H902.3z M904.9,58.3v-3.7h3.6v3.7H904.9z"/>
				<path d="M922.4,82.4c-1.7,0-3.2-0.4-4.5-1.2s-2.3-1.9-3-3.3s-1.1-3.1-1.1-5v-0.7c0-1.8,0.3-3.4,1-4.9s1.7-2.6,2.9-3.4
					s2.8-1.2,4.6-1.2c1.5,0,2.9,0.3,4,0.8s2.1,1.2,2.9,2.1l0.1,4.6h-2.7l-0.6-3.3c-0.4-0.4-0.9-0.7-1.5-1s-1.3-0.4-2.1-0.4
					c-1,0-1.9,0.3-2.7,0.9s-1.4,1.4-1.8,2.4s-0.7,2.2-0.7,3.4v0.7c0,1.4,0.2,2.6,0.6,3.6s1,1.8,1.7,2.4s1.7,0.8,2.7,0.8
					c1.2,0,2.1-0.3,2.9-1s1.2-1.5,1.4-2.7h3.1l0,0.1c-0.1,1.1-0.4,2.1-1,3.1s-1.4,1.7-2.5,2.3S924,82.4,922.4,82.4z"/>
				<path d="M940.3,82.4c-1.3,0-2.5-0.1-3.6-0.4s-2.3-0.7-3.6-1.2l0-4.5h2.6l0.7,2.7c0.7,0.3,1.3,0.5,1.9,0.6s1.3,0.2,2,0.2
					c1.4,0,2.4-0.3,3-0.8s0.9-1.2,0.9-2c0-0.8-0.3-1.4-0.9-1.9s-1.7-1-3.3-1.3c-2.3-0.5-4-1.2-5.1-2.1s-1.6-2.1-1.6-3.5
					c0-1,0.3-2,0.9-2.8s1.4-1.5,2.5-1.9s2.3-0.7,3.7-0.7c1.4,0,2.7,0.2,3.7,0.5s1.9,0.8,2.7,1.3l0.2,4.3h-2.6l-0.6-2.5
					c-0.4-0.3-0.9-0.5-1.5-0.7s-1.2-0.2-1.9-0.2c-1.1,0-2,0.3-2.6,0.8s-1,1.1-1,1.9c0,0.4,0.1,0.8,0.3,1.2s0.6,0.6,1.1,0.9
					s1.4,0.5,2.4,0.8c2.6,0.6,4.5,1.4,5.5,2.4s1.6,2.1,1.6,3.6c0,1.6-0.6,3-1.8,4S942.8,82.4,940.3,82.4z"/>
			</g>
		</g>
		<circle class="st4" cx="786.2" cy="62.5" r="12.5"/>
		<path class="st0" d="M1104,130c10.7,0,16,5.3,16,16v83c0,10.7-5.3,16-16,16H771c-10.7,0-16-5.3-16-16v-83c0-10.7,5.3-16,16-16
			H1104z"/>
		<path class="st4" d="M1104,130c10.7,0,16,5.3,16,16v83c0,10.7-5.3,16-16,16H771c-10.7,0-16-5.3-16-16v-83c0-10.7,5.3-16,16-16
			H1104z"/>
		<path class="st0" d="M1099,135c10.7,0,16,5.3,16,16v73c0,10.7-5.3,16-16,16H776c-10.7,0-16-5.3-16-16v-73c0-10.7,5.3-16,16-16
			H1099z"/>
		<path class="st4" d="M1099,135c10.7,0,16,5.3,16,16v73c0,10.7-5.3,16-16,16H776c-10.7,0-16-5.3-16-16v-73c0-10.7,5.3-16,16-16
			H1099z"/>
		<text transform="matrix(1 0 0 1 818 204)" class="st10 st3">bathrooms</text>
		<circle class="st4" cx="786.2" cy="187.5" r="12.5"/>
	</g>
	<g>
		<path class="st0" d="M1104,255c10.7,0,16,5.3,16,16v83c0,10.7-5.3,16-16,16H771c-10.7,0-16-5.3-16-16v-83c0-10.7,5.3-16,16-16
			H1104z"/>
		<path class="st4" d="M1104,255c10.7,0,16,5.3,16,16v83c0,10.7-5.3,16-16,16H771c-10.7,0-16-5.3-16-16v-83c0-10.7,5.3-16,16-16
			H1104z"/>
		<path class="st0" d="M1099,260c10.7,0,16,5.3,16,16v73c0,10.7-5.3,16-16,16H776c-10.7,0-16-5.3-16-16v-73c0-10.7,5.3-16,16-16
			H1099z"/>
		<path class="st4" d="M1099,260c10.7,0,16,5.3,16,16v73c0,10.7-5.3,16-16,16H776c-10.7,0-16-5.3-16-16v-73c0-10.7,5.3-16,16-16
			H1099z"/>
	</g>
	<g>
		<text transform="matrix(1 0 0 1 818 331)" class="st15 st3">myself</text>
		<circle class="st4" cx="786.2" cy="312.5" r="12.5"/>
		<path class="st0" d="M1104,380c10.7,0,16,5.3,16,16v83c0,10.7-5.3,16-16,16H771c-10.7,0-16-5.3-16-16v-83c0-10.7,5.3-16,16-16
			H1104z"/>
		<path class="st4" d="M1104,380c10.7,0,16,5.3,16,16v83c0,10.7-5.3,16-16,16H771c-10.7,0-16-5.3-16-16v-83c0-10.7,5.3-16,16-16
			H1104z"/>
		<path class="st0" d="M1099,385c10.7,0,16,5.3,16,16v73c0,10.7-5.3,16-16,16H776c-10.7,0-16-5.3-16-16v-73c0-10.7,5.3-16,16-16
			H1099z"/>
		<path class="st4" d="M1099,385c10.7,0,16,5.3,16,16v73c0,10.7-5.3,16-16,16H776c-10.7,0-16-5.3-16-16v-73c0-10.7,5.3-16,16-16
			H1099z"/>
		<text transform="matrix(1 0 0 1 818 454)" class="st10 st3">others</text>
		<circle class="st4" cx="786.2" cy="437.5" r="12.5"/>
	</g>
	<g>
		<path class="st0" d="M1104,505c10.7,0,16,5.3,16,16v83c0,10.7-5.3,16-16,16H771c-10.7,0-16-5.3-16-16v-83c0-10.7,5.3-16,16-16
			H1104z"/>
		<path class="st4" d="M1104,505c10.7,0,16,5.3,16,16v83c0,10.7-5.3,16-16,16H771c-10.7,0-16-5.3-16-16v-83c0-10.7,5.3-16,16-16
			H1104z"/>
		<path class="st0" d="M1099,510c10.7,0,16,5.3,16,16v73c0,10.7-5.3,16-16,16H776c-10.7,0-16-5.3-16-16v-73c0-10.7,5.3-16,16-16
			H1099z"/>
		<path class="st4" d="M1099,510c10.7,0,16,5.3,16,16v73c0,10.7-5.3,16-16,16H776c-10.7,0-16-5.3-16-16v-73c0-10.7,5.3-16,16-16
			H1099z"/>
		<text transform="matrix(1 0 0 1 818 579)" class="st10 st3">rocks</text>
		<circle class="st4" cx="786.2" cy="562.5" r="12.5"/>
		<path class="st0" d="M1104,630c10.7,0,16,5.3,16,16v83c0,10.7-5.3,16-16,16H771c-10.7,0-16-5.3-16-16v-83c0-10.7,5.3-16,16-16
			H1104z"/>
		<path class="st4" d="M1104,630c10.7,0,16,5.3,16,16v83c0,10.7-5.3,16-16,16H771c-10.7,0-16-5.3-16-16v-83c0-10.7,5.3-16,16-16
			H1104z"/>
		<path class="st0" d="M1099,635c10.7,0,16,5.3,16,16v73c0,10.7-5.3,16-16,16H776c-10.7,0-16-5.3-16-16v-73c0-10.7,5.3-16,16-16
			H1099z"/>
		<path class="st4" d="M1099,635c10.7,0,16,5.3,16,16v73c0,10.7-5.3,16-16,16H776c-10.7,0-16-5.3-16-16v-73c0-10.7,5.3-16,16-16
			H1099z"/>
		<text transform="matrix(1 0 0 1 818 704)" class="st10 st3">logistics</text>
		<circle class="st4" cx="786.2" cy="687.5" r="12.5"/>
		<path class="st0" d="M1104,755c10.7,0,16,5.3,16,16v83c0,10.7-5.3,16-16,16H771c-10.7,0-16-5.3-16-16v-83c0-10.7,5.3-16,16-16
			H1104z"/>
		<path class="st4" d="M1104,755c10.7,0,16,5.3,16,16v83c0,10.7-5.3,16-16,16H771c-10.7,0-16-5.3-16-16v-83c0-10.7,5.3-16,16-16
			H1104z"/>
		<path class="st0" d="M1099,760c10.7,0,16,5.3,16,16v73c0,10.7-5.3,16-16,16H776c-10.7,0-16-5.3-16-16v-73c0-10.7,5.3-16,16-16
			H1099z"/>
		<path class="st4" d="M1099,760c10.7,0,16,5.3,16,16v73c0,10.7-5.3,16-16,16H776c-10.7,0-16-5.3-16-16v-73c0-10.7,5.3-16,16-16
			H1099z"/>
	</g>
	<g>
		<text transform="matrix(1 0 0 1 818 827)" class="st17 st3">tools</text>
		<circle class="st4" cx="786.2" cy="812.5" r="12.5"/>
		<path class="st0" d="M1104,880c10.7,0,16,5.3,16,16v83c0,10.7-5.3,16-16,16H771c-10.7,0-16-5.3-16-16v-83c0-10.7,5.3-16,16-16
			H1104z"/>
		<path class="st4" d="M1104,880c10.7,0,16,5.3,16,16v83c0,10.7-5.3,16-16,16H771c-10.7,0-16-5.3-16-16v-83c0-10.7,5.3-16,16-16
			H1104z"/>
		<path class="st0" d="M1099,885c10.7,0,16,5.3,16,16v73c0,10.7-5.3,16-16,16H776c-10.7,0-16-5.3-16-16v-73c0-10.7,5.3-16,16-16
			H1099z"/>
		<path class="st4" d="M1099,885c10.7,0,16,5.3,16,16v73c0,10.7-5.3,16-16,16H776c-10.7,0-16-5.3-16-16v-73c0-10.7,5.3-16,16-16
			H1099z"/>
		<text transform="matrix(1 0 0 1 818 951)" class="st18 st3">computers</text>
		<circle class="st4" cx="786.2" cy="937.5" r="12.5"/>
	</g>
	<g>
		<path class="st0" d="M1479,5c10.7,0,16,5.3,16,16v83c0,10.7-5.3,16-16,16h-333c-10.7,0-16-5.3-16-16V21c0-10.7,5.3-16,16-16H1479z
			"/>
		<path class="st4" d="M1479,5c10.7,0,16,5.3,16,16v83c0,10.7-5.3,16-16,16h-333c-10.7,0-16-5.3-16-16V21c0-10.7,5.3-16,16-16H1479z
			"/>
		<path class="st0" d="M1474,10c10.7,0,16,5.3,16,16v73c0,10.7-5.3,16-16,16h-323c-10.7,0-16-5.3-16-16V26c0-10.7,5.3-16,16-16H1474
			z"/>
		<path class="st4" d="M1474,10c10.7,0,16,5.3,16,16v73c0,10.7-5.3,16-16,16h-323c-10.7,0-16-5.3-16-16V26c0-10.7,5.3-16,16-16H1474
			z"/>
	</g>
	<g>
		<text transform="matrix(1 0 0 1 1193 80)" class="st19 st3">the internet</text>
		<circle class="st4" cx="1161.2" cy="62.5" r="12.5"/>
		<path class="st0" d="M1479,130c10.7,0,16,5.3,16,16v83c0,10.7-5.3,16-16,16h-333c-10.7,0-16-5.3-16-16v-83c0-10.7,5.3-16,16-16
			H1479z"/>
		<path class="st4" d="M1479,130c10.7,0,16,5.3,16,16v83c0,10.7-5.3,16-16,16h-333c-10.7,0-16-5.3-16-16v-83c0-10.7,5.3-16,16-16
			H1479z"/>
		<path class="st0" d="M1474,135c10.7,0,16,5.3,16,16v73c0,10.7-5.3,16-16,16h-323c-10.7,0-16-5.3-16-16v-73c0-10.7,5.3-16,16-16
			H1474z"/>
		<path class="st4" d="M1474,135c10.7,0,16,5.3,16,16v73c0,10.7-5.3,16-16,16h-323c-10.7,0-16-5.3-16-16v-73c0-10.7,5.3-16,16-16
			H1474z"/>
		<text transform="matrix(1 0 0 1 1193 205)" class="st13 st3">strange noises</text>
		<circle class="st4" cx="1161.2" cy="187.5" r="12.5"/>
	</g>
	<g>
		<path class="st0" d="M1479,255c10.7,0,16,5.3,16,16v83c0,10.7-5.3,16-16,16h-333c-10.7,0-16-5.3-16-16v-83c0-10.7,5.3-16,16-16
			H1479z"/>
		<path class="st4" d="M1479,255c10.7,0,16,5.3,16,16v83c0,10.7-5.3,16-16,16h-333c-10.7,0-16-5.3-16-16v-83c0-10.7,5.3-16,16-16
			H1479z"/>
		<path class="st0" d="M1474,260c10.7,0,16,5.3,16,16v73c0,10.7-5.3,16-16,16h-323c-10.7,0-16-5.3-16-16v-73c0-10.7,5.3-16,16-16
			H1474z"/>
		<path class="st4" d="M1474,260c10.7,0,16,5.3,16,16v73c0,10.7-5.3,16-16,16h-323c-10.7,0-16-5.3-16-16v-73c0-10.7,5.3-16,16-16
			H1474z"/>
	</g>
	<g>
		<text transform="matrix(1 0 0 1 1193 329)" class="st12 st3">rodeos</text>
		<circle class="st4" cx="1161.2" cy="312.5" r="12.5"/>
		<path class="st0" d="M1479,380c10.7,0,16,5.3,16,16v83c0,10.7-5.3,16-16,16h-333c-10.7,0-16-5.3-16-16v-83c0-10.7,5.3-16,16-16
			H1479z"/>
		<path class="st4" d="M1479,380c10.7,0,16,5.3,16,16v83c0,10.7-5.3,16-16,16h-333c-10.7,0-16-5.3-16-16v-83c0-10.7,5.3-16,16-16
			H1479z"/>
		<path class="st0" d="M1474,385c10.7,0,16,5.3,16,16v73c0,10.7-5.3,16-16,16h-323c-10.7,0-16-5.3-16-16v-73c0-10.7,5.3-16,16-16
			H1474z"/>
		<path class="st4" d="M1474,385c10.7,0,16,5.3,16,16v73c0,10.7-5.3,16-16,16h-323c-10.7,0-16-5.3-16-16v-73c0-10.7,5.3-16,16-16
			H1474z"/>
		<text transform="matrix(1 0 0 1 1193 455)" class="st6 st3">vehicle problems</text>
		<circle class="st4" cx="1161.2" cy="437.5" r="12.5"/>
	</g>
	<g>
		<path class="st0" d="M1479,505c10.7,0,16,5.3,16,16v83c0,10.7-5.3,16-16,16h-333c-10.7,0-16-5.3-16-16v-83c0-10.7,5.3-16,16-16
			H1479z"/>
		<path class="st4" d="M1479,505c10.7,0,16,5.3,16,16v83c0,10.7-5.3,16-16,16h-333c-10.7,0-16-5.3-16-16v-83c0-10.7,5.3-16,16-16
			H1479z"/>
		<path class="st0" d="M1474,510c10.7,0,16,5.3,16,16v73c0,10.7-5.3,16-16,16h-323c-10.7,0-16-5.3-16-16v-73c0-10.7,5.3-16,16-16
			H1474z"/>
		<path class="st4" d="M1474,510c10.7,0,16,5.3,16,16v73c0,10.7-5.3,16-16,16h-323c-10.7,0-16-5.3-16-16v-73c0-10.7,5.3-16,16-16
			H1474z"/>
	</g>
	<g>
		<text transform="matrix(1 0 0 1 1193 579)" class="st20 st3">waking up</text>
		<circle class="st4" cx="1161.2" cy="562.5" r="12.5"/>
		<path class="st0" d="M1479,630c10.7,0,16,5.3,16,16v83c0,10.7-5.3,16-16,16h-333c-10.7,0-16-5.3-16-16v-83c0-10.7,5.3-16,16-16
			H1479z"/>
		<path class="st4" d="M1479,630c10.7,0,16,5.3,16,16v83c0,10.7-5.3,16-16,16h-333c-10.7,0-16-5.3-16-16v-83c0-10.7,5.3-16,16-16
			H1479z"/>
		<path class="st0" d="M1474,635c10.7,0,16,5.3,16,16v73c0,10.7-5.3,16-16,16h-323c-10.7,0-16-5.3-16-16v-73c0-10.7,5.3-16,16-16
			H1474z"/>
		<path class="st4" d="M1474,635c10.7,0,16,5.3,16,16v73c0,10.7-5.3,16-16,16h-323c-10.7,0-16-5.3-16-16v-73c0-10.7,5.3-16,16-16
			H1474z"/>
		<text transform="matrix(1 0 0 1 1193 704)" class="st12 st3">the next ice age</text>
		<circle class="st4" cx="1161.2" cy="687.5" r="12.5"/>
	</g>
	<g>
		<path class="st0" d="M1479,755c10.7,0,16,5.3,16,16v83c0,10.7-5.3,16-16,16h-333c-10.7,0-16-5.3-16-16v-83c0-10.7,5.3-16,16-16
			H1479z"/>
		<path class="st4" d="M1479,755c10.7,0,16,5.3,16,16v83c0,10.7-5.3,16-16,16h-333c-10.7,0-16-5.3-16-16v-83c0-10.7,5.3-16,16-16
			H1479z"/>
		<path class="st0" d="M1474,760c10.7,0,16,5.3,16,16v73c0,10.7-5.3,16-16,16h-323c-10.7,0-16-5.3-16-16v-73c0-10.7,5.3-16,16-16
			H1474z"/>
		<path class="st4" d="M1474,760c10.7,0,16,5.3,16,16v73c0,10.7-5.3,16-16,16h-323c-10.7,0-16-5.3-16-16v-73c0-10.7,5.3-16,16-16
			H1474z"/>
	</g>
	<g>
		<text transform="matrix(1 0 0 1 1193 826)" class="st18 st3">waiting</text>
		<circle class="st4" cx="1161.2" cy="812.5" r="12.5"/>
		<path class="st0" d="M1479,880c10.7,0,16,5.3,16,16v83c0,10.7-5.3,16-16,16h-333c-10.7,0-16-5.3-16-16v-83c0-10.7,5.3-16,16-16
			H1479z"/>
		<path class="st4" d="M1479,880c10.7,0,16,5.3,16,16v83c0,10.7-5.3,16-16,16h-333c-10.7,0-16-5.3-16-16v-83c0-10.7,5.3-16,16-16
			H1479z"/>
		<path class="st0" d="M1474,885c10.7,0,16,5.3,16,16v73c0,10.7-5.3,16-16,16h-323c-10.7,0-16-5.3-16-16v-73c0-10.7,5.3-16,16-16
			H1474z"/>
		<path class="st4" d="M1474,885c10.7,0,16,5.3,16,16v73c0,10.7-5.3,16-16,16h-323c-10.7,0-16-5.3-16-16v-73c0-10.7,5.3-16,16-16
			H1474z"/>
		<text transform="matrix(1 0 0 1 1193 954)" class="st21 st3">running</text>
		<circle class="st4" cx="1161.2" cy="937.5" r="12.5"/>
	</g>
</g>
</svg>
