<?xml version="1.0" encoding="utf-8"?>
<!-- Generator: Adobe Illustrator 23.0.1, SVG Export Plug-In . SVG Version: 6.00 Build 0)  -->
<svg version="1.1" id="Layer_1" xmlns="http://www.w3.org/2000/svg" xmlns:xlink="http://www.w3.org/1999/xlink" x="0px" y="0px"
	 viewBox="0 0 800 800" style="enable-background:new 0 0 800 800;" xml:space="preserve">
<style type="text/css">
	.st0{fill:none;stroke:#000000;stroke-linecap:square;stroke-miterlimit:10;}
</style>
<g>
	<polygon class="st0" points="411.9,388.9 411.9,388.9 411.9,388.9 411.9,388.9 	"/>
</g>
<polygon class="st0" points="268.7,245.7 268.7,245.7 268.7,245.7 268.7,245.7 "/>
<polygon class="st0" points="555.2,532.2 555.2,532.2 555.2,532.2 555.2,532.2 "/>
<polygon class="st0" points="268.7,532.2 268.7,532.2 268.7,532.2 268.7,532.2 "/>
<polygon class="st0" points="555.2,245.7 555.2,245.7 555.2,245.7 555.2,245.7 "/>
<circle class="st0" cx="411.9" cy="388.9" r="9"/>
<circle class="st0" cx="268.7" cy="245.7" r="9"/>
<circle class="st0" cx="555.2" cy="532.2" r="9"/>
<circle class="st0" cx="268.7" cy="532.2" r="9"/>
<circle class="st0" cx="555.2" cy="245.7" r="9"/>
<circle class="st0" cx="411.9" cy="388.9" r="17.9"/>
<circle class="st0" cx="268.7" cy="245.7" r="17.9"/>
<circle class="st0" cx="555.2" cy="532.2" r="17.9"/>
<circle class="st0" cx="268.7" cy="532.2" r="17.9"/>
<circle class="st0" cx="555.2" cy="245.7" r="17.9"/>
<circle class="st0" cx="411.9" cy="388.9" r="26.9"/>
<circle class="st0" cx="268.7" cy="245.7" r="26.9"/>
<circle class="st0" cx="555.2" cy="532.2" r="26.9"/>
<circle class="st0" cx="268.7" cy="532.2" r="26.9"/>
<circle class="st0" cx="555.2" cy="245.7" r="26.9"/>
<circle class="st0" cx="411.9" cy="388.9" r="35.8"/>
<circle class="st0" cx="268.7" cy="245.7" r="35.8"/>
<circle class="st0" cx="555.2" cy="532.2" r="35.8"/>
<circle class="st0" cx="268.7" cy="532.2" r="35.8"/>
<circle class="st0" cx="555.2" cy="245.7" r="35.8"/>
<circle class="st0" cx="411.9" cy="388.9" r="44.8"/>
<circle class="st0" cx="268.7" cy="245.7" r="44.8"/>
<circle class="st0" cx="555.2" cy="532.2" r="44.8"/>
<circle class="st0" cx="268.7" cy="532.2" r="44.8"/>
<circle class="st0" cx="555.2" cy="245.7" r="44.8"/>
<circle class="st0" cx="411.9" cy="388.9" r="53.7"/>
<circle class="st0" cx="268.7" cy="245.7" r="53.7"/>
<circle class="st0" cx="555.2" cy="532.2" r="53.7"/>
<circle class="st0" cx="268.7" cy="532.2" r="53.7"/>
<circle class="st0" cx="555.2" cy="245.7" r="53.7"/>
<circle class="st0" cx="411.9" cy="388.9" r="62.7"/>
<circle class="st0" cx="268.7" cy="245.7" r="62.7"/>
<circle class="st0" cx="555.2" cy="532.2" r="62.7"/>
<circle class="st0" cx="268.7" cy="532.2" r="62.7"/>
<circle class="st0" cx="555.2" cy="245.7" r="62.7"/>
<circle class="st0" cx="411.9" cy="388.9" r="71.6"/>
<circle class="st0" cx="268.7" cy="245.7" r="71.6"/>
<circle class="st0" cx="555.2" cy="532.2" r="71.6"/>
<circle class="st0" cx="268.7" cy="532.2" r="71.6"/>
<circle class="st0" cx="555.2" cy="245.7" r="71.6"/>
<circle class="st0" cx="411.9" cy="388.9" r="80.6"/>
<circle class="st0" cx="268.7" cy="245.7" r="80.6"/>
<circle class="st0" cx="555.2" cy="532.2" r="80.6"/>
<circle class="st0" cx="268.7" cy="532.2" r="80.6"/>
<circle class="st0" cx="555.2" cy="245.7" r="80.6"/>
<circle class="st0" cx="411.9" cy="388.9" r="89.5"/>
<circle class="st0" cx="268.7" cy="245.7" r="89.5"/>
<circle class="st0" cx="555.2" cy="532.2" r="89.5"/>
<circle class="st0" cx="268.7" cy="532.2" r="89.5"/>
<circle class="st0" cx="555.2" cy="245.7" r="89.5"/>
<circle class="st0" cx="411.9" cy="388.9" r="98.5"/>
<circle class="st0" cx="268.7" cy="245.7" r="98.5"/>
<circle class="st0" cx="555.2" cy="532.2" r="98.5"/>
<circle class="st0" cx="268.7" cy="532.2" r="98.5"/>
<circle class="st0" cx="555.2" cy="245.7" r="98.5"/>
<circle class="st0" cx="411.9" cy="388.9" r="107.4"/>
<circle class="st0" cx="268.7" cy="245.7" r="107.4"/>
<circle class="st0" cx="555.2" cy="532.2" r="107.4"/>
<circle class="st0" cx="268.7" cy="532.2" r="107.4"/>
<circle class="st0" cx="555.2" cy="245.7" r="107.4"/>
<circle class="st0" cx="411.9" cy="388.9" r="116.4"/>
<circle class="st0" cx="268.7" cy="245.7" r="116.4"/>
<circle class="st0" cx="555.2" cy="532.2" r="116.4"/>
<circle class="st0" cx="268.7" cy="532.2" r="116.4"/>
<circle class="st0" cx="555.2" cy="245.7" r="116.4"/>
<circle class="st0" cx="411.9" cy="388.9" r="125.3"/>
<circle class="st0" cx="268.7" cy="245.7" r="125.3"/>
<circle class="st0" cx="555.2" cy="532.2" r="125.3"/>
<circle class="st0" cx="268.7" cy="532.2" r="125.3"/>
<circle class="st0" cx="555.2" cy="245.7" r="125.3"/>
<circle class="st0" cx="411.9" cy="388.9" r="134.3"/>
<circle class="st0" cx="268.7" cy="245.7" r="134.3"/>
<circle class="st0" cx="555.2" cy="532.2" r="134.3"/>
<circle class="st0" cx="268.7" cy="532.2" r="134.3"/>
<circle class="st0" cx="555.2" cy="245.7" r="134.3"/>
<circle class="st0" cx="411.9" cy="388.9" r="143.2"/>
<circle class="st0" cx="268.7" cy="245.7" r="143.2"/>
<circle class="st0" cx="555.2" cy="532.2" r="143.2"/>
<circle class="st0" cx="268.7" cy="532.2" r="143.2"/>
<circle class="st0" cx="555.2" cy="245.7" r="143.2"/>
<circle class="st0" cx="411.9" cy="388.9" r="152.2"/>
<circle class="st0" cx="268.7" cy="245.7" r="152.2"/>
<circle class="st0" cx="555.2" cy="532.2" r="152.2"/>
<circle class="st0" cx="268.7" cy="532.2" r="152.2"/>
<circle class="st0" cx="555.2" cy="245.7" r="152.2"/>
<circle class="st0" cx="411.9" cy="388.9" r="161.1"/>
<circle class="st0" cx="268.7" cy="245.7" r="161.1"/>
<circle class="st0" cx="555.2" cy="532.2" r="161.1"/>
<circle class="st0" cx="268.7" cy="532.2" r="161.1"/>
<circle class="st0" cx="555.2" cy="245.7" r="161.1"/>
<circle class="st0" cx="411.9" cy="388.9" r="170.1"/>
<circle class="st0" cx="268.7" cy="245.7" r="170.1"/>
<circle class="st0" cx="555.2" cy="532.2" r="170.1"/>
<circle class="st0" cx="268.7" cy="532.2" r="170.1"/>
<circle class="st0" cx="555.2" cy="245.7" r="170.1"/>
<circle class="st0" cx="411.9" cy="388.9" r="179.1"/>
<circle class="st0" cx="268.7" cy="245.7" r="179.1"/>
<circle class="st0" cx="555.2" cy="532.2" r="179.1"/>
<circle class="st0" cx="268.7" cy="532.2" r="179.1"/>
<circle class="st0" cx="555.2" cy="245.7" r="179.1"/>
<circle class="st0" cx="411.9" cy="388.9" r="188"/>
<circle class="st0" cx="268.7" cy="245.7" r="188"/>
<circle class="st0" cx="555.2" cy="532.2" r="188"/>
<circle class="st0" cx="268.7" cy="532.2" r="188"/>
<circle class="st0" cx="555.2" cy="245.7" r="188"/>
</svg>
