<?xml version="1.0" encoding="utf-8"?>
<!-- Generator: Adobe Illustrator 25.2.1, SVG Export Plug-In . SVG Version: 6.00 Build 0)  -->
<svg version="1.1" id="Layer_1" xmlns="http://www.w3.org/2000/svg" xmlns:xlink="http://www.w3.org/1999/xlink" x="0px" y="0px"
	 viewBox="0 0 1500 1000" style="enable-background:new 0 0 1500 1000;" xml:space="preserve">
<style type="text/css">
	.st0{fill:#FFFFFF;}
	.st1{fill:none;stroke:#000000;stroke-linecap:square;stroke-miterlimit:10;}
	.st2{font-family:'AvenirNextCondensed-Regular';}
	.st3{font-size:37.3075px;}
	.st4{font-family:'AmericanTypewriter-Semibold';}
	.st5{font-size:41.2796px;}
	.st6{enable-background:new    ;}
	.st7{font-family:'STIXGeneral-Regular';}
	.st8{font-size:26.7272px;}
	.st9{font-family:'PingFangSC-Regular-GBpc-EUC-H';}
	.st10{font-size:47.1235px;}
	.st11{font-family:'AppleSymbols';}
	.st12{font-size:35.9903px;}
	.st13{font-family:'OldeEnglish-Regular';}
	.st14{font-size:46.9156px;}
	.st15{font-family:'ArialMT';}
	.st16{font-size:31.4639px;}
	.st17{font-family:'IowanOldStyle-Titling';}
	.st18{font-size:43.2275px;}
	.st19{font-family:'MyriadPro-Regular';}
	.st20{font-size:37.6614px;}
	.st21{font-family:'Palatino-Roman';}
	.st22{font-size:30.7107px;}
	.st23{font-size:47.2952px;}
	.st24{font-family:'OpenSans-Regular';}
	.st25{font-size:31.8419px;}
	.st26{font-family:'HiraginoSans-W4-83pv-RKSJ-H';}
	.st27{font-size:29.9042px;}
	.st28{font-family:'InaiMathi';}
	.st29{font-size:33.8624px;}
	.st30{font-family:'Rockwell-Regular';}
	.st31{font-size:38.357px;}
	.st32{font-size:47.1943px;}
	.st33{font-size:38.7476px;}
	.st34{font-family:'EuphemiaUCAS';}
	.st35{font-size:24.1843px;}
	.st36{font-family:'SavoyeLetPlain';}
	.st37{font-size:41.3017px;}
	.st38{font-family:'Avenir-Book';}
	.st39{font-size:30.7666px;}
	.st40{font-family:'Optima-Regular';}
	.st41{font-size:38.257px;}
	.st42{font-size:39.0924px;}
	.st43{font-family:'GillSans';}
	.st44{font-size:26.188px;}
	.st45{font-family:'LucidaGrande';}
	.st46{font-size:45.9683px;}
	.st47{font-family:'OleoScript-Regular';}
	.st48{font-size:24.7272px;}
	.st49{font-family:'AvenirNext-Regular';}
	.st50{font-size:27.5675px;}
	.st51{font-size:31.7715px;}
	.st52{font-size:32.6913px;}
	.st53{font-family:'Charter-Roman';}
	.st54{font-size:36.5976px;}
	.st55{font-size:28.1141px;}
</style>
<g>
	<g>
		<path class="st0" d="M354,5c10.7,0,16,5.3,16,16v83c0,10.7-5.3,16-16,16H21c-10.7,0-16-5.3-16-16V21C5,10.3,10.3,5,21,5H354z"/>
	</g>
	<g>
		<path class="st1" d="M354,5c10.7,0,16,5.3,16,16v83c0,10.7-5.3,16-16,16H21c-10.7,0-16-5.3-16-16V21C5,10.3,10.3,5,21,5H354z"/>
		<path class="st0" d="M349,10c10.7,0,16,5.3,16,16v73c0,10.7-5.3,16-16,16H26c-10.7,0-16-5.3-16-16V26c0-10.7,5.3-16,16-16H349z"/>
		<path class="st1" d="M349,10c10.7,0,16,5.3,16,16v73c0,10.7-5.3,16-16,16H26c-10.7,0-16-5.3-16-16V26c0-10.7,5.3-16,16-16H349z"/>
		<text transform="matrix(1 0 0 1 68 82)" class="st2 st3">capitalism</text>
	</g>
	<g>
		<circle class="st0" cx="36.2" cy="62.5" r="12.5"/>
		<circle class="st1" cx="36.2" cy="62.5" r="12.5"/>
		<path class="st0" d="M354,130c10.7,0,16,5.3,16,16v83c0,10.7-5.3,16-16,16H21c-10.7,0-16-5.3-16-16v-83c0-10.7,5.3-16,16-16H354z"
			/>
		<path class="st1" d="M354,130c10.7,0,16,5.3,16,16v83c0,10.7-5.3,16-16,16H21c-10.7,0-16-5.3-16-16v-83c0-10.7,5.3-16,16-16H354z"
			/>
		<path class="st0" d="M349,135c10.7,0,16,5.3,16,16v73c0,10.7-5.3,16-16,16H26c-10.7,0-16-5.3-16-16v-73c0-10.7,5.3-16,16-16H349z"
			/>
		<path class="st1" d="M349,135c10.7,0,16,5.3,16,16v73c0,10.7-5.3,16-16,16H26c-10.7,0-16-5.3-16-16v-73c0-10.7,5.3-16,16-16H349z"
			/>
	</g>
	<g>
		<text transform="matrix(1 0 0 1 68 207)" class="st4 st5">money</text>
		<circle class="st0" cx="36.2" cy="187.5" r="12.5"/>
		<circle class="st1" cx="36.2" cy="187.5" r="12.5"/>
		<path class="st0" d="M354,255c10.7,0,16,5.3,16,16v83c0,10.7-5.3,16-16,16H21c-10.7,0-16-5.3-16-16v-83c0-10.7,5.3-16,16-16H354z"
			/>
		<path class="st1" d="M354,255c10.7,0,16,5.3,16,16v83c0,10.7-5.3,16-16,16H21c-10.7,0-16-5.3-16-16v-83c0-10.7,5.3-16,16-16H354z"
			/>
		<path class="st0" d="M349,260c10.7,0,16,5.3,16,16v73c0,10.7-5.3,16-16,16H26c-10.7,0-16-5.3-16-16v-73c0-10.7,5.3-16,16-16H349z"
			/>
		<path class="st1" d="M349,260c10.7,0,16,5.3,16,16v73c0,10.7-5.3,16-16,16H26c-10.7,0-16-5.3-16-16v-73c0-10.7,5.3-16,16-16H349z"
			/>
		<g>
			<g class="st6">
				<path d="M76.9,336.4c-2.4,0-4.2-0.6-5.4-1.7c-1.2-1.2-1.8-2.8-1.8-4.9c0-1.4,0.4-2.7,1.2-3.8c0.8-1.1,1.9-1.9,3.4-2.5
					c1.5-0.6,3.3-0.9,5.4-0.9h4.1v-2.2c0-1.4-0.4-2.4-1.2-3.2c-0.8-0.8-2-1.1-3.5-1.1c-1,0-1.8,0.1-2.5,0.3c-0.7,0.2-1.3,0.5-1.9,1
					l-0.4,3.2h-3.2v-5.2c1-0.8,2.2-1.5,3.6-1.9c1.4-0.4,2.9-0.6,4.5-0.6c2.8,0,4.9,0.7,6.5,2c1.6,1.3,2.4,3.2,2.4,5.7v10.9
					c0,0.3,0,0.6,0,0.9c0,0.3,0,0.6,0.1,0.8l2.2,0.2v2.6h-5.9c-0.1-0.6-0.2-1.2-0.3-1.7c-0.1-0.5-0.1-1-0.1-1.5
					c-0.8,1-1.8,1.9-3,2.6C79.5,336.1,78.3,336.4,76.9,336.4z M77.5,333c1.4,0,2.6-0.3,3.8-1c1.1-0.7,1.9-1.4,2.4-2.4v-4.1h-4.2
					c-1.9,0-3.3,0.5-4.3,1.4s-1.4,1.9-1.4,3c0,1,0.3,1.8,0.9,2.3C75.3,332.7,76.3,333,77.5,333z"/>
				<path d="M102.3,336.4c-1.8,0-3.4-0.5-4.8-1.4c-1.3-0.9-2.3-2.2-3-3.8c-0.7-1.6-1.1-3.5-1.1-5.7v-0.4c0-2.4,0.4-4.6,1.1-6.4
					s1.7-3.3,3-4.3c1.3-1,2.9-1.5,4.8-1.5c1.3,0,2.5,0.2,3.6,0.7c1,0.5,1.9,1.2,2.6,2.2v-9.3l-3.4-0.6v-2.7h3.4h4.1v29.5l3.4,0.6
					v2.6h-7l-0.3-2.7c-0.7,1-1.6,1.8-2.7,2.4C104.9,336.2,103.7,336.4,102.3,336.4z M103.3,333.1c1.2,0,2.3-0.3,3.1-0.8
					c0.8-0.6,1.5-1.4,2.1-2.4v-10.5c-0.5-1-1.2-1.7-2.1-2.3c-0.9-0.6-1.9-0.8-3.1-0.8c-1.3,0-2.4,0.4-3.3,1.1
					c-0.9,0.7-1.5,1.8-1.9,3.1c-0.4,1.3-0.6,2.9-0.6,4.6v0.4c0,2.3,0.5,4.1,1.4,5.5C99.9,332.4,101.3,333.1,103.3,333.1z"/>
				<path d="M127.8,336.4c-1.8,0-3.4-0.5-4.8-1.4c-1.3-0.9-2.3-2.2-3-3.8c-0.7-1.6-1.1-3.5-1.1-5.7v-0.4c0-2.4,0.4-4.6,1.1-6.4
					s1.7-3.3,3-4.3c1.3-1,2.9-1.5,4.8-1.5c1.3,0,2.5,0.2,3.6,0.7c1,0.5,1.9,1.2,2.6,2.2v-9.3l-3.4-0.6v-2.7h3.4h4.1v29.5l3.4,0.6
					v2.6h-7l-0.3-2.7c-0.7,1-1.6,1.8-2.7,2.4C130.5,336.2,129.3,336.4,127.8,336.4z M128.9,333.1c1.2,0,2.3-0.3,3.1-0.8
					c0.8-0.6,1.5-1.4,2.1-2.4v-10.5c-0.5-1-1.2-1.7-2.1-2.3c-0.9-0.6-1.9-0.8-3.1-0.8c-1.3,0-2.4,0.4-3.3,1.1
					c-0.9,0.7-1.5,1.8-1.9,3.1c-0.4,1.3-0.6,2.9-0.6,4.6v0.4c0,2.3,0.5,4.1,1.4,5.5C125.5,332.4,126.9,333.1,128.9,333.1z"/>
				<path d="M144.3,336v-2.6l3.4-0.6v-16.2l-3.4-0.6v-2.7h7.6v19.5l3.4,0.6v2.6H144.3z M147.6,307.7v-4.4h4.3v4.4H147.6z"/>
				<path d="M168.5,336.4c-2.1,0-3.9-0.5-5.4-1.4c-1.5-1-2.7-2.3-3.5-4c-0.8-1.7-1.3-3.7-1.3-5.9v-0.9c0-2.2,0.4-4.1,1.2-5.8
					s2-3.1,3.5-4.1c1.5-1,3.3-1.5,5.5-1.5c1.8,0,3.4,0.3,4.8,0.9c1.4,0.6,2.5,1.4,3.5,2.5l0.1,5.5h-3.2l-0.7-4
					c-0.5-0.5-1.1-0.9-1.8-1.2c-0.7-0.3-1.6-0.4-2.5-0.4c-1.2,0-2.3,0.4-3.2,1.1c-0.9,0.7-1.7,1.7-2.2,2.9c-0.5,1.2-0.8,2.6-0.8,4.1
					v0.9c0,1.7,0.2,3.1,0.7,4.3c0.5,1.2,1.2,2.2,2.1,2.8c0.9,0.7,2,1,3.2,1c1.4,0,2.6-0.4,3.5-1.2c0.9-0.8,1.5-1.8,1.7-3.2h3.7
					l0,0.1c-0.1,1.3-0.5,2.5-1.2,3.7c-0.7,1.1-1.7,2-3,2.7C171.9,336.1,170.3,336.4,168.5,336.4z"/>
				<path d="M188.6,336.4c-1.7,0-3-0.5-4-1.5c-1-1-1.5-2.6-1.5-4.7v-13.8h-3.6v-3.1h3.6v-5.5h4.1v5.5h4.9v3.1h-4.9v13.8
					c0,1.1,0.2,1.9,0.7,2.4c0.4,0.5,1,0.8,1.7,0.8c0.5,0,1,0,1.6-0.1c0.6-0.1,1.1-0.2,1.4-0.2l0.6,2.7c-0.6,0.2-1.3,0.3-2.2,0.5
					C190.2,336.3,189.4,336.4,188.6,336.4z"/>
				<path d="M195.8,336v-2.6l3.4-0.6v-16.2l-3.4-0.6v-2.7h7.6v19.5l3.4,0.6v2.6H195.8z M199,307.7v-4.4h4.3v4.4H199z"/>
				<path d="M219.9,336.4c-2.1,0-3.9-0.5-5.4-1.5c-1.5-1-2.7-2.4-3.5-4.1c-0.8-1.7-1.2-3.7-1.2-6v-0.5c0-2.2,0.4-4.2,1.2-6
					c0.8-1.7,2-3.1,3.5-4.1c1.5-1,3.3-1.5,5.4-1.5c2.1,0,3.9,0.5,5.4,1.5c1.5,1,2.7,2.4,3.5,4.1c0.8,1.7,1.2,3.7,1.2,6v0.5
					c0,2.3-0.4,4.3-1.2,6c-0.8,1.7-2,3.1-3.5,4.1C223.8,336,222,336.4,219.9,336.4z M219.9,333.2c1.3,0,2.4-0.4,3.3-1.1
					c0.9-0.7,1.6-1.7,2-3c0.5-1.3,0.7-2.7,0.7-4.3v-0.5c0-1.6-0.2-3-0.7-4.3c-0.5-1.3-1.1-2.2-2-3c-0.9-0.7-2-1.1-3.3-1.1
					c-1.3,0-2.4,0.4-3.3,1.1c-0.9,0.7-1.6,1.7-2,3c-0.4,1.3-0.7,2.7-0.7,4.3v0.5c0,1.6,0.2,3,0.7,4.3c0.4,1.3,1.1,2.2,2,3
					C217.4,332.8,218.6,333.2,219.9,333.2z"/>
				<path d="M233.2,336v-2.6l3.4-0.6v-16.2l-3.4-0.6v-2.7h7.1l0.3,3.4c0.8-1.2,1.7-2.1,2.8-2.8c1.1-0.7,2.4-1,3.9-1
					c2.5,0,4.3,0.7,5.7,2.2c1.3,1.4,2,3.7,2,6.6v11.1l3.4,0.6v2.6h-11v-2.6l3.4-0.6v-11c0-2-0.4-3.4-1.2-4.3c-0.8-0.8-2-1.3-3.6-1.3
					c-1.2,0-2.2,0.3-3.2,0.9c-0.9,0.6-1.6,1.4-2.2,2.4v13.3l3.4,0.6v2.6H233.2z"/>
			</g>
		</g>
	</g>
	<g>
		<circle class="st0" cx="36.2" cy="312.5" r="12.5"/>
		<circle class="st1" cx="36.2" cy="312.5" r="12.5"/>
		<path class="st0" d="M354,380c10.7,0,16,5.3,16,16v83c0,10.7-5.3,16-16,16H21c-10.7,0-16-5.3-16-16v-83c0-10.7,5.3-16,16-16H354z"
			/>
		<path class="st1" d="M354,380c10.7,0,16,5.3,16,16v83c0,10.7-5.3,16-16,16H21c-10.7,0-16-5.3-16-16v-83c0-10.7,5.3-16,16-16H354z"
			/>
		<path class="st0" d="M349,385c10.7,0,16,5.3,16,16v73c0,10.7-5.3,16-16,16H26c-10.7,0-16-5.3-16-16v-73c0-10.7,5.3-16,16-16H349z"
			/>
		<path class="st1" d="M349,385c10.7,0,16,5.3,16,16v73c0,10.7-5.3,16-16,16H26c-10.7,0-16-5.3-16-16v-73c0-10.7,5.3-16,16-16H349z"
			/>
	</g>
	<g>
		<g>
			<g class="st6">
				<path d="M76.4,459.4c-2.2,0-3.9-0.5-5.1-1.6c-1.2-1.1-1.7-2.6-1.7-4.6c0-1.4,0.4-2.5,1.1-3.5c0.7-1,1.8-1.8,3.2-2.4
					c1.4-0.6,3.1-0.8,5.1-0.8h3.8v-2.1c0-1.3-0.4-2.3-1.2-3c-0.8-0.7-1.9-1.1-3.3-1.1c-0.9,0-1.7,0.1-2.3,0.3
					c-0.7,0.2-1.3,0.5-1.8,0.9l-0.4,3h-3v-4.9c1-0.8,2.1-1.4,3.4-1.8c1.3-0.4,2.7-0.6,4.2-0.6c2.6,0,4.6,0.6,6.1,1.9
					c1.5,1.2,2.2,3,2.2,5.3v10.3c0,0.3,0,0.5,0,0.8c0,0.3,0,0.5,0,0.8l2.1,0.2v2.5h-5.6c-0.1-0.6-0.2-1.1-0.3-1.6
					c-0.1-0.5-0.1-0.9-0.1-1.4c-0.8,1-1.7,1.8-2.8,2.4C78.9,459.1,77.7,459.4,76.4,459.4z M77,456.2c1.3,0,2.5-0.3,3.5-0.9
					c1.1-0.6,1.8-1.4,2.3-2.2v-3.9h-4c-1.8,0-3.1,0.4-4,1.3c-0.9,0.9-1.3,1.8-1.3,2.9c0,0.9,0.3,1.7,0.9,2.1
					C74.9,455.9,75.8,456.2,77,456.2z"/>
				<path d="M91.6,459v-2.5l3.2-0.6v-24.7l-3.2-0.6v-2.5h7.1V456l3.2,0.6v2.5H91.6z"/>
				<path d="M114.4,459.4c-1.9,0-3.6-0.5-5.1-1.4s-2.5-2.2-3.3-3.8c-0.8-1.6-1.2-3.5-1.2-5.6v-0.8c0-2,0.4-3.8,1.1-5.5
					c0.8-1.6,1.9-2.9,3.3-3.8s3.1-1.4,5.1-1.4c1.7,0,3.2,0.3,4.5,0.8c1.3,0.6,2.4,1.3,3.3,2.3l0.1,5.1h-3l-0.7-3.7
					c-0.4-0.5-1-0.8-1.7-1.1c-0.7-0.3-1.5-0.4-2.4-0.4c-1.2,0-2.2,0.3-3.1,1c-0.9,0.7-1.6,1.6-2,2.7s-0.7,2.4-0.7,3.8v0.8
					c0,1.6,0.2,2.9,0.7,4.1s1.1,2,2,2.7c0.9,0.6,1.9,0.9,3,0.9c1.3,0,2.4-0.4,3.3-1.1s1.4-1.7,1.6-3h3.5l0,0.1
					c-0.1,1.2-0.4,2.4-1.1,3.4c-0.7,1.1-1.6,1.9-2.8,2.6S116.2,459.4,114.4,459.4z"/>
				<path d="M135.5,459.4c-2,0-3.7-0.5-5.1-1.4c-1.4-0.9-2.5-2.2-3.3-3.9s-1.2-3.5-1.2-5.6v-0.4c0-2.1,0.4-4,1.2-5.6
					c0.8-1.6,1.9-2.9,3.3-3.9c1.4-0.9,3.1-1.4,5.1-1.4c2,0,3.7,0.5,5.1,1.4c1.4,0.9,2.5,2.2,3.3,3.9s1.2,3.5,1.2,5.6v0.4
					c0,2.1-0.4,4-1.2,5.6s-1.9,2.9-3.3,3.8C139.1,459,137.5,459.4,135.5,459.4z M135.5,456.4c1.2,0,2.3-0.3,3.1-1
					c0.8-0.7,1.5-1.6,1.9-2.8c0.4-1.2,0.6-2.5,0.6-4v-0.4c0-1.5-0.2-2.8-0.6-4c-0.4-1.2-1.1-2.1-1.9-2.8s-1.9-1-3.1-1
					c-1.2,0-2.3,0.3-3.1,1c-0.8,0.7-1.5,1.6-1.9,2.8c-0.4,1.2-0.6,2.5-0.6,4v0.4c0,1.5,0.2,2.8,0.6,4c0.4,1.2,1.1,2.1,1.9,2.8
					C133.2,456,134.2,456.4,135.5,456.4z"/>
				<path d="M147.5,459v-2.5l3.2-0.6v-24.7l-3.2-0.6v-2.5h7.1v12.3c0.7-1,1.6-1.8,2.7-2.4c1.1-0.6,2.3-0.8,3.6-0.8
					c2.3,0,4.1,0.7,5.3,2.1c1.3,1.4,1.9,3.5,1.9,6.3V456l3.2,0.6v2.5H161v-2.5l3.2-0.6v-10.4c0-1.8-0.4-3.1-1.1-3.9
					c-0.8-0.8-1.9-1.3-3.4-1.3c-1.1,0-2,0.3-2.9,0.8c-0.9,0.5-1.6,1.2-2.2,2.1V456l3.2,0.6v2.5H147.5z"/>
				<path d="M183.7,459.4c-2,0-3.7-0.5-5.1-1.4c-1.4-0.9-2.5-2.2-3.3-3.9s-1.2-3.5-1.2-5.6v-0.4c0-2.1,0.4-4,1.2-5.6
					c0.8-1.6,1.9-2.9,3.3-3.9c1.4-0.9,3.1-1.4,5.1-1.4c2,0,3.7,0.5,5.1,1.4c1.4,0.9,2.5,2.2,3.3,3.9s1.2,3.5,1.2,5.6v0.4
					c0,2.1-0.4,4-1.2,5.6s-1.9,2.9-3.3,3.8C187.4,459,185.7,459.4,183.7,459.4z M183.7,456.4c1.2,0,2.3-0.3,3.1-1
					c0.8-0.7,1.5-1.6,1.9-2.8c0.4-1.2,0.6-2.5,0.6-4v-0.4c0-1.5-0.2-2.8-0.6-4c-0.4-1.2-1.1-2.1-1.9-2.8s-1.9-1-3.1-1
					c-1.2,0-2.3,0.3-3.1,1c-0.8,0.7-1.5,1.6-1.9,2.8c-0.4,1.2-0.6,2.5-0.6,4v0.4c0,1.5,0.2,2.8,0.6,4c0.4,1.2,1.1,2.1,1.9,2.8
					C181.4,456,182.4,456.4,183.7,456.4z"/>
				<path d="M196,459v-2.5l3.2-0.6v-24.7l-3.2-0.6v-2.5h7.1V456l3.2,0.6v2.5H196z"/>
			</g>
		</g>
		<circle class="st0" cx="36.2" cy="437.5" r="12.5"/>
		<circle class="st1" cx="36.2" cy="437.5" r="12.5"/>
		<path class="st0" d="M354,505c10.7,0,16,5.3,16,16v83c0,10.7-5.3,16-16,16H21c-10.7,0-16-5.3-16-16v-83c0-10.7,5.3-16,16-16H354z"
			/>
		<path class="st1" d="M354,505c10.7,0,16,5.3,16,16v83c0,10.7-5.3,16-16,16H21c-10.7,0-16-5.3-16-16v-83c0-10.7,5.3-16,16-16H354z"
			/>
		<path class="st0" d="M349,510c10.7,0,16,5.3,16,16v73c0,10.7-5.3,16-16,16H26c-10.7,0-16-5.3-16-16v-73c0-10.7,5.3-16,16-16H349z"
			/>
		<path class="st1" d="M349,510c10.7,0,16,5.3,16,16v73c0,10.7-5.3,16-16,16H26c-10.7,0-16-5.3-16-16v-73c0-10.7,5.3-16,16-16H349z"
			/>
		<text transform="matrix(1 0 0 1 68 577)" class="st7 st8">friends</text>
	</g>
	<g>
		<circle class="st0" cx="36.2" cy="562.5" r="12.5"/>
		<circle class="st1" cx="36.2" cy="562.5" r="12.5"/>
		<path class="st0" d="M354,630c10.7,0,16,5.3,16,16v83c0,10.7-5.3,16-16,16H21c-10.7,0-16-5.3-16-16v-83c0-10.7,5.3-16,16-16H354z"
			/>
		<path class="st1" d="M354,630c10.7,0,16,5.3,16,16v83c0,10.7-5.3,16-16,16H21c-10.7,0-16-5.3-16-16v-83c0-10.7,5.3-16,16-16H354z"
			/>
		<path class="st0" d="M349,635c10.7,0,16,5.3,16,16v73c0,10.7-5.3,16-16,16H26c-10.7,0-16-5.3-16-16v-73c0-10.7,5.3-16,16-16H349z"
			/>
		<path class="st1" d="M349,635c10.7,0,16,5.3,16,16v73c0,10.7-5.3,16-16,16H26c-10.7,0-16-5.3-16-16v-73c0-10.7,5.3-16,16-16H349z"
			/>
	</g>
	<g>
		<text transform="matrix(1 0 0 1 68 713)" class="st9 st10">making art</text>
		<circle class="st0" cx="36.2" cy="687.5" r="12.5"/>
		<circle class="st1" cx="36.2" cy="687.5" r="12.5"/>
		<path class="st0" d="M354,755c10.7,0,16,5.3,16,16v83c0,10.7-5.3,16-16,16H21c-10.7,0-16-5.3-16-16v-83c0-10.7,5.3-16,16-16H354z"
			/>
		<path class="st1" d="M354,755c10.7,0,16,5.3,16,16v83c0,10.7-5.3,16-16,16H21c-10.7,0-16-5.3-16-16v-83c0-10.7,5.3-16,16-16H354z"
			/>
		<path class="st0" d="M349,760c10.7,0,16,5.3,16,16v73c0,10.7-5.3,16-16,16H26c-10.7,0-16-5.3-16-16v-73c0-10.7,5.3-16,16-16H349z"
			/>
		<path class="st1" d="M349,760c10.7,0,16,5.3,16,16v73c0,10.7-5.3,16-16,16H26c-10.7,0-16-5.3-16-16v-73c0-10.7,5.3-16,16-16H349z"
			/>
		<text transform="matrix(1 0 0 1 68 825)" class="st11 st12">looking at art</text>
	</g>
	<g>
		<circle class="st0" cx="36.2" cy="812.5" r="12.5"/>
		<circle class="st1" cx="36.2" cy="812.5" r="12.5"/>
		<path class="st0" d="M354,880c10.7,0,16,5.3,16,16v83c0,10.7-5.3,16-16,16H21c-10.7,0-16-5.3-16-16v-83c0-10.7,5.3-16,16-16H354z"
			/>
		<path class="st1" d="M354,880c10.7,0,16,5.3,16,16v83c0,10.7-5.3,16-16,16H21c-10.7,0-16-5.3-16-16v-83c0-10.7,5.3-16,16-16H354z"
			/>
		<path class="st0" d="M349,885c10.7,0,16,5.3,16,16v73c0,10.7-5.3,16-16,16H26c-10.7,0-16-5.3-16-16v-73c0-10.7,5.3-16,16-16H349z"
			/>
		<path class="st1" d="M349,885c10.7,0,16,5.3,16,16v73c0,10.7-5.3,16-16,16H26c-10.7,0-16-5.3-16-16v-73c0-10.7,5.3-16,16-16H349z"
			/>
	</g>
	<g>
		<text transform="matrix(1 0 0 1 68 954)" class="st13 st14">understanding</text>
		<circle class="st0" cx="36.2" cy="937.5" r="12.5"/>
		<circle class="st1" cx="36.2" cy="937.5" r="12.5"/>
		<path class="st0" d="M729,5c10.7,0,16,5.3,16,16v83c0,10.7-5.3,16-16,16H396c-10.7,0-16-5.3-16-16V21c0-10.7,5.3-16,16-16H729z"/>
		<path class="st1" d="M729,5c10.7,0,16,5.3,16,16v83c0,10.7-5.3,16-16,16H396c-10.7,0-16-5.3-16-16V21c0-10.7,5.3-16,16-16H729z"/>
		<path class="st0" d="M724,10c10.7,0,16,5.3,16,16v73c0,10.7-5.3,16-16,16H401c-10.7,0-16-5.3-16-16V26c0-10.7,5.3-16,16-16H724z"
			/>
		<path class="st1" d="M724,10c10.7,0,16,5.3,16,16v73c0,10.7-5.3,16-16,16H401c-10.7,0-16-5.3-16-16V26c0-10.7,5.3-16,16-16H724z"
			/>
		<text transform="matrix(1 0 0 1 443 77)" class="st15 st16">the usa</text>
	</g>
	<g>
		<circle class="st0" cx="411.2" cy="62.5" r="12.5"/>
		<circle class="st1" cx="411.2" cy="62.5" r="12.5"/>
		<path class="st0" d="M729,130c10.7,0,16,5.3,16,16v83c0,10.7-5.3,16-16,16H396c-10.7,0-16-5.3-16-16v-83c0-10.7,5.3-16,16-16H729z
			"/>
		<path class="st1" d="M729,130c10.7,0,16,5.3,16,16v83c0,10.7-5.3,16-16,16H396c-10.7,0-16-5.3-16-16v-83c0-10.7,5.3-16,16-16H729z
			"/>
		<path class="st0" d="M724,135c10.7,0,16,5.3,16,16v73c0,10.7-5.3,16-16,16H401c-10.7,0-16-5.3-16-16v-73c0-10.7,5.3-16,16-16H724z
			"/>
		<path class="st1" d="M724,135c10.7,0,16,5.3,16,16v73c0,10.7-5.3,16-16,16H401c-10.7,0-16-5.3-16-16v-73c0-10.7,5.3-16,16-16H724z
			"/>
	</g>
	<g>
		<text transform="matrix(1 0 0 1 443 210)" class="st6"><tspan x="0" y="0" class="st17 st18">P</tspan><tspan x="25.1" y="0" class="st19 st18">utin</tspan></text>
		<circle class="st0" cx="411.2" cy="187.5" r="12.5"/>
		<circle class="st1" cx="411.2" cy="187.5" r="12.5"/>
		<path class="st0" d="M729,255c10.7,0,16,5.3,16,16v83c0,10.7-5.3,16-16,16H396c-10.7,0-16-5.3-16-16v-83c0-10.7,5.3-16,16-16H729z
			"/>
		<path class="st1" d="M729,255c10.7,0,16,5.3,16,16v83c0,10.7-5.3,16-16,16H396c-10.7,0-16-5.3-16-16v-83c0-10.7,5.3-16,16-16H729z
			"/>
		<path class="st0" d="M724,260c10.7,0,16,5.3,16,16v73c0,10.7-5.3,16-16,16H401c-10.7,0-16-5.3-16-16v-73c0-10.7,5.3-16,16-16H724z
			"/>
		<path class="st1" d="M724,260c10.7,0,16,5.3,16,16v73c0,10.7-5.3,16-16,16H401c-10.7,0-16-5.3-16-16v-73c0-10.7,5.3-16,16-16H724z
			"/>
		<text transform="matrix(1 0 0 1 443 334)" class="st19 st20">gluten</text>
	</g>
	<g>
		<circle class="st0" cx="411.2" cy="312.5" r="12.5"/>
		<circle class="st1" cx="411.2" cy="312.5" r="12.5"/>
		<path class="st0" d="M729,380c10.7,0,16,5.3,16,16v83c0,10.7-5.3,16-16,16H396c-10.7,0-16-5.3-16-16v-83c0-10.7,5.3-16,16-16H729z
			"/>
		<path class="st1" d="M729,380c10.7,0,16,5.3,16,16v83c0,10.7-5.3,16-16,16H396c-10.7,0-16-5.3-16-16v-83c0-10.7,5.3-16,16-16H729z
			"/>
		<path class="st0" d="M724,385c10.7,0,16,5.3,16,16v73c0,10.7-5.3,16-16,16H401c-10.7,0-16-5.3-16-16v-73c0-10.7,5.3-16,16-16H724z
			"/>
		<path class="st1" d="M724,385c10.7,0,16,5.3,16,16v73c0,10.7-5.3,16-16,16H401c-10.7,0-16-5.3-16-16v-73c0-10.7,5.3-16,16-16H724z
			"/>
	</g>
	<g>
		<text transform="matrix(1 0 0 1 443 451)" class="st21 st22">dairy</text>
		<circle class="st0" cx="411.2" cy="437.5" r="12.5"/>
		<circle class="st1" cx="411.2" cy="437.5" r="12.5"/>
		<path class="st0" d="M729,505c10.7,0,16,5.3,16,16v83c0,10.7-5.3,16-16,16H396c-10.7,0-16-5.3-16-16v-83c0-10.7,5.3-16,16-16H729z
			"/>
		<path class="st1" d="M729,505c10.7,0,16,5.3,16,16v83c0,10.7-5.3,16-16,16H396c-10.7,0-16-5.3-16-16v-83c0-10.7,5.3-16,16-16H729z
			"/>
		<path class="st0" d="M724,510c10.7,0,16,5.3,16,16v73c0,10.7-5.3,16-16,16H401c-10.7,0-16-5.3-16-16v-73c0-10.7,5.3-16,16-16H724z
			"/>
		<path class="st1" d="M724,510c10.7,0,16,5.3,16,16v73c0,10.7-5.3,16-16,16H401c-10.7,0-16-5.3-16-16v-73c0-10.7,5.3-16,16-16H724z
			"/>
		<text transform="matrix(1 0 0 1 443 587)" class="st2 st23">overeating</text>
	</g>
	<g>
		<circle class="st0" cx="411.2" cy="562.5" r="12.5"/>
		<circle class="st1" cx="411.2" cy="562.5" r="12.5"/>
		<path class="st0" d="M729,630c10.7,0,16,5.3,16,16v83c0,10.7-5.3,16-16,16H396c-10.7,0-16-5.3-16-16v-83c0-10.7,5.3-16,16-16H729z
			"/>
		<path class="st1" d="M729,630c10.7,0,16,5.3,16,16v83c0,10.7-5.3,16-16,16H396c-10.7,0-16-5.3-16-16v-83c0-10.7,5.3-16,16-16H729z
			"/>
		<path class="st0" d="M724,635c10.7,0,16,5.3,16,16v73c0,10.7-5.3,16-16,16H401c-10.7,0-16-5.3-16-16v-73c0-10.7,5.3-16,16-16H724z
			"/>
		<path class="st1" d="M724,635c10.7,0,16,5.3,16,16v73c0,10.7-5.3,16-16,16H401c-10.7,0-16-5.3-16-16v-73c0-10.7,5.3-16,16-16H724z
			"/>
	</g>
	<g>
		<text transform="matrix(1 0 0 1 443 705)" class="st24 st25">asbestos</text>
		<circle class="st0" cx="411.2" cy="687.5" r="12.5"/>
		<circle class="st1" cx="411.2" cy="687.5" r="12.5"/>
		<path class="st0" d="M729,755c10.7,0,16,5.3,16,16v83c0,10.7-5.3,16-16,16H396c-10.7,0-16-5.3-16-16v-83c0-10.7,5.3-16,16-16H729z
			"/>
		<path class="st1" d="M729,755c10.7,0,16,5.3,16,16v83c0,10.7-5.3,16-16,16H396c-10.7,0-16-5.3-16-16v-83c0-10.7,5.3-16,16-16H729z
			"/>
		<path class="st0" d="M724,760c10.7,0,16,5.3,16,16v73c0,10.7-5.3,16-16,16H401c-10.7,0-16-5.3-16-16v-73c0-10.7,5.3-16,16-16H724z
			"/>
		<path class="st1" d="M724,760c10.7,0,16,5.3,16,16v73c0,10.7-5.3,16-16,16H401c-10.7,0-16-5.3-16-16v-73c0-10.7,5.3-16,16-16H724z
			"/>
		<text transform="matrix(1 0 0 1 443 826)" class="st26 st27">alligators</text>
	</g>
	<g>
		<circle class="st0" cx="411.2" cy="812.5" r="12.5"/>
		<circle class="st1" cx="411.2" cy="812.5" r="12.5"/>
		<path class="st0" d="M729,880c10.7,0,16,5.3,16,16v83c0,10.7-5.3,16-16,16H396c-10.7,0-16-5.3-16-16v-83c0-10.7,5.3-16,16-16H729z
			"/>
		<path class="st1" d="M729,880c10.7,0,16,5.3,16,16v83c0,10.7-5.3,16-16,16H396c-10.7,0-16-5.3-16-16v-83c0-10.7,5.3-16,16-16H729z
			"/>
		<path class="st0" d="M724,885c10.7,0,16,5.3,16,16v73c0,10.7-5.3,16-16,16H401c-10.7,0-16-5.3-16-16v-73c0-10.7,5.3-16,16-16H724z
			"/>
		<path class="st1" d="M724,885c10.7,0,16,5.3,16,16v73c0,10.7-5.3,16-16,16H401c-10.7,0-16-5.3-16-16v-73c0-10.7,5.3-16,16-16H724z
			"/>
	</g>
	<g>
		<text transform="matrix(1 0 0 1 443 952)" class="st28 st29">string theory</text>
		<circle class="st0" cx="411.2" cy="937.5" r="12.5"/>
		<circle class="st1" cx="411.2" cy="937.5" r="12.5"/>
		<path class="st0" d="M1104,5c10.7,0,16,5.3,16,16v83c0,10.7-5.3,16-16,16H771c-10.7,0-16-5.3-16-16V21c0-10.7,5.3-16,16-16H1104z"
			/>
		<path class="st1" d="M1104,5c10.7,0,16,5.3,16,16v83c0,10.7-5.3,16-16,16H771c-10.7,0-16-5.3-16-16V21c0-10.7,5.3-16,16-16H1104z"
			/>
		<path class="st0" d="M1099,10c10.7,0,16,5.3,16,16v73c0,10.7-5.3,16-16,16H776c-10.7,0-16-5.3-16-16V26c0-10.7,5.3-16,16-16H1099z
			"/>
		<path class="st1" d="M1099,10c10.7,0,16,5.3,16,16v73c0,10.7-5.3,16-16,16H776c-10.7,0-16-5.3-16-16V26c0-10.7,5.3-16,16-16H1099z
			"/>
		<text transform="matrix(1 0 0 1 818 76)" class="st30 st31">physics</text>
	</g>
	<g>
		<circle class="st0" cx="786.2" cy="62.5" r="12.5"/>
		<circle class="st1" cx="786.2" cy="62.5" r="12.5"/>
		<path class="st0" d="M1104,130c10.7,0,16,5.3,16,16v83c0,10.7-5.3,16-16,16H771c-10.7,0-16-5.3-16-16v-83c0-10.7,5.3-16,16-16
			H1104z"/>
		<path class="st1" d="M1104,130c10.7,0,16,5.3,16,16v83c0,10.7-5.3,16-16,16H771c-10.7,0-16-5.3-16-16v-83c0-10.7,5.3-16,16-16
			H1104z"/>
		<path class="st0" d="M1099,135c10.7,0,16,5.3,16,16v73c0,10.7-5.3,16-16,16H776c-10.7,0-16-5.3-16-16v-73c0-10.7,5.3-16,16-16
			H1099z"/>
		<path class="st1" d="M1099,135c10.7,0,16,5.3,16,16v73c0,10.7-5.3,16-16,16H776c-10.7,0-16-5.3-16-16v-73c0-10.7,5.3-16,16-16
			H1099z"/>
	</g>
	<g>
		<text transform="matrix(1 0 0 1 818 213)" class="st24 st32">bathrooms</text>
		<circle class="st0" cx="786.2" cy="187.5" r="12.5"/>
		<circle class="st1" cx="786.2" cy="187.5" r="12.5"/>
		<path class="st0" d="M1104,255c10.7,0,16,5.3,16,16v83c0,10.7-5.3,16-16,16H771c-10.7,0-16-5.3-16-16v-83c0-10.7,5.3-16,16-16
			H1104z"/>
		<path class="st1" d="M1104,255c10.7,0,16,5.3,16,16v83c0,10.7-5.3,16-16,16H771c-10.7,0-16-5.3-16-16v-83c0-10.7,5.3-16,16-16
			H1104z"/>
		<path class="st0" d="M1099,260c10.7,0,16,5.3,16,16v73c0,10.7-5.3,16-16,16H776c-10.7,0-16-5.3-16-16v-73c0-10.7,5.3-16,16-16
			H1099z"/>
		<path class="st1" d="M1099,260c10.7,0,16,5.3,16,16v73c0,10.7-5.3,16-16,16H776c-10.7,0-16-5.3-16-16v-73c0-10.7,5.3-16,16-16
			H1099z"/>
		<text transform="matrix(1 0 0 1 818 334)" class="st24 st33">myself</text>
	</g>
	<g>
		<circle class="st0" cx="786.2" cy="312.5" r="12.5"/>
		<circle class="st1" cx="786.2" cy="312.5" r="12.5"/>
		<path class="st0" d="M1104,380c10.7,0,16,5.3,16,16v83c0,10.7-5.3,16-16,16H771c-10.7,0-16-5.3-16-16v-83c0-10.7,5.3-16,16-16
			H1104z"/>
		<path class="st1" d="M1104,380c10.7,0,16,5.3,16,16v83c0,10.7-5.3,16-16,16H771c-10.7,0-16-5.3-16-16v-83c0-10.7,5.3-16,16-16
			H1104z"/>
		<path class="st0" d="M1099,385c10.7,0,16,5.3,16,16v73c0,10.7-5.3,16-16,16H776c-10.7,0-16-5.3-16-16v-73c0-10.7,5.3-16,16-16
			H1099z"/>
		<path class="st1" d="M1099,385c10.7,0,16,5.3,16,16v73c0,10.7-5.3,16-16,16H776c-10.7,0-16-5.3-16-16v-73c0-10.7,5.3-16,16-16
			H1099z"/>
	</g>
	<g>
		<text transform="matrix(1 0 0 1 818 451)" class="st34 st35">others</text>
		<circle class="st0" cx="786.2" cy="437.5" r="12.5"/>
		<circle class="st1" cx="786.2" cy="437.5" r="12.5"/>
		<path class="st0" d="M1104,505c10.7,0,16,5.3,16,16v83c0,10.7-5.3,16-16,16H771c-10.7,0-16-5.3-16-16v-83c0-10.7,5.3-16,16-16
			H1104z"/>
		<path class="st1" d="M1104,505c10.7,0,16,5.3,16,16v83c0,10.7-5.3,16-16,16H771c-10.7,0-16-5.3-16-16v-83c0-10.7,5.3-16,16-16
			H1104z"/>
		<path class="st0" d="M1099,510c10.7,0,16,5.3,16,16v73c0,10.7-5.3,16-16,16H776c-10.7,0-16-5.3-16-16v-73c0-10.7,5.3-16,16-16
			H1099z"/>
		<path class="st1" d="M1099,510c10.7,0,16,5.3,16,16v73c0,10.7-5.3,16-16,16H776c-10.7,0-16-5.3-16-16v-73c0-10.7,5.3-16,16-16
			H1099z"/>
		<text transform="matrix(1 0 0 1 818 577)" class="st36 st37">rocks</text>
	</g>
	<g>
		<circle class="st0" cx="786.2" cy="562.5" r="12.5"/>
		<circle class="st1" cx="786.2" cy="562.5" r="12.5"/>
		<path class="st0" d="M1104,630c10.7,0,16,5.3,16,16v83c0,10.7-5.3,16-16,16H771c-10.7,0-16-5.3-16-16v-83c0-10.7,5.3-16,16-16
			H1104z"/>
		<path class="st1" d="M1104,630c10.7,0,16,5.3,16,16v83c0,10.7-5.3,16-16,16H771c-10.7,0-16-5.3-16-16v-83c0-10.7,5.3-16,16-16
			H1104z"/>
		<path class="st0" d="M1099,635c10.7,0,16,5.3,16,16v73c0,10.7-5.3,16-16,16H776c-10.7,0-16-5.3-16-16v-73c0-10.7,5.3-16,16-16
			H1099z"/>
		<path class="st1" d="M1099,635c10.7,0,16,5.3,16,16v73c0,10.7-5.3,16-16,16H776c-10.7,0-16-5.3-16-16v-73c0-10.7,5.3-16,16-16
			H1099z"/>
	</g>
	<g>
		<text transform="matrix(1 0 0 1 818 703)" class="st38 st39">logistics</text>
		<circle class="st0" cx="786.2" cy="687.5" r="12.5"/>
		<circle class="st1" cx="786.2" cy="687.5" r="12.5"/>
		<path class="st0" d="M1104,755c10.7,0,16,5.3,16,16v83c0,10.7-5.3,16-16,16H771c-10.7,0-16-5.3-16-16v-83c0-10.7,5.3-16,16-16
			H1104z"/>
		<path class="st1" d="M1104,755c10.7,0,16,5.3,16,16v83c0,10.7-5.3,16-16,16H771c-10.7,0-16-5.3-16-16v-83c0-10.7,5.3-16,16-16
			H1104z"/>
		<path class="st0" d="M1099,760c10.7,0,16,5.3,16,16v73c0,10.7-5.3,16-16,16H776c-10.7,0-16-5.3-16-16v-73c0-10.7,5.3-16,16-16
			H1099z"/>
		<path class="st1" d="M1099,760c10.7,0,16,5.3,16,16v73c0,10.7-5.3,16-16,16H776c-10.7,0-16-5.3-16-16v-73c0-10.7,5.3-16,16-16
			H1099z"/>
		<text transform="matrix(1 0 0 1 818 831)" class="st40 st41">tools</text>
	</g>
	<g>
		<circle class="st0" cx="786.2" cy="812.5" r="12.5"/>
		<circle class="st1" cx="786.2" cy="812.5" r="12.5"/>
		<path class="st0" d="M1104,880c10.7,0,16,5.3,16,16v83c0,10.7-5.3,16-16,16H771c-10.7,0-16-5.3-16-16v-83c0-10.7,5.3-16,16-16
			H1104z"/>
		<path class="st1" d="M1104,880c10.7,0,16,5.3,16,16v83c0,10.7-5.3,16-16,16H771c-10.7,0-16-5.3-16-16v-83c0-10.7,5.3-16,16-16
			H1104z"/>
		<path class="st0" d="M1099,885c10.7,0,16,5.3,16,16v73c0,10.7-5.3,16-16,16H776c-10.7,0-16-5.3-16-16v-73c0-10.7,5.3-16,16-16
			H1099z"/>
		<path class="st1" d="M1099,885c10.7,0,16,5.3,16,16v73c0,10.7-5.3,16-16,16H776c-10.7,0-16-5.3-16-16v-73c0-10.7,5.3-16,16-16
			H1099z"/>
	</g>
	<g>
		<text transform="matrix(1 0 0 1 818 958)" class="st38 st42">computers</text>
		<circle class="st0" cx="786.2" cy="937.5" r="12.5"/>
		<circle class="st1" cx="786.2" cy="937.5" r="12.5"/>
		<path class="st0" d="M1479,5c10.7,0,16,5.3,16,16v83c0,10.7-5.3,16-16,16h-333c-10.7,0-16-5.3-16-16V21c0-10.7,5.3-16,16-16H1479z
			"/>
		<path class="st1" d="M1479,5c10.7,0,16,5.3,16,16v83c0,10.7-5.3,16-16,16h-333c-10.7,0-16-5.3-16-16V21c0-10.7,5.3-16,16-16H1479z
			"/>
		<path class="st0" d="M1474,10c10.7,0,16,5.3,16,16v73c0,10.7-5.3,16-16,16h-323c-10.7,0-16-5.3-16-16V26c0-10.7,5.3-16,16-16H1474
			z"/>
		<path class="st1" d="M1474,10c10.7,0,16,5.3,16,16v73c0,10.7-5.3,16-16,16h-323c-10.7,0-16-5.3-16-16V26c0-10.7,5.3-16,16-16H1474
			z"/>
		<text transform="matrix(1 0 0 1 1193 75)" class="st43 st44">the internet</text>
	</g>
	<g>
		<circle class="st0" cx="1161.2" cy="62.5" r="12.5"/>
		<circle class="st1" cx="1161.2" cy="62.5" r="12.5"/>
		<path class="st0" d="M1479,130c10.7,0,16,5.3,16,16v83c0,10.7-5.3,16-16,16h-333c-10.7,0-16-5.3-16-16v-83c0-10.7,5.3-16,16-16
			H1479z"/>
		<path class="st1" d="M1479,130c10.7,0,16,5.3,16,16v83c0,10.7-5.3,16-16,16h-333c-10.7,0-16-5.3-16-16v-83c0-10.7,5.3-16,16-16
			H1479z"/>
		<path class="st0" d="M1474,135c10.7,0,16,5.3,16,16v73c0,10.7-5.3,16-16,16h-323c-10.7,0-16-5.3-16-16v-73c0-10.7,5.3-16,16-16
			H1474z"/>
		<path class="st1" d="M1474,135c10.7,0,16,5.3,16,16v73c0,10.7-5.3,16-16,16h-323c-10.7,0-16-5.3-16-16v-73c0-10.7,5.3-16,16-16
			H1474z"/>
	</g>
	<g>
		<text transform="matrix(1 0 0 1 1193 210)" class="st45 st46">strange noises</text>
		<circle class="st0" cx="1161.2" cy="187.5" r="12.5"/>
		<circle class="st1" cx="1161.2" cy="187.5" r="12.5"/>
		<path class="st0" d="M1479,255c10.7,0,16,5.3,16,16v83c0,10.7-5.3,16-16,16h-333c-10.7,0-16-5.3-16-16v-83c0-10.7,5.3-16,16-16
			H1479z"/>
		<path class="st1" d="M1479,255c10.7,0,16,5.3,16,16v83c0,10.7-5.3,16-16,16h-333c-10.7,0-16-5.3-16-16v-83c0-10.7,5.3-16,16-16
			H1479z"/>
		<path class="st0" d="M1474,260c10.7,0,16,5.3,16,16v73c0,10.7-5.3,16-16,16h-323c-10.7,0-16-5.3-16-16v-73c0-10.7,5.3-16,16-16
			H1474z"/>
		<path class="st1" d="M1474,260c10.7,0,16,5.3,16,16v73c0,10.7-5.3,16-16,16h-323c-10.7,0-16-5.3-16-16v-73c0-10.7,5.3-16,16-16
			H1474z"/>
		<text transform="matrix(1 0 0 1 1193 325)" class="st47 st48">rodeos</text>
	</g>
	<g>
		<circle class="st0" cx="1161.2" cy="312.5" r="12.5"/>
		<circle class="st1" cx="1161.2" cy="312.5" r="12.5"/>
		<path class="st0" d="M1479,380c10.7,0,16,5.3,16,16v83c0,10.7-5.3,16-16,16h-333c-10.7,0-16-5.3-16-16v-83c0-10.7,5.3-16,16-16
			H1479z"/>
		<path class="st1" d="M1479,380c10.7,0,16,5.3,16,16v83c0,10.7-5.3,16-16,16h-333c-10.7,0-16-5.3-16-16v-83c0-10.7,5.3-16,16-16
			H1479z"/>
		<path class="st0" d="M1474,385c10.7,0,16,5.3,16,16v73c0,10.7-5.3,16-16,16h-323c-10.7,0-16-5.3-16-16v-73c0-10.7,5.3-16,16-16
			H1474z"/>
		<path class="st1" d="M1474,385c10.7,0,16,5.3,16,16v73c0,10.7-5.3,16-16,16h-323c-10.7,0-16-5.3-16-16v-73c0-10.7,5.3-16,16-16
			H1474z"/>
	</g>
	<g>
		<text transform="matrix(1 0 0 1 1193 452)" class="st49 st50">vehicvvle problems</text>
		<circle class="st0" cx="1161.2" cy="437.5" r="12.5"/>
		<circle class="st1" cx="1161.2" cy="437.5" r="12.5"/>
		<path class="st0" d="M1479,505c10.7,0,16,5.3,16,16v83c0,10.7-5.3,16-16,16h-333c-10.7,0-16-5.3-16-16v-83c0-10.7,5.3-16,16-16
			H1479z"/>
		<path class="st1" d="M1479,505c10.7,0,16,5.3,16,16v83c0,10.7-5.3,16-16,16h-333c-10.7,0-16-5.3-16-16v-83c0-10.7,5.3-16,16-16
			H1479z"/>
		<path class="st0" d="M1474,510c10.7,0,16,5.3,16,16v73c0,10.7-5.3,16-16,16h-323c-10.7,0-16-5.3-16-16v-73c0-10.7,5.3-16,16-16
			H1474z"/>
		<path class="st1" d="M1474,510c10.7,0,16,5.3,16,16v73c0,10.7-5.3,16-16,16h-323c-10.7,0-16-5.3-16-16v-73c0-10.7,5.3-16,16-16
			H1474z"/>
		<text transform="matrix(1 0 0 1 1193 577)" class="st4 st51">waking up</text>
	</g>
	<g>
		<circle class="st0" cx="1161.2" cy="562.5" r="12.5"/>
		<circle class="st1" cx="1161.2" cy="562.5" r="12.5"/>
		<path class="st0" d="M1479,630c10.7,0,16,5.3,16,16v83c0,10.7-5.3,16-16,16h-333c-10.7,0-16-5.3-16-16v-83c0-10.7,5.3-16,16-16
			H1479z"/>
		<path class="st1" d="M1479,630c10.7,0,16,5.3,16,16v83c0,10.7-5.3,16-16,16h-333c-10.7,0-16-5.3-16-16v-83c0-10.7,5.3-16,16-16
			H1479z"/>
		<path class="st0" d="M1474,635c10.7,0,16,5.3,16,16v73c0,10.7-5.3,16-16,16h-323c-10.7,0-16-5.3-16-16v-73c0-10.7,5.3-16,16-16
			H1474z"/>
		<path class="st1" d="M1474,635c10.7,0,16,5.3,16,16v73c0,10.7-5.3,16-16,16h-323c-10.7,0-16-5.3-16-16v-73c0-10.7,5.3-16,16-16
			H1474z"/>
	</g>
	<g>
		<text transform="matrix(1 0 0 1 1193 703)" class="st4 st52">the next ice age</text>
		<circle class="st0" cx="1161.2" cy="687.5" r="12.5"/>
		<circle class="st1" cx="1161.2" cy="687.5" r="12.5"/>
		<path class="st0" d="M1479,755c10.7,0,16,5.3,16,16v83c0,10.7-5.3,16-16,16h-333c-10.7,0-16-5.3-16-16v-83c0-10.7,5.3-16,16-16
			H1479z"/>
		<path class="st1" d="M1479,755c10.7,0,16,5.3,16,16v83c0,10.7-5.3,16-16,16h-333c-10.7,0-16-5.3-16-16v-83c0-10.7,5.3-16,16-16
			H1479z"/>
		<path class="st0" d="M1474,760c10.7,0,16,5.3,16,16v73c0,10.7-5.3,16-16,16h-323c-10.7,0-16-5.3-16-16v-73c0-10.7,5.3-16,16-16
			H1474z"/>
		<path class="st1" d="M1474,760c10.7,0,16,5.3,16,16v73c0,10.7-5.3,16-16,16h-323c-10.7,0-16-5.3-16-16v-73c0-10.7,5.3-16,16-16
			H1474z"/>
		<text transform="matrix(1 0 0 1 1193 831)" class="st53 st54">waiting</text>
	</g>
	<g>
		<circle class="st0" cx="1161.2" cy="812.5" r="12.5"/>
		<circle class="st1" cx="1161.2" cy="812.5" r="12.5"/>
		<path class="st0" d="M1479,880c10.7,0,16,5.3,16,16v83c0,10.7-5.3,16-16,16h-333c-10.7,0-16-5.3-16-16v-83c0-10.7,5.3-16,16-16
			H1479z"/>
		<path class="st1" d="M1479,880c10.7,0,16,5.3,16,16v83c0,10.7-5.3,16-16,16h-333c-10.7,0-16-5.3-16-16v-83c0-10.7,5.3-16,16-16
			H1479z"/>
		<path class="st0" d="M1474,885c10.7,0,16,5.3,16,16v73c0,10.7-5.3,16-16,16h-323c-10.7,0-16-5.3-16-16v-73c0-10.7,5.3-16,16-16
			H1474z"/>
		<path class="st1" d="M1474,885c10.7,0,16,5.3,16,16v73c0,10.7-5.3,16-16,16h-323c-10.7,0-16-5.3-16-16v-73c0-10.7,5.3-16,16-16
			H1474z"/>
	</g>
	<g>
		<text transform="matrix(1 0 0 1 1193 951)" class="st19 st55">running</text>
		<circle class="st0" cx="1161.2" cy="937.5" r="12.5"/>
		<circle class="st1" cx="1161.2" cy="937.5" r="12.5"/>
	</g>
</g>
</svg>
