<?xml version="1.0" encoding="UTF-8" standalone="no"?>
<svg
   style="fill-opacity:1; color-rendering:auto; color-interpolation:auto; text-rendering:auto; stroke:black; stroke-linecap:square; stroke-miterlimit:10; shape-rendering:auto; stroke-opacity:1; fill:black; stroke-dasharray:none; font-weight:normal; stroke-width:1; font-family:'Dialog'; font-style:normal; stroke-linejoin:miter; font-size:12px; stroke-dashoffset:0; image-rendering:auto;"
   width="1500"
   height="1000"
   version="1.1"
   id="svg6152"
   sodipodi:docname="SVGTest010.svg"
   xmlns:inkscape="http://www.inkscape.org/namespaces/inkscape"
   xmlns:sodipodi="http://sodipodi.sourceforge.net/DTD/sodipodi-0.dtd"
   xmlns="http://www.w3.org/2000/svg"
   xmlns:svg="http://www.w3.org/2000/svg">
  <sodipodi:namedview
     id="namedview6154"
     pagecolor="#505050"
     bordercolor="#eeeeee"
     borderopacity="1"
     inkscape:pageshadow="0"
     inkscape:pageopacity="0"
     inkscape:pagecheckerboard="0"
     showgrid="false" />
  <!--Generated by the Batik Graphics2D SVG Generator-->
  <defs
     id="genericDefs" />
  <g
     id="g6150">
    <g
       style="fill:white; stroke:white;"
       id="g5698">
      <path
         style="stroke:none;"
         d="M354 5 C364.6667 5 370 10.3333 370 21 L370 104 C370 114.6667 364.6667 120 354 120 L21 120 C10.3333 120 5 114.6667 5 104 L5 21 C5 10.3333 10.3333 5 21 5 Z"
         id="path5696" />
    </g>
    <g
       id="g5708">
      <path
         style="fill:none;"
         d="M354 5 C364.6667 5 370 10.3333 370 21 L370 104 C370 114.6667 364.6667 120 354 120 L21 120 C10.3333 120 5 114.6667 5 104 L5 21 C5 10.3333 10.3333 5 21 5 Z"
         id="path5700" />
      <path
         d="M349 10 C359.6667 10 365 15.3333 365 26 L365 99 C365 109.6667 359.6667 115 349 115 L26 115 C15.3333 115 10 109.6667 10 99 L10 26 C10 15.3333 15.3333 10 26 10 Z"
         style="fill:white; stroke:none;"
         id="path5702" />
      <path
         style="fill:none;"
         d="M349 10 C359.6667 10 365 15.3333 365 26 L365 99 C365 109.6667 359.6667 115 349 115 L26 115 C15.3333 115 10 109.6667 10 99 L10 26 C10 15.3333 15.3333 10 26 10 Z"
         id="path5704" />
      <g
         aria-label="DiamondRing-Regu"
         id="text5706"
         style="font-size:64px;font-family:'Diamond Ring';stroke:none;text-rendering:optimizeLegibility">
        <path
           d="m 88.48,49.624 v 32.768 q -0.32,0.384 -1.216,1.408 -0.896,1.024 -1.6,1.92 L 84.576,87 H 71.008 l -0.576,-0.512 -0.768,-0.96 H 69.6 l -0.704,-0.64 V 43.8 L 69.6,43.16 h 13.248 l 0.512,0.128 1.088,1.28 q 0.704,0.896 1.6,1.984 0.896,1.024 1.28,1.344 v 0.32 z m -1.92,-1.408 q -0.192,-0.192 -0.704,-0.768 -0.512,-0.576 -1.088,-1.216 -0.512,-0.704 -1.024,-1.28 -0.448,-0.64 -0.704,-0.96 H 82.976 82.912 L 82.848,43.928 H 69.856 l -0.192,0.128 v 40.512 l 0.064,0.128 h 0.064 l 0.064,0.064 h 13.056 l 0.064,-0.064 h 0.064 q 0.256,-0.256 0.704,-0.896 0.512,-0.64 1.024,-1.28 0.576,-0.64 1.088,-1.216 0.512,-0.576 0.704,-0.768 z M 73.504,47.384 70.816,44.632 h 11.456 l -0.832,2.752 z m 8.512,0.256 0.896,-2.752 2.688,3.264 -2.56,0.64 z m -8.96,33.216 -2.688,2.816 V 45.08 l 2.688,2.752 z m 8.384,0.512 0.832,2.752 H 70.816 l 2.688,-2.752 z m -0.512,-0.704 h -6.656 l 2.624,-2.176 h 2.496 z M 77.088,77.72 V 50.904 H 79.2 V 77.72 Z m -3.392,-29.248 2.688,2.304 V 77.912 L 73.696,80.28 Z M 83.04,79.96 85.6,80.6 82.912,83.736 82.016,81.048 Z M 83.168,49.368 85.92,48.792 V 79.96 l -2.752,-0.704 z m -3.776,0.896 h -2.496 l -2.624,-2.24 h 6.656 z m 2.24,30.208 -1.792,-2.496 v -27.2 l 1.792,-2.496 0.896,0.96 v 30.208 z"
           style="font-size:64px;font-family:'Diamond Ring';stroke:none;text-rendering:optimizeLegibility"
           id="path21438" />
        <path
           d="m 95.266,47.768 2.624,-2.752 v 38.528 l -2.624,-2.752 z m -0.384,33.664 2.624,2.688 h -5.184 z m 0,-34.24 -2.56,-2.688 h 5.184 z m -0.32,33.6 -2.688,2.752 V 45.016 l 2.688,2.752 z m 5.696,-35.52 q 0.128,0.064 0.128,0.256 0.064,0.128 0.192,0.32 v 40.32 q -0.064,0 -0.064,0.064 v 0.256 L 100.002,87 92.578,86.936 92.194,86.552 91.938,86.296 V 86.36 L 91.234,85.464 H 91.17 q -0.448,-0.192 -0.64,-0.448 -0.128,-0.32 -0.128,-0.64 l 0.064,-40.32 q 0,-0.384 0.192,-0.512 0.256,-0.192 0.576,-0.448 l 7.168,0.064 q 0.256,0 0.512,0.192 0.256,0.192 0.448,0.768 z M 98.594,44.184 98.53,44.056 q 0,-0.128 -0.064,-0.128 -0.064,0 -0.064,-0.064 h -6.976 q -0.064,0.064 -0.128,0.064 -0.064,0 -0.064,0.128 0,0 -0.064,0.128 v 40.192 q 0,0.128 0.256,0.384 h 6.976 L 98.53,84.568 V 84.44 q 0,-0.064 0.064,-0.064 z m -6.592,42.24 -0.064,-0.064 z"
           style="font-size:64px;font-family:'Diamond Ring';stroke:none;text-rendering:optimizeLegibility"
           id="path21440" />
        <path
           d="m 112.572,47.768 -3.008,-3.264 h 7.104 l -2.88,3.264 z m -5.184,33.664 2.24,2.688 h -5.824 z m 10.24,-6.528 -3.136,-2.368 q -0.064,-0.448 -0.256,-1.408 -0.128,-0.96 -0.32,-1.984 -0.192,-1.088 -0.32,-1.984 -0.128,-0.896 -0.128,-1.216 V 48.408 h 0.128 l 0.128,0.768 z m -10.432,5.888 -3.904,2.88 q 0.512,-4.416 1.216,-8.832 0.768,-4.416 1.408,-8.832 0.832,-5.312 1.6,-10.56 0.768,-5.248 1.6,-10.432 l 2.944,3.136 -0.192,0.896 q -1.088,7.68 -2.24,15.232 -1.152,7.552 -2.304,15.232 z m 0.64,0.064 q 0.128,-1.088 0.256,-2.176 0.192,-1.088 0.384,-2.176 l 2.368,2.624 -0.64,4.48 z m 9.28,-5.504 h -7.872 l 3.008,-2.304 h 1.792 z M 112.7,48.408 h 0.128 v 17.536 q 0,0.32 -0.128,1.216 -0.128,0.896 -0.32,1.984 -0.128,1.024 -0.32,1.984 -0.128,0.96 -0.192,1.408 l -3.136,2.368 z m -0.128,23.936 0.576,-4.16 0.64,4.16 z m 6.336,9.088 3.52,2.688 h -5.824 z m -1.088,-4.928 q 0.192,1.088 0.384,2.176 0.192,1.088 0.32,2.176 l -2.368,2.752 -0.64,-4.48 z m -0.64,-31.488 q 0.768,4.416 1.344,8.896 0.64,4.416 1.344,8.832 0.768,5.248 1.536,10.496 0.768,5.184 1.664,10.432 l -3.904,-2.88 -0.192,-1.28 -4.608,-30.464 -0.128,-0.896 z m 8.064,37.12 q 0.128,0.896 0.32,2.112 0.192,1.152 0.128,1.984 v 0.064 q -0.064,0.128 -0.128,0.384 0,0.256 0,0.32 h -8.256 q -0.512,0 -0.768,-0.384 l -0.064,-0.064 v 0.064 l -0.896,-1.152 q -0.64,-0.192 -0.768,-0.96 l -0.448,-2.88 h -1.024 q -0.128,1.088 -0.384,2.24 -0.192,1.152 -0.32,2.24 0,0.384 -0.32,0.64 Q 112.06,87 111.74,87 h -7.68 l -0.768,-0.128 -1.216,-1.408 -0.32,-0.064 v -0.896 q 0,-0.64 0.064,-1.536 0.128,-0.896 0.256,-1.728 v -0.128 q 0,-0.064 0,-0.064 0.064,0 0.064,-0.064 l 0.192,-0.832 v 0.064 l 1.088,-7.232 1.088,-7.168 q 0.064,-0.512 0.128,-0.96 0.128,-0.512 0.192,-1.024 0.256,-1.728 0.448,-3.392 0.256,-1.728 0.512,-3.392 0.32,-2.176 0.64,-4.416 0.384,-2.304 0.768,-4.544 0,-0.128 0.128,-0.832 0.128,-0.768 0.256,-1.6 0.192,-0.896 0.32,-1.6 0.128,-0.768 0.192,-0.832 l 0.704,-0.128 9.664,0.128 0.064,0.448 1.088,1.408 0.128,0.704 q 0.704,5.12 1.408,10.112 0.768,4.992 1.6,10.112 l 0.256,1.472 1.024,7.168 1.152,7.168 q 0,0.064 0,0.128 0.064,0.064 0.064,0.192 z m -1.408,2.304 q 0,-0.384 -0.064,-0.896 -0.064,-0.576 -0.192,-1.152 -0.064,-0.64 -0.192,-1.152 -0.128,-0.576 -0.192,-0.96 l -2.176,-14.4 q -0.832,-5.44 -1.664,-10.816 -0.832,-5.44 -1.6,-10.88 V 44.12 44.056 l -0.064,-0.064 v -0.064 h -0.064 l -0.064,-0.064 h -8.768 l -0.064,0.064 h -0.064 l -0.064,0.064 v 0.064 l -0.064,0.064 q 0,0 -0.128,0.64 -0.064,0.576 -0.192,1.344 -0.064,0.704 -0.192,1.344 -0.064,0.64 -0.064,0.768 l -2.688,17.664 -2.176,14.4 q -0.128,0.832 -0.384,2.112 -0.192,1.28 -0.192,2.112 v 0.128 h 0.064 l 0.128,0.128 h 7.616 q 0.384,0 0.384,-0.32 l 0.768,-5.056 h 3.328 l 0.768,5.056 q 0,0.32 0.384,0.32 h 7.68 v -0.064 h 0.064 l 0.064,-0.064 v -0.064 l 0.064,-0.064 z m -6.528,-8.448 -2.368,2.752 h -3.584 l -2.368,-2.752 z"
           style="font-size:64px;font-family:'Diamond Ring';stroke:none;text-rendering:optimizeLegibility"
           id="path21442" />
        <path
           d="m 143.155,81.496 2.624,2.688 h -5.12 z M 142.835,47.832 137.523,69.4 V 57.176 q 0,-0.192 0.32,-1.92 0.384,-1.792 0.832,-3.904 0.512,-2.176 0.896,-4.032 0.384,-1.92 0.512,-2.368 z m -11.648,-0.576 -2.56,-2.624 h 5.12 z m -0.32,33.6 -2.752,2.752 V 45.144 l 2.752,2.688 z m 12.288,-33.6 -2.496,-2.624 h 5.12 z m -3.008,36.352 V 80.28 q 0,-0.448 0,-1.152 0,-0.768 0,-1.536 0,-0.832 0,-1.536 0,-0.768 0,-1.152 l 2.752,-21.76 v 27.712 z m 3.392,-35.776 2.688,-2.688 v 38.464 l -2.688,-2.752 z m -12.352,33.664 2.56,2.688 h -5.12 z m 17.664,-35.968 v 41.024 l -0.512,0.512 h -7.488 L 140.723,87 l -0.64,0.064 h -3.328 l -0.256,-0.256 -0.192,0.256 L 128.755,87 q -0.192,-0.128 -0.32,-0.384 l -0.96,-1.088 h -0.128 q -0.32,-0.32 -0.448,-0.448 -0.064,-0.128 -0.192,-0.512 l 0.064,-40.448 q 0,-0.384 0.192,-0.512 0.256,-0.192 0.576,-0.448 h 7.424 l 0.64,0.704 v 0.064 q 0,0.192 0.064,0.256 l 1.152,1.344 q 0,0.064 0.192,1.344 0.256,1.28 0.576,2.944 0.448,-2.112 0.768,-3.84 0.384,-1.792 0.384,-1.856 l 0.128,-0.96 h 8.128 l 0.64,0.704 v 0.256 z m -1.984,-1.408 -0.128,-0.192 h -7.104 v 0.064 h -0.064 v 0.064 l -0.064,0.064 q 0,0 -0.192,0.832 -0.128,0.768 -0.384,1.984 -0.256,1.152 -0.576,2.56 -0.256,1.408 -0.512,2.688 -0.256,1.216 -0.448,2.176 -0.192,0.896 -0.256,1.088 0,-0.192 -0.192,-1.088 -0.192,-0.96 -0.448,-2.176 -0.256,-1.28 -0.576,-2.688 -0.256,-1.408 -0.512,-2.56 -0.256,-1.216 -0.448,-1.984 -0.128,-0.832 -0.128,-0.832 v -0.064 -0.064 h -0.064 l -0.064,-0.064 h -6.976 q -0.064,0.064 -0.128,0.064 -0.064,0 -0.064,0.128 0,0 -0.064,0.128 v 40.256 q 0,0.064 0.064,0.128 0,0.064 0.064,0.128 0.064,0 0.128,0.064 h 6.976 l 0.064,-0.064 h 0.064 l 0.064,-0.256 v -4.16 q 0.128,0.896 0.32,2.176 0.256,1.216 0.256,2.112 l 0.064,0.064 v 0.064 h 0.064 v 0.064 h 3.136 l 0.064,-0.064 h 0.064 v -0.064 h 0.064 v -0.192 h 0.064 l 0.512,-4.16 v 4.288 l 0.064,0.128 h 0.064 l 0.064,0.064 h 7.04 l 0.128,-0.192 z m -12.672,30.784 q 0.128,0.768 0.064,1.664 -0.064,0.832 -0.064,1.6 v 5.44 l -2.688,-2.752 V 53.144 Z m 8,-21.504 -3.584,28.288 -1.088,-9.408 z m -4.352,26.816 0.448,3.968 h -2.24 l -3.84,-30.784 3.136,12.544 q 0.448,1.856 0.768,3.2 0.384,1.28 0.768,3.136 z m -6.272,-32.384 2.752,-2.88 q 0.064,0.448 0.448,2.368 0.448,1.856 0.896,4.032 0.512,2.112 0.832,3.904 0.384,1.728 0.384,1.92 V 69.4 Z"
           style="font-size:64px;font-family:'Diamond Ring';stroke:none;text-rendering:optimizeLegibility"
           id="path21444" />
        <path
           d="m 162.428,80.536 h -5.696 l 1.6,-2.24 h 2.432 z m 1.024,-33.024 0.832,-2.688 2.816,3.2 -2.688,0.64 z m -2.688,2.688 h -2.432 l -1.6,-2.304 h 5.696 z m -4.736,-2.112 1.856,2.496 v 27.328 l -1.856,2.432 -0.832,-1.024 V 49.176 Z m 2.496,29.568 V 50.84 h 2.112 v 26.816 z m -2.24,-30.4 -0.896,-2.816 h 8.32 l -0.832,2.816 z m 8.128,32.576 2.688,0.576 -2.816,3.264 -0.832,-2.688 z m 0.256,-30.528 2.688,-0.64 v 31.168 l -2.688,-0.64 z m 0.064,1.792 h 0.064 l -0.064,-0.064 z m -1.856,30.08 0.832,2.816 h -8.32 l 0.896,-2.816 z m 7.104,-31.68 -0.064,32.832 -3.968,4.608 -10.112,-0.064 -1.28,-1.472 h -0.128 q -0.32,-0.32 -0.96,-1.024 -0.64,-0.704 -1.28,-1.536 l -0.512,-0.64 q -1.216,-1.536 -1.28,-1.664 h -0.064 q 0,-8.192 0,-16.384 0.064,-8.192 0.064,-16.384 0.32,-0.32 0.704,-0.704 0.384,-0.448 0.768,-0.96 l 0.64,-0.768 q 0.448,-0.576 0.96,-1.152 0.512,-0.64 1.088,-1.152 l 10.24,0.128 3.968,4.608 v 0.256 z m -16.512,34.624 -0.064,-0.064 -0.064,-0.064 -0.064,-0.064 v 0.064 l -0.064,-0.128 -0.192,-0.256 0.128,0.192 0.128,0.192 z m 0.128,0.192 -0.064,-0.128 -0.064,-0.064 v 0.064 z m 14.4,-36.224 -0.064,-0.064 V 47.96 l -3.52,-4.032 v -0.064 h -0.064 L 164.284,43.8 h -9.472 q -0.384,0.384 -0.896,1.024 -0.448,0.576 -0.96,1.216 -0.512,0.64 -0.96,1.216 -0.448,0.512 -0.832,0.768 v 0.064 L 151.1,48.152 V 80.28 q 0.384,0.384 0.832,1.024 0.512,0.576 1.024,1.28 0.512,0.64 0.96,1.216 0.512,0.576 0.832,0.832 h 0.064 v 0.064 h 9.472 v -0.064 h 0.128 v -0.064 l 3.52,-4.16 v -0.064 h 0.064 z m -4.864,32.256 -1.856,-2.432 V 50.584 l 1.856,-2.496 0.896,1.088 V 79.32 Z m -7.424,0.64 -0.896,2.688 -2.688,-3.264 2.56,-0.576 z m -1.024,-32.32 -2.56,-0.64 2.688,-3.2 0.896,2.688 z m -0.128,30.528 -2.752,0.64 V 48.664 l 2.752,0.64 z"
           style="font-size:64px;font-family:'Diamond Ring';stroke:none;text-rendering:optimizeLegibility"
           id="path21446" />
        <path
           d="m 185.595,81.24 2.688,2.816 h -5.312 l 2.048,-2.816 z m 5.76,-35.776 -0.064,40.96 q -0.192,0.192 -0.32,0.384 -0.128,0.128 -0.448,0.192 h -6.848 l -0.256,-0.128 q -0.384,-0.128 -0.576,-0.256 L 181.819,85.4 q 0,0.96 -0.32,1.28 -0.128,0.128 -0.256,0.256 Q 181.179,87 180.923,87 h -6.72 q -0.064,0 -0.192,-0.064 -0.128,-0.064 -0.256,-0.064 -0.064,-0.064 -0.128,-0.128 -0.192,-0.192 -0.192,-0.256 l -0.96,-1.088 q -0.128,0 -0.256,-0.128 -0.256,-0.256 -0.32,-0.32 -0.064,-0.128 -0.192,-0.512 V 44.184 l 0.128,-1.024 0.96,-0.128 7.232,0.064 0.576,0.704 0.064,0.384 0.576,0.576 v -0.576 l 0.064,-1.024 0.96,-0.128 6.912,0.064 q 0.448,0 0.704,0.384 l 0.32,0.256 v 0.32 z m -1.92,-1.408 q -0.192,-0.192 -0.256,-0.192 L 189.115,43.8 h -6.848 l -0.128,0.128 h -0.064 l -0.128,0.256 v 8.832 l -2.048,-8.896 -0.064,-0.064 v -0.064 l -0.128,-0.128 -0.064,-0.064 h -6.848 l -0.128,0.128 h -0.064 l -0.128,0.256 v 40.192 q 0,0.064 0.064,0.128 0,0.064 0.064,0.128 h 0.064 q 0.128,0.128 0.192,0.128 h 6.72 q 0.128,0 0.128,-0.128 h 0.064 q 0.064,-0.064 0.064,-0.128 0.064,-0.064 0.064,-1.28 0.064,-1.216 0.064,-2.752 0,-1.536 -0.064,-2.944 0,-1.472 0,-1.984 l 2.048,8.896 0.064,0.064 v 0.064 l 0.064,0.064 h 0.064 v 0.064 h 0.064 q 0,0 0.128,0.064 h 6.72 l 0.128,-0.064 q 0.064,0 0.256,-0.192 z m -3.392,3.712 2.688,-2.752 v 38.528 l -2.688,-2.752 z m -8.576,-0.064 1.92,-2.752 0.896,3.648 1.664,7.36 q 0.384,2.176 0.512,3.776 0.128,1.536 0.384,3.712 l 1.856,15.04 z m -1.28,33.728 2.56,2.624 h -5.12 z m -0.32,-0.64 -2.688,2.752 V 45.016 l 2.688,2.752 z m 0.704,-31.168 2.624,23.04 v 3.584 7.296 l -2.624,-2.752 z m 7.936,31.232 -1.984,2.752 -0.896,-3.648 -1.728,-7.36 q -0.32,-2.176 -0.512,-3.776 -0.128,-1.664 -0.384,-3.904 l -1.792,-15.296 z m -8.192,-33.536 -2.688,-2.816 h 5.312 l -2.048,2.816 z m 9.024,31.296 -2.624,-22.784 v -3.52 -7.296 l 2.624,2.752 z m 0.384,-31.424 -2.56,-2.688 h 5.12 z"
           style="font-size:64px;font-family:'Diamond Ring';stroke:none;text-rendering:optimizeLegibility"
           id="path21448" />
        <path
           d="m 212.48,49.624 v 32.768 q -0.32,0.384 -1.216,1.408 -0.896,1.024 -1.6,1.92 L 208.576,87 h -13.568 l -0.576,-0.512 -0.768,-0.96 H 193.6 l -0.704,-0.64 V 43.8 l 0.704,-0.64 h 13.248 l 0.512,0.128 1.088,1.28 q 0.704,0.896 1.6,1.984 0.896,1.024 1.28,1.344 v 0.32 z m -1.92,-1.408 q -0.192,-0.192 -0.704,-0.768 -0.512,-0.576 -1.088,-1.216 -0.512,-0.704 -1.024,-1.28 -0.448,-0.64 -0.704,-0.96 h -0.064 -0.064 l -0.064,-0.064 h -12.992 l -0.192,0.128 v 40.512 l 0.064,0.128 h 0.064 l 0.064,0.064 h 13.056 l 0.064,-0.064 h 0.064 q 0.256,-0.256 0.704,-0.896 0.512,-0.64 1.024,-1.28 0.576,-0.64 1.088,-1.216 0.512,-0.576 0.704,-0.768 z m -13.056,-0.832 -2.688,-2.752 h 11.456 l -0.832,2.752 z m 8.512,0.256 0.896,-2.752 2.688,3.264 -2.56,0.64 z m -8.96,33.216 -2.688,2.816 V 45.08 l 2.688,2.752 z m 8.384,0.512 0.832,2.752 h -11.456 l 2.688,-2.752 z m -0.512,-0.704 h -6.656 l 2.624,-2.176 h 2.496 z m -3.84,-2.944 V 50.904 H 203.2 V 77.72 Z m -3.392,-29.248 2.688,2.304 v 27.136 l -2.688,2.368 z m 9.344,31.488 2.56,0.64 -2.688,3.136 -0.896,-2.688 z m 0.128,-30.592 2.752,-0.576 V 79.96 l -2.752,-0.704 z m -3.776,0.896 h -2.496 l -2.624,-2.24 h 6.656 z m 2.24,30.208 -1.792,-2.496 v -27.2 l 1.792,-2.496 0.896,0.96 v 30.208 z"
           style="font-size:64px;font-family:'Diamond Ring';stroke:none;text-rendering:optimizeLegibility"
           id="path21450" />
        <path
           d="m 223.682,66.904 -1.856,2.624 -2.496,-2.624 z m -4.8,0.512 2.688,2.816 v 13.376 l -2.688,-2.752 z m 8.704,14.08 3.008,2.624 h -4.864 z m 0.384,-11.264 2.944,13.312 -3.136,-2.688 -2.88,-13.312 z m 2.688,1.728 q 0.128,0.576 0.384,1.856 0.32,1.216 0.64,2.816 0.384,1.536 0.768,3.2 0.384,1.6 0.64,2.944 0.32,1.344 0.512,2.24 0.192,0.832 0.192,0.832 l -0.064,0.64 -0.576,0.576 -7.552,-0.064 -1.216,-1.472 h -0.256 v 0.96 l -0.512,0.576 h -7.488 l -0.512,-0.576 -0.768,-0.896 h -0.128 l -0.64,-0.64 V 43.8 l 0.64,-0.64 13.824,0.128 3.968,4.544 v 0.32 l 1.216,1.408 0.064,0.448 -0.064,17.92 -1.664,2.176 z m 1.152,12.48 h -0.064 q 0,0 -0.256,-0.96 -0.192,-1.024 -0.512,-2.496 -0.32,-1.536 -0.704,-3.328 -0.384,-1.792 -0.768,-3.328 -0.32,-1.6 -0.576,-2.752 -0.256,-1.152 -0.32,-1.408 l 3.136,-4.032 v -0.128 h 0.064 V 48.344 l -0.064,-0.064 v -0.128 h -0.064 v -0.064 l -3.456,-4.032 v -0.064 h -0.064 l -0.064,-0.064 h -13.056 l -0.064,0.064 h -0.064 l -0.064,0.128 v 40.512 l 0.192,0.192 h 6.976 l 0.064,-0.064 v -0.064 l 0.128,-0.064 v -11.52 l 2.56,11.456 v 0.064 0.064 h 0.064 v 0.064 h 0.064 v 0.064 h 6.656 l 0.064,-0.064 h 0.064 v -0.064 l 0.064,-0.064 v -0.128 z m 0.576,-0.256 q 0,-0.384 -0.128,-0.832 -0.128,-0.384 -0.256,-0.896 -0.128,-0.576 -0.256,-1.216 0.256,1.28 0.384,2.176 0.192,0.832 0.128,0.896 l 0.128,-0.064 z m -5.248,-3.2 -1.92,2.688 -2.944,-13.568 1.92,-2.688 z m 1.088,-15.424 2.624,0.64 -2.624,3.392 -2.944,-2.688 h 1.728 0.064 V 66.84 Z m -8.768,-17.536 h 6.784 l -1.664,2.24 h -2.56 z m 2.752,15.36 V 50.968 h 2.176 v 12.416 z m -3.52,-16 -2.752,-2.816 h 11.584 l -0.896,2.816 z m 8.576,0.256 0.832,-2.688 2.752,3.2 -2.624,0.64 z m -2.24,16 V 50.712 l 1.856,-2.496 0.832,1.024 v 15.808 l -0.832,1.024 z m 3.456,-14.208 2.624,-0.64 v 16.704 l -2.624,-0.576 z m -10.304,31.424 -2.688,2.752 V 45.08 l 2.688,2.752 z m 0.32,0.64 2.56,2.624 h -5.12 z m 0.384,-33.024 2.688,2.304 v 12.8 l -2.688,2.304 z m 7.36,17.792 h -6.784 l 2.56,-2.24 h 2.56 z"
           style="font-size:64px;font-family:'Diamond Ring';stroke:none;text-rendering:optimizeLegibility"
           id="path21452" />
        <path
           d="m 240.641,47.768 2.624,-2.752 v 38.528 l -2.624,-2.752 z m -0.384,33.664 2.624,2.688 h -5.184 z m 0,-34.24 -2.56,-2.688 h 5.184 z m -0.32,33.6 -2.688,2.752 V 45.016 l 2.688,2.752 z m 5.696,-35.52 q 0.128,0.064 0.128,0.256 0.064,0.128 0.192,0.32 v 40.32 q -0.064,0 -0.064,0.064 v 0.256 l -0.512,0.512 -7.424,-0.064 -0.384,-0.384 -0.256,-0.256 v 0.064 l -0.704,-0.896 h -0.064 q -0.448,-0.192 -0.64,-0.448 -0.128,-0.32 -0.128,-0.64 l 0.064,-40.32 q 0,-0.384 0.192,-0.512 0.256,-0.192 0.576,-0.448 l 7.168,0.064 q 0.256,0 0.512,0.192 0.256,0.192 0.448,0.768 z m -1.664,-1.088 -0.064,-0.128 q 0,-0.128 -0.064,-0.128 -0.064,0 -0.064,-0.064 h -6.976 q -0.064,0.064 -0.128,0.064 -0.064,0 -0.064,0.128 0,0 -0.064,0.128 v 40.192 q 0,0.128 0.256,0.384 h 6.976 l 0.128,-0.192 V 84.44 q 0,-0.064 0.064,-0.064 z m -6.592,42.24 -0.064,-0.064 z"
           style="font-size:64px;font-family:'Diamond Ring';stroke:none;text-rendering:optimizeLegibility"
           id="path21454" />
        <path
           d="m 261.595,81.24 2.688,2.816 h -5.312 l 2.048,-2.816 z m 5.76,-35.776 -0.064,40.96 q -0.192,0.192 -0.32,0.384 -0.128,0.128 -0.448,0.192 h -6.848 l -0.256,-0.128 q -0.384,-0.128 -0.576,-0.256 L 257.819,85.4 q 0,0.96 -0.32,1.28 -0.128,0.128 -0.256,0.256 Q 257.179,87 256.923,87 h -6.72 q -0.064,0 -0.192,-0.064 -0.128,-0.064 -0.256,-0.064 -0.064,-0.064 -0.128,-0.128 -0.192,-0.192 -0.192,-0.256 l -0.96,-1.088 q -0.128,0 -0.256,-0.128 -0.256,-0.256 -0.32,-0.32 -0.064,-0.128 -0.192,-0.512 V 44.184 l 0.128,-1.024 0.96,-0.128 7.232,0.064 0.576,0.704 0.064,0.384 0.576,0.576 v -0.576 l 0.064,-1.024 0.96,-0.128 6.912,0.064 q 0.448,0 0.704,0.384 l 0.32,0.256 v 0.32 z m -1.92,-1.408 q -0.192,-0.192 -0.256,-0.192 L 265.115,43.8 h -6.848 l -0.128,0.128 h -0.064 l -0.128,0.256 v 8.832 l -2.048,-8.896 -0.064,-0.064 v -0.064 l -0.128,-0.128 -0.064,-0.064 h -6.848 l -0.128,0.128 h -0.064 l -0.128,0.256 v 40.192 q 0,0.064 0.064,0.128 0,0.064 0.064,0.128 h 0.064 q 0.128,0.128 0.192,0.128 h 6.72 q 0.128,0 0.128,-0.128 h 0.064 q 0.064,-0.064 0.064,-0.128 0.064,-0.064 0.064,-1.28 0.064,-1.216 0.064,-2.752 0,-1.536 -0.064,-2.944 0,-1.472 0,-1.984 l 2.048,8.896 0.064,0.064 v 0.064 l 0.064,0.064 h 0.064 v 0.064 h 0.064 q 0,0 0.128,0.064 h 6.72 l 0.128,-0.064 q 0.064,0 0.256,-0.192 z m -3.392,3.712 2.688,-2.752 v 38.528 l -2.688,-2.752 z m -8.576,-0.064 1.92,-2.752 0.896,3.648 1.664,7.36 q 0.384,2.176 0.512,3.776 0.128,1.536 0.384,3.712 l 1.856,15.04 z m -1.28,33.728 2.56,2.624 h -5.12 z m -0.32,-0.64 -2.688,2.752 V 45.016 l 2.688,2.752 z m 0.704,-31.168 2.624,23.04 v 3.584 7.296 l -2.624,-2.752 z m 7.936,31.232 -1.984,2.752 -0.896,-3.648 -1.728,-7.36 q -0.32,-2.176 -0.512,-3.776 -0.128,-1.664 -0.384,-3.904 l -1.792,-15.296 z m -8.192,-33.536 -2.688,-2.816 h 5.312 l -2.048,2.816 z m 9.024,31.296 -2.624,-22.784 v -3.52 -7.296 l 2.624,2.752 z m 0.384,-31.424 -2.56,-2.688 h 5.12 z"
           style="font-size:64px;font-family:'Diamond Ring';stroke:none;text-rendering:optimizeLegibility"
           id="path21456" />
        <path
           d="m 287.904,63.96 v 22.528 l -0.512,0.512 -13.12,-0.064 -1.28,-1.472 h -0.128 l -1.088,-1.344 q -0.704,-0.896 -1.664,-1.92 -0.896,-1.024 -1.216,-1.408 l 0.064,-33.024 3.968,-4.608 h 12.992 l 0.64,0.64 v 0.32 l 1.216,1.408 v 7.04 l -0.384,0.384 q -0.256,0.256 -1.216,0.32 -0.896,0 -2.112,0 -1.216,0 -2.496,0 -1.28,0 -2.112,-0.064 h -0.512 v 8.32 h 7.104 l 0.704,0.704 v 0.32 z m -1.92,-1.408 -0.064,-0.128 h -0.064 l -0.128,-0.128 h -6.848 l -0.064,0.064 h -0.064 v 0.064 l -0.128,0.128 v 15.232 h -1.6 V 50.968 q 0.32,0 1.664,0.064 1.344,0 2.816,0 1.536,0 2.752,0 1.28,-0.064 1.344,-0.128 h 0.064 l 0.064,-0.064 v -0.064 l 0.064,-0.064 V 44.12 l -0.064,-0.064 V 43.992 L 285.6,43.928 h -12.288 v 0.064 h -0.128 v 0.064 l -3.456,4.032 v 0.064 l -0.064,0.064 v 32.256 q 0.192,0.192 0.704,0.768 0.512,0.576 1.024,1.28 0.576,0.64 1.024,1.28 0.512,0.64 0.768,0.896 h 0.064 l 0.064,0.064 h 12.48 l 0.192,-0.128 z m -3.84,18.752 2.688,2.816 h -10.944 l 0.896,-2.816 z m -9.152,-1.984 -2.688,0.64 V 48.792 l 2.688,0.64 z m 3.392,-28.608 v 27.264 l -1.856,2.432 -0.896,-0.96 V 49.24 l 0.896,-1.024 z m 0.448,27.712 h 1.984 l 2.56,2.24 h -6.208 z m 4.992,-30.4 2.752,2.24 h -7.744 l -1.664,-2.24 z m 0.512,17.6 L 279.712,63 h 5.12 z m 0.128,-17.984 2.688,-2.56 v 4.8 z m 0.128,18.624 2.752,-2.816 v 20.16 l -2.752,-2.752 z m -0.64,14.016 -2.624,-2.304 V 63.448 l 2.624,2.816 z m -7.168,-32.96 -0.896,-2.752 h 10.816 l -2.88,2.752 z m -0.576,33.728 -0.896,2.752 -2.688,-3.264 2.56,-0.576 z m -1.024,-32.256 -2.56,-0.64 2.688,-3.2 0.896,2.688 z"
           style="font-size:64px;font-family:'Diamond Ring';stroke:none;text-rendering:optimizeLegibility"
           id="path21458" />
        <path
           d="m 312.78125,69.46875 h -19.5 V 63.8125 h 19.5 z"
           style="font-size:64px;font-family:'Diamond Ring';stroke:none;text-rendering:optimizeLegibility"
           id="path21460" />
        <path
           d="m 328.057,66.904 -1.856,2.624 -2.496,-2.624 z m -4.8,0.512 2.688,2.816 v 13.376 l -2.688,-2.752 z m 8.704,14.08 3.008,2.624 h -4.864 z m 0.384,-11.264 2.944,13.312 -3.136,-2.688 -2.88,-13.312 z m 2.688,1.728 q 0.128,0.576 0.384,1.856 0.32,1.216 0.64,2.816 0.384,1.536 0.768,3.2 0.384,1.6 0.64,2.944 0.32,1.344 0.512,2.24 0.192,0.832 0.192,0.832 l -0.064,0.64 -0.576,0.576 -7.552,-0.064 -1.216,-1.472 h -0.256 v 0.96 l -0.512,0.576 h -7.488 l -0.512,-0.576 -0.768,-0.896 h -0.128 l -0.64,-0.64 V 43.8 l 0.64,-0.64 13.824,0.128 3.968,4.544 v 0.32 l 1.216,1.408 0.064,0.448 -0.064,17.92 -1.664,2.176 z m 1.152,12.48 h -0.064 q 0,0 -0.256,-0.96 -0.192,-1.024 -0.512,-2.496 -0.32,-1.536 -0.704,-3.328 -0.384,-1.792 -0.768,-3.328 -0.32,-1.6 -0.576,-2.752 -0.256,-1.152 -0.32,-1.408 l 3.136,-4.032 v -0.128 h 0.064 V 48.344 l -0.064,-0.064 v -0.128 h -0.064 v -0.064 l -3.456,-4.032 v -0.064 h -0.064 l -0.064,-0.064 h -13.056 l -0.064,0.064 h -0.064 l -0.064,0.128 v 40.512 l 0.192,0.192 h 6.976 l 0.064,-0.064 v -0.064 l 0.128,-0.064 v -11.52 l 2.56,11.456 v 0.064 0.064 h 0.064 v 0.064 h 0.064 v 0.064 h 6.656 l 0.064,-0.064 h 0.064 v -0.064 l 0.064,-0.064 v -0.128 z m 0.576,-0.256 q 0,-0.384 -0.128,-0.832 -0.128,-0.384 -0.256,-0.896 -0.128,-0.576 -0.256,-1.216 0.256,1.28 0.384,2.176 0.192,0.832 0.128,0.896 l 0.128,-0.064 z m -5.248,-3.2 -1.92,2.688 -2.944,-13.568 1.92,-2.688 z m 1.088,-15.424 2.624,0.64 -2.624,3.392 -2.944,-2.688 h 1.728 0.064 V 66.84 Z m -8.768,-17.536 h 6.784 l -1.664,2.24 h -2.56 z m 2.752,15.36 V 50.968 h 2.176 v 12.416 z m -3.52,-16 -2.752,-2.816 h 11.584 l -0.896,2.816 z m 8.576,0.256 0.832,-2.688 2.752,3.2 -2.624,0.64 z m -2.24,16 V 50.712 l 1.856,-2.496 0.832,1.024 v 15.808 l -0.832,1.024 z m 3.456,-14.208 2.624,-0.64 v 16.704 l -2.624,-0.576 z m -10.304,31.424 -2.688,2.752 V 45.08 l 2.688,2.752 z m 0.32,0.64 2.56,2.624 h -5.12 z m 0.384,-33.024 2.688,2.304 v 12.8 l -2.688,2.304 z m 7.36,17.792 h -6.784 l 2.56,-2.24 h 2.56 z"
           style="font-size:64px;font-family:'Diamond Ring';stroke:none;text-rendering:optimizeLegibility"
           id="path21462" />
        <path
           d="m 343.992,80.856 -2.752,2.752 V 45.08 l 2.752,2.752 z m 6.656,0.448 2.816,2.816 h -11.712 l 2.688,-2.816 z m -6.208,-33.92 -2.688,-2.816 h 11.712 l -2.816,2.816 z m 6.848,33.664 2.688,-2.24 v 4.8 z m 0.064,-16.704 2.624,-2.496 v 5.12 z m -0.64,0.384 2.752,2.688 h -5.632 l -2.688,-2.688 z M 347.32,50.712 v 10.176 l -2.624,2.624 V 48.344 Z m 0.512,27.712 h 5.504 l -2.688,2.176 h -5.376 z m -3.136,1.856 V 65.176 l 2.624,2.688 v 10.048 z m 6.592,-32.64 2.688,-2.624 v 4.864 z m -3.456,13.696 h 5.632 l -2.752,2.752 h -5.568 z m 2.816,-13.312 2.688,2.24 h -5.504 l -2.56,-2.24 z m 5.888,14.144 0.064,0.448 V 69.4 q 0,0.064 -0.064,0.384 0,0.32 0,0.384 l -0.768,0.128 h -5.76 v 6.656 h 0.256 q 0.512,0 0.96,0 0.512,-0.064 1.024,-0.064 0.896,0 1.6,0.064 0.768,0.064 1.024,0.192 l 0.576,0.512 v 0.256 l 1.152,1.472 v 6.72 q 0,0.064 -0.064,0.256 0,0.128 0,0.192 -0.192,0.128 -0.384,0.32 Q 356.024,87 355.768,87 H 342.2 q -0.128,0 -0.448,-0.32 l -1.024,-1.152 q -0.192,-0.064 -0.512,-0.32 -0.256,-0.256 -0.384,-0.704 V 44.248 q 0,-0.32 0.192,-0.512 0.192,-0.256 0.512,-0.64 h 13.888 l 0.96,0.128 v 0.448 l 1.152,1.408 0.064,0.768 -0.064,6.528 -0.128,0.768 h -6.4 v 6.72 h 2.112 q 1.024,0 1.792,0.064 0.832,0.064 1.472,0.512 v 0.32 z m -1.856,-1.152 -0.064,-0.128 v -0.064 l -0.128,-0.128 q -0.064,-0.064 -1.024,-0.064 -0.896,0 -2.048,0 -1.152,0 -2.176,0 -0.96,0 -1.216,0 v -9.728 h 6.464 V 50.84 l 0.064,-0.064 h 0.064 v -0.064 h 0.064 v -6.528 q 0,-0.064 -0.064,-0.128 v -0.064 h -0.064 l -0.128,-0.128 h -13.568 q -0.064,0.064 -0.128,0.064 v 0.064 Q 340.6,44.12 340.6,44.248 V 84.44 q 0,0.064 0.064,0.128 0,0.192 0.192,0.192 h 13.568 q 0.064,0 0.192,-0.128 v -0.064 q 0,0 0.064,-0.128 v -6.464 l -0.064,-0.064 v -0.064 h -0.064 l -0.064,-0.064 h -0.064 q -0.128,-0.064 -1.024,-0.064 -0.896,-0.064 -2.048,-0.064 -1.088,0 -2.112,0.064 -0.96,0 -1.216,0 v -9.664 h 6.4 l 0.128,-0.128 h 0.064 V 67.864 L 354.68,67.8 Z"
           style="font-size:64px;font-family:'Diamond Ring';stroke:none;text-rendering:optimizeLegibility"
           id="path21464" />
        <path
           d="m 377.279,63.96 v 22.528 l -0.512,0.512 -13.12,-0.064 -1.28,-1.472 h -0.128 l -1.088,-1.344 q -0.704,-0.896 -1.664,-1.92 -0.896,-1.024 -1.216,-1.408 l 0.064,-33.024 3.968,-4.608 h 12.992 l 0.64,0.64 v 0.32 l 1.216,1.408 v 7.04 l -0.384,0.384 q -0.256,0.256 -1.216,0.32 -0.896,0 -2.112,0 -1.216,0 -2.496,0 -1.28,0 -2.112,-0.064 h -0.512 v 8.32 h 7.104 l 0.704,0.704 v 0.32 z m -1.92,-1.408 -0.064,-0.128 h -0.064 l -0.128,-0.128 h -6.848 l -0.064,0.064 h -0.064 v 0.064 l -0.128,0.128 v 15.232 h -1.6 V 50.968 q 0.32,0 1.664,0.064 1.344,0 2.816,0 1.536,0 2.752,0 1.28,-0.064 1.344,-0.128 h 0.064 l 0.064,-0.064 v -0.064 l 0.064,-0.064 V 44.12 l -0.064,-0.064 v -0.064 l -0.128,-0.064 h -12.288 v 0.064 h -0.128 v 0.064 l -3.456,4.032 v 0.064 l -0.064,0.064 v 32.256 q 0.192,0.192 0.704,0.768 0.512,0.576 1.024,1.28 0.576,0.64 1.024,1.28 0.512,0.64 0.768,0.896 h 0.064 l 0.064,0.064 h 12.48 l 0.192,-0.128 z m -3.84,18.752 2.688,2.816 h -10.944 l 0.896,-2.816 z m -9.152,-1.984 -2.688,0.64 V 48.792 l 2.688,0.64 z m 3.392,-28.608 v 27.264 l -1.856,2.432 -0.896,-0.96 V 49.24 l 0.896,-1.024 z m 0.448,27.712 h 1.984 l 2.56,2.24 h -6.208 z m 4.992,-30.4 2.752,2.24 h -7.744 l -1.664,-2.24 z m 0.512,17.6 L 369.087,63 h 5.12 z m 0.128,-17.984 2.688,-2.56 v 4.8 z m 0.128,18.624 2.752,-2.816 v 20.16 l -2.752,-2.752 z m -0.64,14.016 -2.624,-2.304 V 63.448 l 2.624,2.816 z m -7.168,-32.96 -0.896,-2.752 h 10.816 l -2.88,2.752 z m -0.576,33.728 -0.896,2.752 -2.688,-3.264 2.56,-0.576 z m -1.024,-32.256 -2.56,-0.64 2.688,-3.2 0.896,2.688 z"
           style="font-size:64px;font-family:'Diamond Ring';stroke:none;text-rendering:optimizeLegibility"
           id="path21466" />
        <path
           d="m 385.235,80.728 1.6,-2.24 h 2.496 l 1.664,2.24 z m 7.616,-33.472 -2.56,-2.624 h 5.12 z m -1.216,33.28 -1.856,-2.496 V 45.144 l 2.752,2.688 v 31.616 z m -8,-32.704 2.752,-2.688 V 78.04 l -1.856,2.496 -0.896,-1.088 z m 0.704,31.488 q 0,0.064 0.064,0.128 z m 8.64,0.704 2.624,0.576 -2.752,3.2 -0.896,-2.688 z m 0.192,-32.192 2.688,-2.688 v 34.88 l -2.688,-0.704 z m 5.312,-2.24 v 36.8 q -0.576,0.512 -1.024,1.088 -0.448,0.576 -0.96,1.152 -0.448,0.576 -0.896,1.216 -0.384,0.576 -1.28,1.216 l -9.6,-0.064 -0.448,-0.064 -1.216,-1.408 -0.192,-0.064 -1.088,-1.28 q -0.704,-0.896 -1.664,-1.92 -0.896,-1.024 -1.216,-1.472 V 43.864 l 0.64,-0.64 h 7.616 l 0.64,0.64 v 0.256 l 0.576,0.768 v -1.024 l 0.64,-0.64 h 7.616 l 0.64,0.64 v 0.256 z m -1.984,-1.472 -0.064,-0.064 h -0.064 v -0.064 h -7.04 l -0.192,0.128 v 33.728 h -2.112 V 44.12 l -0.064,-0.064 h -0.064 l -0.064,-0.064 h -6.976 l -0.064,0.064 h -0.064 l -0.064,0.064 v 36.416 q 0.192,0.192 0.704,0.768 0.512,0.576 1.024,1.216 0.576,0.64 1.024,1.28 0.512,0.64 0.768,0.896 h 0.064 v 0.064 h 0.128 v 0.064 h 9.408 l 0.064,-0.064 h 0.064 q 0.96,-0.832 1.792,-2.112 0.832,-1.28 1.792,-2.112 z m -13.12,3.136 -2.624,-2.624 h 5.12 z m 8,34.112 0.896,2.816 h -8.384 l 0.96,-2.816 z m -8.384,-2.048 -2.688,0.704 v -34.88 l 2.688,2.688 z m 1.216,1.792 -0.832,2.688 -2.752,-3.2 2.56,-0.576 z"
           style="font-size:64px;font-family:'Diamond Ring';stroke:none;text-rendering:optimizeLegibility"
           id="path21468" />
      </g>
    </g>
    <g
       style="fill:white; font-size:64px; font-family:'Diamond Ring'; stroke:white;"
       id="g6148">
      <circle
         r="12.5"
         style="stroke:none;"
         cx="36.25"
         cy="62.5"
         id="circle5710" />
      <circle
         r="12.5"
         style="fill:none; stroke:black;"
         cx="36.25"
         cy="62.5"
         id="circle5712" />
      <path
         style="stroke:none;"
         d="M354 130 C364.6667 130 370 135.3333 370 146 L370 229 C370 239.6667 364.6667 245 354 245 L21 245 C10.3333 245 5 239.6667 5 229 L5 146 C5 135.3333 10.3333 130 21 130 Z"
         id="path5714" />
      <path
         d="M354 130 C364.6667 130 370 135.3333 370 146 L370 229 C370 239.6667 364.6667 245 354 245 L21 245 C10.3333 245 5 239.6667 5 229 L5 146 C5 135.3333 10.3333 130 21 130 Z"
         style="fill:none; stroke:black;"
         id="path5716" />
      <path
         style="stroke:none;"
         d="M349 135 C359.6667 135 365 140.3333 365 151 L365 224 C365 234.6667 359.6667 240 349 240 L26 240 C15.3333 240 10 234.6667 10 224 L10 151 C10 140.3333 15.3333 135 26 135 Z"
         id="path5718" />
      <path
         d="M349 135 C359.6667 135 365 140.3333 365 151 L365 224 C365 234.6667 359.6667 240 349 240 L26 240 C15.3333 240 10 234.6667 10 224 L10 151 C10 140.3333 15.3333 135 26 135 Z"
         style="fill:none; stroke:black;"
         id="path5720" />
      <text
         x="68"
         y="212"
         style="fill:black; text-rendering:optimizeLegibility; stroke:none;"
         xml:space="preserve"
         id="text5722">DiamondRing-Regu</text>
      <circle
         r="12.5"
         style="stroke:none;"
         cx="36.25"
         cy="187.5"
         id="circle5724" />
      <circle
         r="12.5"
         style="fill:none; stroke:black;"
         cx="36.25"
         cy="187.5"
         id="circle5726" />
      <path
         style="stroke:none;"
         d="M354 255 C364.6667 255 370 260.3333 370 271 L370 354 C370 364.6667 364.6667 370 354 370 L21 370 C10.3333 370 5 364.6667 5 354 L5 271 C5 260.3333 10.3333 255 21 255 Z"
         id="path5728" />
      <path
         d="M354 255 C364.6667 255 370 260.3333 370 271 L370 354 C370 364.6667 364.6667 370 354 370 L21 370 C10.3333 370 5 364.6667 5 354 L5 271 C5 260.3333 10.3333 255 21 255 Z"
         style="fill:none; stroke:black;"
         id="path5730" />
      <path
         style="stroke:none;"
         d="M349 260 C359.6667 260 365 265.3333 365 276 L365 349 C365 359.6667 359.6667 365 349 365 L26 365 C15.3333 365 10 359.6667 10 349 L10 276 C10 265.3333 15.3333 260 26 260 Z"
         id="path5732" />
      <path
         d="M349 260 C359.6667 260 365 265.3333 365 276 L365 349 C365 359.6667 359.6667 365 349 365 L26 365 C15.3333 365 10 359.6667 10 349 L10 276 C10 265.3333 15.3333 260 26 260 Z"
         style="fill:none; stroke:black;"
         id="path5734" />
      <text
         x="68"
         y="337"
         style="fill:black; text-rendering:optimizeLegibility; stroke:none;"
         xml:space="preserve"
         id="text5736">DiamondRing-Regu</text>
      <circle
         r="12.5"
         style="stroke:none;"
         cx="36.25"
         cy="312.5"
         id="circle5738" />
      <circle
         r="12.5"
         style="fill:none; stroke:black;"
         cx="36.25"
         cy="312.5"
         id="circle5740" />
      <path
         style="stroke:none;"
         d="M354 380 C364.6667 380 370 385.3333 370 396 L370 479 C370 489.6667 364.6667 495 354 495 L21 495 C10.3333 495 5 489.6667 5 479 L5 396 C5 385.3333 10.3333 380 21 380 Z"
         id="path5742" />
      <path
         d="M354 380 C364.6667 380 370 385.3333 370 396 L370 479 C370 489.6667 364.6667 495 354 495 L21 495 C10.3333 495 5 489.6667 5 479 L5 396 C5 385.3333 10.3333 380 21 380 Z"
         style="fill:none; stroke:black;"
         id="path5744" />
      <path
         style="stroke:none;"
         d="M349 385 C359.6667 385 365 390.3333 365 401 L365 474 C365 484.6667 359.6667 490 349 490 L26 490 C15.3333 490 10 484.6667 10 474 L10 401 C10 390.3333 15.3333 385 26 385 Z"
         id="path5746" />
      <path
         d="M349 385 C359.6667 385 365 390.3333 365 401 L365 474 C365 484.6667 359.6667 490 349 490 L26 490 C15.3333 490 10 484.6667 10 474 L10 401 C10 390.3333 15.3333 385 26 385 Z"
         style="fill:none; stroke:black;"
         id="path5748" />
      <text
         x="68"
         y="462"
         style="fill:black; text-rendering:optimizeLegibility; stroke:none;"
         xml:space="preserve"
         id="text5750">DiamondRing-Regu</text>
      <circle
         r="12.5"
         style="stroke:none;"
         cx="36.25"
         cy="437.5"
         id="circle5752" />
      <circle
         r="12.5"
         style="fill:none; stroke:black;"
         cx="36.25"
         cy="437.5"
         id="circle5754" />
      <path
         style="stroke:none;"
         d="M354 505 C364.6667 505 370 510.3333 370 521 L370 604 C370 614.6667 364.6667 620 354 620 L21 620 C10.3333 620 5 614.6667 5 604 L5 521 C5 510.3333 10.3333 505 21 505 Z"
         id="path5756" />
      <path
         d="M354 505 C364.6667 505 370 510.3333 370 521 L370 604 C370 614.6667 364.6667 620 354 620 L21 620 C10.3333 620 5 614.6667 5 604 L5 521 C5 510.3333 10.3333 505 21 505 Z"
         style="fill:none; stroke:black;"
         id="path5758" />
      <path
         style="stroke:none;"
         d="M349 510 C359.6667 510 365 515.3333 365 526 L365 599 C365 609.6667 359.6667 615 349 615 L26 615 C15.3333 615 10 609.6667 10 599 L10 526 C10 515.3333 15.3333 510 26 510 Z"
         id="path5760" />
      <path
         d="M349 510 C359.6667 510 365 515.3333 365 526 L365 599 C365 609.6667 359.6667 615 349 615 L26 615 C15.3333 615 10 609.6667 10 599 L10 526 C10 515.3333 15.3333 510 26 510 Z"
         style="fill:none; stroke:black;"
         id="path5762" />
      <text
         x="68"
         y="587"
         style="fill:black; text-rendering:optimizeLegibility; stroke:none;"
         xml:space="preserve"
         id="text5764">DiamondRing-Regu</text>
      <circle
         r="12.5"
         style="stroke:none;"
         cx="36.25"
         cy="562.5"
         id="circle5766" />
      <circle
         r="12.5"
         style="fill:none; stroke:black;"
         cx="36.25"
         cy="562.5"
         id="circle5768" />
      <path
         style="stroke:none;"
         d="M354 630 C364.6667 630 370 635.3333 370 646 L370 729 C370 739.6667 364.6667 745 354 745 L21 745 C10.3333 745 5 739.6667 5 729 L5 646 C5 635.3333 10.3333 630 21 630 Z"
         id="path5770" />
      <path
         d="M354 630 C364.6667 630 370 635.3333 370 646 L370 729 C370 739.6667 364.6667 745 354 745 L21 745 C10.3333 745 5 739.6667 5 729 L5 646 C5 635.3333 10.3333 630 21 630 Z"
         style="fill:none; stroke:black;"
         id="path5772" />
      <path
         style="stroke:none;"
         d="M349 635 C359.6667 635 365 640.3333 365 651 L365 724 C365 734.6667 359.6667 740 349 740 L26 740 C15.3333 740 10 734.6667 10 724 L10 651 C10 640.3333 15.3333 635 26 635 Z"
         id="path5774" />
      <path
         d="M349 635 C359.6667 635 365 640.3333 365 651 L365 724 C365 734.6667 359.6667 740 349 740 L26 740 C15.3333 740 10 734.6667 10 724 L10 651 C10 640.3333 15.3333 635 26 635 Z"
         style="fill:none; stroke:black;"
         id="path5776" />
      <text
         x="68"
         y="712"
         style="fill:black; text-rendering:optimizeLegibility; stroke:none;"
         xml:space="preserve"
         id="text5778">DiamondRing-Regu</text>
      <circle
         r="12.5"
         style="stroke:none;"
         cx="36.25"
         cy="687.5"
         id="circle5780" />
      <circle
         r="12.5"
         style="fill:none; stroke:black;"
         cx="36.25"
         cy="687.5"
         id="circle5782" />
      <path
         style="stroke:none;"
         d="M354 755 C364.6667 755 370 760.3333 370 771 L370 854 C370 864.6667 364.6667 870 354 870 L21 870 C10.3333 870 5 864.6667 5 854 L5 771 C5 760.3333 10.3333 755 21 755 Z"
         id="path5784" />
      <path
         d="M354 755 C364.6667 755 370 760.3333 370 771 L370 854 C370 864.6667 364.6667 870 354 870 L21 870 C10.3333 870 5 864.6667 5 854 L5 771 C5 760.3333 10.3333 755 21 755 Z"
         style="fill:none; stroke:black;"
         id="path5786" />
      <path
         style="stroke:none;"
         d="M349 760 C359.6667 760 365 765.3333 365 776 L365 849 C365 859.6667 359.6667 865 349 865 L26 865 C15.3333 865 10 859.6667 10 849 L10 776 C10 765.3333 15.3333 760 26 760 Z"
         id="path5788" />
      <path
         d="M349 760 C359.6667 760 365 765.3333 365 776 L365 849 C365 859.6667 359.6667 865 349 865 L26 865 C15.3333 865 10 859.6667 10 849 L10 776 C10 765.3333 15.3333 760 26 760 Z"
         style="fill:none; stroke:black;"
         id="path5790" />
      <text
         x="68"
         y="837"
         style="fill:black; text-rendering:optimizeLegibility; stroke:none;"
         xml:space="preserve"
         id="text5792">DiamondRing-Regu</text>
      <circle
         r="12.5"
         style="stroke:none;"
         cx="36.25"
         cy="812.5"
         id="circle5794" />
      <circle
         r="12.5"
         style="fill:none; stroke:black;"
         cx="36.25"
         cy="812.5"
         id="circle5796" />
      <path
         style="stroke:none;"
         d="M354 880 C364.6667 880 370 885.3333 370 896 L370 979 C370 989.6667 364.6667 995 354 995 L21 995 C10.3333 995 5 989.6667 5 979 L5 896 C5 885.3333 10.3333 880 21 880 Z"
         id="path5798" />
      <path
         d="M354 880 C364.6667 880 370 885.3333 370 896 L370 979 C370 989.6667 364.6667 995 354 995 L21 995 C10.3333 995 5 989.6667 5 979 L5 896 C5 885.3333 10.3333 880 21 880 Z"
         style="fill:none; stroke:black;"
         id="path5800" />
      <path
         style="stroke:none;"
         d="M349 885 C359.6667 885 365 890.3333 365 901 L365 974 C365 984.6667 359.6667 990 349 990 L26 990 C15.3333 990 10 984.6667 10 974 L10 901 C10 890.3333 15.3333 885 26 885 Z"
         id="path5802" />
      <path
         d="M349 885 C359.6667 885 365 890.3333 365 901 L365 974 C365 984.6667 359.6667 990 349 990 L26 990 C15.3333 990 10 984.6667 10 974 L10 901 C10 890.3333 15.3333 885 26 885 Z"
         style="fill:none; stroke:black;"
         id="path5804" />
      <text
         x="68"
         y="962"
         style="fill:black; text-rendering:optimizeLegibility; stroke:none;"
         xml:space="preserve"
         id="text5806">DiamondRing-Regu</text>
      <circle
         r="12.5"
         style="stroke:none;"
         cx="36.25"
         cy="937.5"
         id="circle5808" />
      <circle
         r="12.5"
         style="fill:none; stroke:black;"
         cx="36.25"
         cy="937.5"
         id="circle5810" />
      <path
         style="stroke:none;"
         d="M729 5 C739.6667 5 745 10.3333 745 21 L745 104 C745 114.6667 739.6667 120 729 120 L396 120 C385.3333 120 380 114.6667 380 104 L380 21 C380 10.3333 385.3333 5 396 5 Z"
         id="path5812" />
      <path
         d="M729 5 C739.6667 5 745 10.3333 745 21 L745 104 C745 114.6667 739.6667 120 729 120 L396 120 C385.3333 120 380 114.6667 380 104 L380 21 C380 10.3333 385.3333 5 396 5 Z"
         style="fill:none; stroke:black;"
         id="path5814" />
      <path
         style="stroke:none;"
         d="M724 10 C734.6667 10 740 15.3333 740 26 L740 99 C740 109.6667 734.6667 115 724 115 L401 115 C390.3333 115 385 109.6667 385 99 L385 26 C385 15.3333 390.3333 10 401 10 Z"
         id="path5816" />
      <path
         d="M724 10 C734.6667 10 740 15.3333 740 26 L740 99 C740 109.6667 734.6667 115 724 115 L401 115 C390.3333 115 385 109.6667 385 99 L385 26 C385 15.3333 390.3333 10 401 10 Z"
         style="fill:none; stroke:black;"
         id="path5818" />
      <text
         x="443"
         y="87"
         style="fill:black; text-rendering:optimizeLegibility; stroke:none;"
         xml:space="preserve"
         id="text5820">DiamondRing-Regu</text>
      <circle
         r="12.5"
         style="stroke:none;"
         cx="411.25"
         cy="62.5"
         id="circle5822" />
      <circle
         r="12.5"
         style="fill:none; stroke:black;"
         cx="411.25"
         cy="62.5"
         id="circle5824" />
      <path
         style="stroke:none;"
         d="M729 130 C739.6667 130 745 135.3333 745 146 L745 229 C745 239.6667 739.6667 245 729 245 L396 245 C385.3333 245 380 239.6667 380 229 L380 146 C380 135.3333 385.3333 130 396 130 Z"
         id="path5826" />
      <path
         d="M729 130 C739.6667 130 745 135.3333 745 146 L745 229 C745 239.6667 739.6667 245 729 245 L396 245 C385.3333 245 380 239.6667 380 229 L380 146 C380 135.3333 385.3333 130 396 130 Z"
         style="fill:none; stroke:black;"
         id="path5828" />
      <path
         style="stroke:none;"
         d="M724 135 C734.6667 135 740 140.3333 740 151 L740 224 C740 234.6667 734.6667 240 724 240 L401 240 C390.3333 240 385 234.6667 385 224 L385 151 C385 140.3333 390.3333 135 401 135 Z"
         id="path5830" />
      <path
         d="M724 135 C734.6667 135 740 140.3333 740 151 L740 224 C740 234.6667 734.6667 240 724 240 L401 240 C390.3333 240 385 234.6667 385 224 L385 151 C385 140.3333 390.3333 135 401 135 Z"
         style="fill:none; stroke:black;"
         id="path5832" />
      <text
         x="443"
         y="212"
         style="fill:black; text-rendering:optimizeLegibility; stroke:none;"
         xml:space="preserve"
         id="text5834">DiamondRing-Regu</text>
      <circle
         r="12.5"
         style="stroke:none;"
         cx="411.25"
         cy="187.5"
         id="circle5836" />
      <circle
         r="12.5"
         style="fill:none; stroke:black;"
         cx="411.25"
         cy="187.5"
         id="circle5838" />
      <path
         style="stroke:none;"
         d="M729 255 C739.6667 255 745 260.3333 745 271 L745 354 C745 364.6667 739.6667 370 729 370 L396 370 C385.3333 370 380 364.6667 380 354 L380 271 C380 260.3333 385.3333 255 396 255 Z"
         id="path5840" />
      <path
         d="M729 255 C739.6667 255 745 260.3333 745 271 L745 354 C745 364.6667 739.6667 370 729 370 L396 370 C385.3333 370 380 364.6667 380 354 L380 271 C380 260.3333 385.3333 255 396 255 Z"
         style="fill:none; stroke:black;"
         id="path5842" />
      <path
         style="stroke:none;"
         d="M724 260 C734.6667 260 740 265.3333 740 276 L740 349 C740 359.6667 734.6667 365 724 365 L401 365 C390.3333 365 385 359.6667 385 349 L385 276 C385 265.3333 390.3333 260 401 260 Z"
         id="path5844" />
      <path
         d="M724 260 C734.6667 260 740 265.3333 740 276 L740 349 C740 359.6667 734.6667 365 724 365 L401 365 C390.3333 365 385 359.6667 385 349 L385 276 C385 265.3333 390.3333 260 401 260 Z"
         style="fill:none; stroke:black;"
         id="path5846" />
      <text
         x="443"
         y="337"
         style="fill:black; text-rendering:optimizeLegibility; stroke:none;"
         xml:space="preserve"
         id="text5848">DiamondRing-Regu</text>
      <circle
         r="12.5"
         style="stroke:none;"
         cx="411.25"
         cy="312.5"
         id="circle5850" />
      <circle
         r="12.5"
         style="fill:none; stroke:black;"
         cx="411.25"
         cy="312.5"
         id="circle5852" />
      <path
         style="stroke:none;"
         d="M729 380 C739.6667 380 745 385.3333 745 396 L745 479 C745 489.6667 739.6667 495 729 495 L396 495 C385.3333 495 380 489.6667 380 479 L380 396 C380 385.3333 385.3333 380 396 380 Z"
         id="path5854" />
      <path
         d="M729 380 C739.6667 380 745 385.3333 745 396 L745 479 C745 489.6667 739.6667 495 729 495 L396 495 C385.3333 495 380 489.6667 380 479 L380 396 C380 385.3333 385.3333 380 396 380 Z"
         style="fill:none; stroke:black;"
         id="path5856" />
      <path
         style="stroke:none;"
         d="M724 385 C734.6667 385 740 390.3333 740 401 L740 474 C740 484.6667 734.6667 490 724 490 L401 490 C390.3333 490 385 484.6667 385 474 L385 401 C385 390.3333 390.3333 385 401 385 Z"
         id="path5858" />
      <path
         d="M724 385 C734.6667 385 740 390.3333 740 401 L740 474 C740 484.6667 734.6667 490 724 490 L401 490 C390.3333 490 385 484.6667 385 474 L385 401 C385 390.3333 390.3333 385 401 385 Z"
         style="fill:none; stroke:black;"
         id="path5860" />
      <text
         x="443"
         y="462"
         style="fill:black; text-rendering:optimizeLegibility; stroke:none;"
         xml:space="preserve"
         id="text5862">DiamondRing-Regu</text>
      <circle
         r="12.5"
         style="stroke:none;"
         cx="411.25"
         cy="437.5"
         id="circle5864" />
      <circle
         r="12.5"
         style="fill:none; stroke:black;"
         cx="411.25"
         cy="437.5"
         id="circle5866" />
      <path
         style="stroke:none;"
         d="M729 505 C739.6667 505 745 510.3333 745 521 L745 604 C745 614.6667 739.6667 620 729 620 L396 620 C385.3333 620 380 614.6667 380 604 L380 521 C380 510.3333 385.3333 505 396 505 Z"
         id="path5868" />
      <path
         d="M729 505 C739.6667 505 745 510.3333 745 521 L745 604 C745 614.6667 739.6667 620 729 620 L396 620 C385.3333 620 380 614.6667 380 604 L380 521 C380 510.3333 385.3333 505 396 505 Z"
         style="fill:none; stroke:black;"
         id="path5870" />
      <path
         style="stroke:none;"
         d="M724 510 C734.6667 510 740 515.3333 740 526 L740 599 C740 609.6667 734.6667 615 724 615 L401 615 C390.3333 615 385 609.6667 385 599 L385 526 C385 515.3333 390.3333 510 401 510 Z"
         id="path5872" />
      <path
         d="M724 510 C734.6667 510 740 515.3333 740 526 L740 599 C740 609.6667 734.6667 615 724 615 L401 615 C390.3333 615 385 609.6667 385 599 L385 526 C385 515.3333 390.3333 510 401 510 Z"
         style="fill:none; stroke:black;"
         id="path5874" />
      <text
         x="443"
         y="587"
         style="fill:black; text-rendering:optimizeLegibility; stroke:none;"
         xml:space="preserve"
         id="text5876">DiamondRing-Regu</text>
      <circle
         r="12.5"
         style="stroke:none;"
         cx="411.25"
         cy="562.5"
         id="circle5878" />
      <circle
         r="12.5"
         style="fill:none; stroke:black;"
         cx="411.25"
         cy="562.5"
         id="circle5880" />
      <path
         style="stroke:none;"
         d="M729 630 C739.6667 630 745 635.3333 745 646 L745 729 C745 739.6667 739.6667 745 729 745 L396 745 C385.3333 745 380 739.6667 380 729 L380 646 C380 635.3333 385.3333 630 396 630 Z"
         id="path5882" />
      <path
         d="M729 630 C739.6667 630 745 635.3333 745 646 L745 729 C745 739.6667 739.6667 745 729 745 L396 745 C385.3333 745 380 739.6667 380 729 L380 646 C380 635.3333 385.3333 630 396 630 Z"
         style="fill:none; stroke:black;"
         id="path5884" />
      <path
         style="stroke:none;"
         d="M724 635 C734.6667 635 740 640.3333 740 651 L740 724 C740 734.6667 734.6667 740 724 740 L401 740 C390.3333 740 385 734.6667 385 724 L385 651 C385 640.3333 390.3333 635 401 635 Z"
         id="path5886" />
      <path
         d="M724 635 C734.6667 635 740 640.3333 740 651 L740 724 C740 734.6667 734.6667 740 724 740 L401 740 C390.3333 740 385 734.6667 385 724 L385 651 C385 640.3333 390.3333 635 401 635 Z"
         style="fill:none; stroke:black;"
         id="path5888" />
      <text
         x="443"
         y="712"
         style="fill:black; text-rendering:optimizeLegibility; stroke:none;"
         xml:space="preserve"
         id="text5890">DiamondRing-Regu</text>
      <circle
         r="12.5"
         style="stroke:none;"
         cx="411.25"
         cy="687.5"
         id="circle5892" />
      <circle
         r="12.5"
         style="fill:none; stroke:black;"
         cx="411.25"
         cy="687.5"
         id="circle5894" />
      <path
         style="stroke:none;"
         d="M729 755 C739.6667 755 745 760.3333 745 771 L745 854 C745 864.6667 739.6667 870 729 870 L396 870 C385.3333 870 380 864.6667 380 854 L380 771 C380 760.3333 385.3333 755 396 755 Z"
         id="path5896" />
      <path
         d="M729 755 C739.6667 755 745 760.3333 745 771 L745 854 C745 864.6667 739.6667 870 729 870 L396 870 C385.3333 870 380 864.6667 380 854 L380 771 C380 760.3333 385.3333 755 396 755 Z"
         style="fill:none; stroke:black;"
         id="path5898" />
      <path
         style="stroke:none;"
         d="M724 760 C734.6667 760 740 765.3333 740 776 L740 849 C740 859.6667 734.6667 865 724 865 L401 865 C390.3333 865 385 859.6667 385 849 L385 776 C385 765.3333 390.3333 760 401 760 Z"
         id="path5900" />
      <path
         d="M724 760 C734.6667 760 740 765.3333 740 776 L740 849 C740 859.6667 734.6667 865 724 865 L401 865 C390.3333 865 385 859.6667 385 849 L385 776 C385 765.3333 390.3333 760 401 760 Z"
         style="fill:none; stroke:black;"
         id="path5902" />
      <text
         x="443"
         y="837"
         style="fill:black; text-rendering:optimizeLegibility; stroke:none;"
         xml:space="preserve"
         id="text5904">DiamondRing-Regu</text>
      <circle
         r="12.5"
         style="stroke:none;"
         cx="411.25"
         cy="812.5"
         id="circle5906" />
      <circle
         r="12.5"
         style="fill:none; stroke:black;"
         cx="411.25"
         cy="812.5"
         id="circle5908" />
      <path
         style="stroke:none;"
         d="M729 880 C739.6667 880 745 885.3333 745 896 L745 979 C745 989.6667 739.6667 995 729 995 L396 995 C385.3333 995 380 989.6667 380 979 L380 896 C380 885.3333 385.3333 880 396 880 Z"
         id="path5910" />
      <path
         d="M729 880 C739.6667 880 745 885.3333 745 896 L745 979 C745 989.6667 739.6667 995 729 995 L396 995 C385.3333 995 380 989.6667 380 979 L380 896 C380 885.3333 385.3333 880 396 880 Z"
         style="fill:none; stroke:black;"
         id="path5912" />
      <path
         style="stroke:none;"
         d="M724 885 C734.6667 885 740 890.3333 740 901 L740 974 C740 984.6667 734.6667 990 724 990 L401 990 C390.3333 990 385 984.6667 385 974 L385 901 C385 890.3333 390.3333 885 401 885 Z"
         id="path5914" />
      <path
         d="M724 885 C734.6667 885 740 890.3333 740 901 L740 974 C740 984.6667 734.6667 990 724 990 L401 990 C390.3333 990 385 984.6667 385 974 L385 901 C385 890.3333 390.3333 885 401 885 Z"
         style="fill:none; stroke:black;"
         id="path5916" />
      <text
         x="443"
         y="962"
         style="fill:black; text-rendering:optimizeLegibility; stroke:none;"
         xml:space="preserve"
         id="text5918">DiamondRing-Regu</text>
      <circle
         r="12.5"
         style="stroke:none;"
         cx="411.25"
         cy="937.5"
         id="circle5920" />
      <circle
         r="12.5"
         style="fill:none; stroke:black;"
         cx="411.25"
         cy="937.5"
         id="circle5922" />
      <path
         style="stroke:none;"
         d="M1104 5 C1114.6666 5 1120 10.3333 1120 21 L1120 104 C1120 114.6667 1114.6666 120 1104 120 L771 120 C760.3333 120 755 114.6667 755 104 L755 21 C755 10.3333 760.3333 5 771 5 Z"
         id="path5924" />
      <path
         d="M1104 5 C1114.6666 5 1120 10.3333 1120 21 L1120 104 C1120 114.6667 1114.6666 120 1104 120 L771 120 C760.3333 120 755 114.6667 755 104 L755 21 C755 10.3333 760.3333 5 771 5 Z"
         style="fill:none; stroke:black;"
         id="path5926" />
      <path
         style="stroke:none;"
         d="M1099 10 C1109.6666 10 1115 15.3333 1115 26 L1115 99 C1115 109.6667 1109.6666 115 1099 115 L776 115 C765.3333 115 760 109.6667 760 99 L760 26 C760 15.3333 765.3333 10 776 10 Z"
         id="path5928" />
      <path
         d="M1099 10 C1109.6666 10 1115 15.3333 1115 26 L1115 99 C1115 109.6667 1109.6666 115 1099 115 L776 115 C765.3333 115 760 109.6667 760 99 L760 26 C760 15.3333 765.3333 10 776 10 Z"
         style="fill:none; stroke:black;"
         id="path5930" />
      <text
         x="818"
         y="87"
         style="fill:black; text-rendering:optimizeLegibility; stroke:none;"
         xml:space="preserve"
         id="text5932">DiamondRing-Regu</text>
      <circle
         r="12.5"
         style="stroke:none;"
         cx="786.25"
         cy="62.5"
         id="circle5934" />
      <circle
         r="12.5"
         style="fill:none; stroke:black;"
         cx="786.25"
         cy="62.5"
         id="circle5936" />
      <path
         style="stroke:none;"
         d="M1104 130 C1114.6666 130 1120 135.3333 1120 146 L1120 229 C1120 239.6667 1114.6666 245 1104 245 L771 245 C760.3333 245 755 239.6667 755 229 L755 146 C755 135.3333 760.3333 130 771 130 Z"
         id="path5938" />
      <path
         d="M1104 130 C1114.6666 130 1120 135.3333 1120 146 L1120 229 C1120 239.6667 1114.6666 245 1104 245 L771 245 C760.3333 245 755 239.6667 755 229 L755 146 C755 135.3333 760.3333 130 771 130 Z"
         style="fill:none; stroke:black;"
         id="path5940" />
      <path
         style="stroke:none;"
         d="M1099 135 C1109.6666 135 1115 140.3333 1115 151 L1115 224 C1115 234.6667 1109.6666 240 1099 240 L776 240 C765.3333 240 760 234.6667 760 224 L760 151 C760 140.3333 765.3333 135 776 135 Z"
         id="path5942" />
      <path
         d="M1099 135 C1109.6666 135 1115 140.3333 1115 151 L1115 224 C1115 234.6667 1109.6666 240 1099 240 L776 240 C765.3333 240 760 234.6667 760 224 L760 151 C760 140.3333 765.3333 135 776 135 Z"
         style="fill:none; stroke:black;"
         id="path5944" />
      <text
         x="818"
         y="212"
         style="fill:black; text-rendering:optimizeLegibility; stroke:none;"
         xml:space="preserve"
         id="text5946">DiamondRing-Regu</text>
      <circle
         r="12.5"
         style="stroke:none;"
         cx="786.25"
         cy="187.5"
         id="circle5948" />
      <circle
         r="12.5"
         style="fill:none; stroke:black;"
         cx="786.25"
         cy="187.5"
         id="circle5950" />
      <path
         style="stroke:none;"
         d="M1104 255 C1114.6666 255 1120 260.3333 1120 271 L1120 354 C1120 364.6667 1114.6666 370 1104 370 L771 370 C760.3333 370 755 364.6667 755 354 L755 271 C755 260.3333 760.3333 255 771 255 Z"
         id="path5952" />
      <path
         d="M1104 255 C1114.6666 255 1120 260.3333 1120 271 L1120 354 C1120 364.6667 1114.6666 370 1104 370 L771 370 C760.3333 370 755 364.6667 755 354 L755 271 C755 260.3333 760.3333 255 771 255 Z"
         style="fill:none; stroke:black;"
         id="path5954" />
      <path
         style="stroke:none;"
         d="M1099 260 C1109.6666 260 1115 265.3333 1115 276 L1115 349 C1115 359.6667 1109.6666 365 1099 365 L776 365 C765.3333 365 760 359.6667 760 349 L760 276 C760 265.3333 765.3333 260 776 260 Z"
         id="path5956" />
      <path
         d="M1099 260 C1109.6666 260 1115 265.3333 1115 276 L1115 349 C1115 359.6667 1109.6666 365 1099 365 L776 365 C765.3333 365 760 359.6667 760 349 L760 276 C760 265.3333 765.3333 260 776 260 Z"
         style="fill:none; stroke:black;"
         id="path5958" />
      <text
         x="818"
         y="337"
         style="fill:black; text-rendering:optimizeLegibility; stroke:none;"
         xml:space="preserve"
         id="text5960">DiamondRing-Regu</text>
      <circle
         r="12.5"
         style="stroke:none;"
         cx="786.25"
         cy="312.5"
         id="circle5962" />
      <circle
         r="12.5"
         style="fill:none; stroke:black;"
         cx="786.25"
         cy="312.5"
         id="circle5964" />
      <path
         style="stroke:none;"
         d="M1104 380 C1114.6666 380 1120 385.3333 1120 396 L1120 479 C1120 489.6667 1114.6666 495 1104 495 L771 495 C760.3333 495 755 489.6667 755 479 L755 396 C755 385.3333 760.3333 380 771 380 Z"
         id="path5966" />
      <path
         d="M1104 380 C1114.6666 380 1120 385.3333 1120 396 L1120 479 C1120 489.6667 1114.6666 495 1104 495 L771 495 C760.3333 495 755 489.6667 755 479 L755 396 C755 385.3333 760.3333 380 771 380 Z"
         style="fill:none; stroke:black;"
         id="path5968" />
      <path
         style="stroke:none;"
         d="M1099 385 C1109.6666 385 1115 390.3333 1115 401 L1115 474 C1115 484.6667 1109.6666 490 1099 490 L776 490 C765.3333 490 760 484.6667 760 474 L760 401 C760 390.3333 765.3333 385 776 385 Z"
         id="path5970" />
      <path
         d="M1099 385 C1109.6666 385 1115 390.3333 1115 401 L1115 474 C1115 484.6667 1109.6666 490 1099 490 L776 490 C765.3333 490 760 484.6667 760 474 L760 401 C760 390.3333 765.3333 385 776 385 Z"
         style="fill:none; stroke:black;"
         id="path5972" />
      <text
         x="818"
         y="462"
         style="fill:black; text-rendering:optimizeLegibility; stroke:none;"
         xml:space="preserve"
         id="text5974">DiamondRing-Regu</text>
      <circle
         r="12.5"
         style="stroke:none;"
         cx="786.25"
         cy="437.5"
         id="circle5976" />
      <circle
         r="12.5"
         style="fill:none; stroke:black;"
         cx="786.25"
         cy="437.5"
         id="circle5978" />
      <path
         style="stroke:none;"
         d="M1104 505 C1114.6666 505 1120 510.3333 1120 521 L1120 604 C1120 614.6667 1114.6666 620 1104 620 L771 620 C760.3333 620 755 614.6667 755 604 L755 521 C755 510.3333 760.3333 505 771 505 Z"
         id="path5980" />
      <path
         d="M1104 505 C1114.6666 505 1120 510.3333 1120 521 L1120 604 C1120 614.6667 1114.6666 620 1104 620 L771 620 C760.3333 620 755 614.6667 755 604 L755 521 C755 510.3333 760.3333 505 771 505 Z"
         style="fill:none; stroke:black;"
         id="path5982" />
      <path
         style="stroke:none;"
         d="M1099 510 C1109.6666 510 1115 515.3333 1115 526 L1115 599 C1115 609.6667 1109.6666 615 1099 615 L776 615 C765.3333 615 760 609.6667 760 599 L760 526 C760 515.3333 765.3333 510 776 510 Z"
         id="path5984" />
      <path
         d="M1099 510 C1109.6666 510 1115 515.3333 1115 526 L1115 599 C1115 609.6667 1109.6666 615 1099 615 L776 615 C765.3333 615 760 609.6667 760 599 L760 526 C760 515.3333 765.3333 510 776 510 Z"
         style="fill:none; stroke:black;"
         id="path5986" />
      <text
         x="818"
         y="587"
         style="fill:black; text-rendering:optimizeLegibility; stroke:none;"
         xml:space="preserve"
         id="text5988">DiamondRing-Regu</text>
      <circle
         r="12.5"
         style="stroke:none;"
         cx="786.25"
         cy="562.5"
         id="circle5990" />
      <circle
         r="12.5"
         style="fill:none; stroke:black;"
         cx="786.25"
         cy="562.5"
         id="circle5992" />
      <path
         style="stroke:none;"
         d="M1104 630 C1114.6666 630 1120 635.3333 1120 646 L1120 729 C1120 739.6667 1114.6666 745 1104 745 L771 745 C760.3333 745 755 739.6667 755 729 L755 646 C755 635.3333 760.3333 630 771 630 Z"
         id="path5994" />
      <path
         d="M1104 630 C1114.6666 630 1120 635.3333 1120 646 L1120 729 C1120 739.6667 1114.6666 745 1104 745 L771 745 C760.3333 745 755 739.6667 755 729 L755 646 C755 635.3333 760.3333 630 771 630 Z"
         style="fill:none; stroke:black;"
         id="path5996" />
      <path
         style="stroke:none;"
         d="M1099 635 C1109.6666 635 1115 640.3333 1115 651 L1115 724 C1115 734.6667 1109.6666 740 1099 740 L776 740 C765.3333 740 760 734.6667 760 724 L760 651 C760 640.3333 765.3333 635 776 635 Z"
         id="path5998" />
      <path
         d="M1099 635 C1109.6666 635 1115 640.3333 1115 651 L1115 724 C1115 734.6667 1109.6666 740 1099 740 L776 740 C765.3333 740 760 734.6667 760 724 L760 651 C760 640.3333 765.3333 635 776 635 Z"
         style="fill:none; stroke:black;"
         id="path6000" />
      <text
         x="818"
         y="712"
         style="fill:black; text-rendering:optimizeLegibility; stroke:none;"
         xml:space="preserve"
         id="text6002">DiamondRing-Regu</text>
      <circle
         r="12.5"
         style="stroke:none;"
         cx="786.25"
         cy="687.5"
         id="circle6004" />
      <circle
         r="12.5"
         style="fill:none; stroke:black;"
         cx="786.25"
         cy="687.5"
         id="circle6006" />
      <path
         style="stroke:none;"
         d="M1104 755 C1114.6666 755 1120 760.3333 1120 771 L1120 854 C1120 864.6667 1114.6666 870 1104 870 L771 870 C760.3333 870 755 864.6667 755 854 L755 771 C755 760.3333 760.3333 755 771 755 Z"
         id="path6008" />
      <path
         d="M1104 755 C1114.6666 755 1120 760.3333 1120 771 L1120 854 C1120 864.6667 1114.6666 870 1104 870 L771 870 C760.3333 870 755 864.6667 755 854 L755 771 C755 760.3333 760.3333 755 771 755 Z"
         style="fill:none; stroke:black;"
         id="path6010" />
      <path
         style="stroke:none;"
         d="M1099 760 C1109.6666 760 1115 765.3333 1115 776 L1115 849 C1115 859.6667 1109.6666 865 1099 865 L776 865 C765.3333 865 760 859.6667 760 849 L760 776 C760 765.3333 765.3333 760 776 760 Z"
         id="path6012" />
      <path
         d="M1099 760 C1109.6666 760 1115 765.3333 1115 776 L1115 849 C1115 859.6667 1109.6666 865 1099 865 L776 865 C765.3333 865 760 859.6667 760 849 L760 776 C760 765.3333 765.3333 760 776 760 Z"
         style="fill:none; stroke:black;"
         id="path6014" />
      <text
         x="818"
         y="837"
         style="fill:black; text-rendering:optimizeLegibility; stroke:none;"
         xml:space="preserve"
         id="text6016">DiamondRing-Regu</text>
      <circle
         r="12.5"
         style="stroke:none;"
         cx="786.25"
         cy="812.5"
         id="circle6018" />
      <circle
         r="12.5"
         style="fill:none; stroke:black;"
         cx="786.25"
         cy="812.5"
         id="circle6020" />
      <path
         style="stroke:none;"
         d="M1104 880 C1114.6666 880 1120 885.3333 1120 896 L1120 979 C1120 989.6667 1114.6666 995 1104 995 L771 995 C760.3333 995 755 989.6667 755 979 L755 896 C755 885.3333 760.3333 880 771 880 Z"
         id="path6022" />
      <path
         d="M1104 880 C1114.6666 880 1120 885.3333 1120 896 L1120 979 C1120 989.6667 1114.6666 995 1104 995 L771 995 C760.3333 995 755 989.6667 755 979 L755 896 C755 885.3333 760.3333 880 771 880 Z"
         style="fill:none; stroke:black;"
         id="path6024" />
      <path
         style="stroke:none;"
         d="M1099 885 C1109.6666 885 1115 890.3333 1115 901 L1115 974 C1115 984.6667 1109.6666 990 1099 990 L776 990 C765.3333 990 760 984.6667 760 974 L760 901 C760 890.3333 765.3333 885 776 885 Z"
         id="path6026" />
      <path
         d="M1099 885 C1109.6666 885 1115 890.3333 1115 901 L1115 974 C1115 984.6667 1109.6666 990 1099 990 L776 990 C765.3333 990 760 984.6667 760 974 L760 901 C760 890.3333 765.3333 885 776 885 Z"
         style="fill:none; stroke:black;"
         id="path6028" />
      <text
         x="818"
         y="962"
         style="fill:black; text-rendering:optimizeLegibility; stroke:none;"
         xml:space="preserve"
         id="text6030">DiamondRing-Regu</text>
      <circle
         r="12.5"
         style="stroke:none;"
         cx="786.25"
         cy="937.5"
         id="circle6032" />
      <circle
         r="12.5"
         style="fill:none; stroke:black;"
         cx="786.25"
         cy="937.5"
         id="circle6034" />
      <path
         style="stroke:none;"
         d="M1479 5 C1489.6666 5 1495 10.3333 1495 21 L1495 104 C1495 114.6667 1489.6666 120 1479 120 L1146 120 C1135.3334 120 1130 114.6667 1130 104 L1130 21 C1130 10.3333 1135.3334 5 1146 5 Z"
         id="path6036" />
      <path
         d="M1479 5 C1489.6666 5 1495 10.3333 1495 21 L1495 104 C1495 114.6667 1489.6666 120 1479 120 L1146 120 C1135.3334 120 1130 114.6667 1130 104 L1130 21 C1130 10.3333 1135.3334 5 1146 5 Z"
         style="fill:none; stroke:black;"
         id="path6038" />
      <path
         style="stroke:none;"
         d="M1474 10 C1484.6666 10 1490 15.3333 1490 26 L1490 99 C1490 109.6667 1484.6666 115 1474 115 L1151 115 C1140.3334 115 1135 109.6667 1135 99 L1135 26 C1135 15.3333 1140.3334 10 1151 10 Z"
         id="path6040" />
      <path
         d="M1474 10 C1484.6666 10 1490 15.3333 1490 26 L1490 99 C1490 109.6667 1484.6666 115 1474 115 L1151 115 C1140.3334 115 1135 109.6667 1135 99 L1135 26 C1135 15.3333 1140.3334 10 1151 10 Z"
         style="fill:none; stroke:black;"
         id="path6042" />
      <text
         x="1193"
         y="87"
         style="fill:black; text-rendering:optimizeLegibility; stroke:none;"
         xml:space="preserve"
         id="text6044">DiamondRing-Regu</text>
      <circle
         r="12.5"
         style="stroke:none;"
         cx="1161.25"
         cy="62.5"
         id="circle6046" />
      <circle
         r="12.5"
         style="fill:none; stroke:black;"
         cx="1161.25"
         cy="62.5"
         id="circle6048" />
      <path
         style="stroke:none;"
         d="M1479 130 C1489.6666 130 1495 135.3333 1495 146 L1495 229 C1495 239.6667 1489.6666 245 1479 245 L1146 245 C1135.3334 245 1130 239.6667 1130 229 L1130 146 C1130 135.3333 1135.3334 130 1146 130 Z"
         id="path6050" />
      <path
         d="M1479 130 C1489.6666 130 1495 135.3333 1495 146 L1495 229 C1495 239.6667 1489.6666 245 1479 245 L1146 245 C1135.3334 245 1130 239.6667 1130 229 L1130 146 C1130 135.3333 1135.3334 130 1146 130 Z"
         style="fill:none; stroke:black;"
         id="path6052" />
      <path
         style="stroke:none;"
         d="M1474 135 C1484.6666 135 1490 140.3333 1490 151 L1490 224 C1490 234.6667 1484.6666 240 1474 240 L1151 240 C1140.3334 240 1135 234.6667 1135 224 L1135 151 C1135 140.3333 1140.3334 135 1151 135 Z"
         id="path6054" />
      <path
         d="M1474 135 C1484.6666 135 1490 140.3333 1490 151 L1490 224 C1490 234.6667 1484.6666 240 1474 240 L1151 240 C1140.3334 240 1135 234.6667 1135 224 L1135 151 C1135 140.3333 1140.3334 135 1151 135 Z"
         style="fill:none; stroke:black;"
         id="path6056" />
      <text
         x="1193"
         y="212"
         style="fill:black; text-rendering:optimizeLegibility; stroke:none;"
         xml:space="preserve"
         id="text6058">DiamondRing-Regu</text>
      <circle
         r="12.5"
         style="stroke:none;"
         cx="1161.25"
         cy="187.5"
         id="circle6060" />
      <circle
         r="12.5"
         style="fill:none; stroke:black;"
         cx="1161.25"
         cy="187.5"
         id="circle6062" />
      <path
         style="stroke:none;"
         d="M1479 255 C1489.6666 255 1495 260.3333 1495 271 L1495 354 C1495 364.6667 1489.6666 370 1479 370 L1146 370 C1135.3334 370 1130 364.6667 1130 354 L1130 271 C1130 260.3333 1135.3334 255 1146 255 Z"
         id="path6064" />
      <path
         d="M1479 255 C1489.6666 255 1495 260.3333 1495 271 L1495 354 C1495 364.6667 1489.6666 370 1479 370 L1146 370 C1135.3334 370 1130 364.6667 1130 354 L1130 271 C1130 260.3333 1135.3334 255 1146 255 Z"
         style="fill:none; stroke:black;"
         id="path6066" />
      <path
         style="stroke:none;"
         d="M1474 260 C1484.6666 260 1490 265.3333 1490 276 L1490 349 C1490 359.6667 1484.6666 365 1474 365 L1151 365 C1140.3334 365 1135 359.6667 1135 349 L1135 276 C1135 265.3333 1140.3334 260 1151 260 Z"
         id="path6068" />
      <path
         d="M1474 260 C1484.6666 260 1490 265.3333 1490 276 L1490 349 C1490 359.6667 1484.6666 365 1474 365 L1151 365 C1140.3334 365 1135 359.6667 1135 349 L1135 276 C1135 265.3333 1140.3334 260 1151 260 Z"
         style="fill:none; stroke:black;"
         id="path6070" />
      <text
         x="1193"
         y="337"
         style="fill:black; text-rendering:optimizeLegibility; stroke:none;"
         xml:space="preserve"
         id="text6072">DiamondRing-Regu</text>
      <circle
         r="12.5"
         style="stroke:none;"
         cx="1161.25"
         cy="312.5"
         id="circle6074" />
      <circle
         r="12.5"
         style="fill:none; stroke:black;"
         cx="1161.25"
         cy="312.5"
         id="circle6076" />
      <path
         style="stroke:none;"
         d="M1479 380 C1489.6666 380 1495 385.3333 1495 396 L1495 479 C1495 489.6667 1489.6666 495 1479 495 L1146 495 C1135.3334 495 1130 489.6667 1130 479 L1130 396 C1130 385.3333 1135.3334 380 1146 380 Z"
         id="path6078" />
      <path
         d="M1479 380 C1489.6666 380 1495 385.3333 1495 396 L1495 479 C1495 489.6667 1489.6666 495 1479 495 L1146 495 C1135.3334 495 1130 489.6667 1130 479 L1130 396 C1130 385.3333 1135.3334 380 1146 380 Z"
         style="fill:none; stroke:black;"
         id="path6080" />
      <path
         style="stroke:none;"
         d="M1474 385 C1484.6666 385 1490 390.3333 1490 401 L1490 474 C1490 484.6667 1484.6666 490 1474 490 L1151 490 C1140.3334 490 1135 484.6667 1135 474 L1135 401 C1135 390.3333 1140.3334 385 1151 385 Z"
         id="path6082" />
      <path
         d="M1474 385 C1484.6666 385 1490 390.3333 1490 401 L1490 474 C1490 484.6667 1484.6666 490 1474 490 L1151 490 C1140.3334 490 1135 484.6667 1135 474 L1135 401 C1135 390.3333 1140.3334 385 1151 385 Z"
         style="fill:none; stroke:black;"
         id="path6084" />
      <text
         x="1193"
         y="462"
         style="fill:black; text-rendering:optimizeLegibility; stroke:none;"
         xml:space="preserve"
         id="text6086">DiamondRing-Regu</text>
      <circle
         r="12.5"
         style="stroke:none;"
         cx="1161.25"
         cy="437.5"
         id="circle6088" />
      <circle
         r="12.5"
         style="fill:none; stroke:black;"
         cx="1161.25"
         cy="437.5"
         id="circle6090" />
      <path
         style="stroke:none;"
         d="M1479 505 C1489.6666 505 1495 510.3333 1495 521 L1495 604 C1495 614.6667 1489.6666 620 1479 620 L1146 620 C1135.3334 620 1130 614.6667 1130 604 L1130 521 C1130 510.3333 1135.3334 505 1146 505 Z"
         id="path6092" />
      <path
         d="M1479 505 C1489.6666 505 1495 510.3333 1495 521 L1495 604 C1495 614.6667 1489.6666 620 1479 620 L1146 620 C1135.3334 620 1130 614.6667 1130 604 L1130 521 C1130 510.3333 1135.3334 505 1146 505 Z"
         style="fill:none; stroke:black;"
         id="path6094" />
      <path
         style="stroke:none;"
         d="M1474 510 C1484.6666 510 1490 515.3333 1490 526 L1490 599 C1490 609.6667 1484.6666 615 1474 615 L1151 615 C1140.3334 615 1135 609.6667 1135 599 L1135 526 C1135 515.3333 1140.3334 510 1151 510 Z"
         id="path6096" />
      <path
         d="M1474 510 C1484.6666 510 1490 515.3333 1490 526 L1490 599 C1490 609.6667 1484.6666 615 1474 615 L1151 615 C1140.3334 615 1135 609.6667 1135 599 L1135 526 C1135 515.3333 1140.3334 510 1151 510 Z"
         style="fill:none; stroke:black;"
         id="path6098" />
      <text
         x="1193"
         y="587"
         style="fill:black; text-rendering:optimizeLegibility; stroke:none;"
         xml:space="preserve"
         id="text6100">DiamondRing-Regu</text>
      <circle
         r="12.5"
         style="stroke:none;"
         cx="1161.25"
         cy="562.5"
         id="circle6102" />
      <circle
         r="12.5"
         style="fill:none; stroke:black;"
         cx="1161.25"
         cy="562.5"
         id="circle6104" />
      <path
         style="stroke:none;"
         d="M1479 630 C1489.6666 630 1495 635.3333 1495 646 L1495 729 C1495 739.6667 1489.6666 745 1479 745 L1146 745 C1135.3334 745 1130 739.6667 1130 729 L1130 646 C1130 635.3333 1135.3334 630 1146 630 Z"
         id="path6106" />
      <path
         d="M1479 630 C1489.6666 630 1495 635.3333 1495 646 L1495 729 C1495 739.6667 1489.6666 745 1479 745 L1146 745 C1135.3334 745 1130 739.6667 1130 729 L1130 646 C1130 635.3333 1135.3334 630 1146 630 Z"
         style="fill:none; stroke:black;"
         id="path6108" />
      <path
         style="stroke:none;"
         d="M1474 635 C1484.6666 635 1490 640.3333 1490 651 L1490 724 C1490 734.6667 1484.6666 740 1474 740 L1151 740 C1140.3334 740 1135 734.6667 1135 724 L1135 651 C1135 640.3333 1140.3334 635 1151 635 Z"
         id="path6110" />
      <path
         d="M1474 635 C1484.6666 635 1490 640.3333 1490 651 L1490 724 C1490 734.6667 1484.6666 740 1474 740 L1151 740 C1140.3334 740 1135 734.6667 1135 724 L1135 651 C1135 640.3333 1140.3334 635 1151 635 Z"
         style="fill:none; stroke:black;"
         id="path6112" />
      <text
         x="1193"
         y="712"
         style="fill:black; text-rendering:optimizeLegibility; stroke:none;"
         xml:space="preserve"
         id="text6114">DiamondRing-Regu</text>
      <circle
         r="12.5"
         style="stroke:none;"
         cx="1161.25"
         cy="687.5"
         id="circle6116" />
      <circle
         r="12.5"
         style="fill:none; stroke:black;"
         cx="1161.25"
         cy="687.5"
         id="circle6118" />
      <path
         style="stroke:none;"
         d="M1479 755 C1489.6666 755 1495 760.3333 1495 771 L1495 854 C1495 864.6667 1489.6666 870 1479 870 L1146 870 C1135.3334 870 1130 864.6667 1130 854 L1130 771 C1130 760.3333 1135.3334 755 1146 755 Z"
         id="path6120" />
      <path
         d="M1479 755 C1489.6666 755 1495 760.3333 1495 771 L1495 854 C1495 864.6667 1489.6666 870 1479 870 L1146 870 C1135.3334 870 1130 864.6667 1130 854 L1130 771 C1130 760.3333 1135.3334 755 1146 755 Z"
         style="fill:none; stroke:black;"
         id="path6122" />
      <path
         style="stroke:none;"
         d="M1474 760 C1484.6666 760 1490 765.3333 1490 776 L1490 849 C1490 859.6667 1484.6666 865 1474 865 L1151 865 C1140.3334 865 1135 859.6667 1135 849 L1135 776 C1135 765.3333 1140.3334 760 1151 760 Z"
         id="path6124" />
      <path
         d="M1474 760 C1484.6666 760 1490 765.3333 1490 776 L1490 849 C1490 859.6667 1484.6666 865 1474 865 L1151 865 C1140.3334 865 1135 859.6667 1135 849 L1135 776 C1135 765.3333 1140.3334 760 1151 760 Z"
         style="fill:none; stroke:black;"
         id="path6126" />
      <text
         x="1193"
         y="837"
         style="fill:black; text-rendering:optimizeLegibility; stroke:none;"
         xml:space="preserve"
         id="text6128">DiamondRing-Regu</text>
      <circle
         r="12.5"
         style="stroke:none;"
         cx="1161.25"
         cy="812.5"
         id="circle6130" />
      <circle
         r="12.5"
         style="fill:none; stroke:black;"
         cx="1161.25"
         cy="812.5"
         id="circle6132" />
      <path
         style="stroke:none;"
         d="M1479 880 C1489.6666 880 1495 885.3333 1495 896 L1495 979 C1495 989.6667 1489.6666 995 1479 995 L1146 995 C1135.3334 995 1130 989.6667 1130 979 L1130 896 C1130 885.3333 1135.3334 880 1146 880 Z"
         id="path6134" />
      <path
         d="M1479 880 C1489.6666 880 1495 885.3333 1495 896 L1495 979 C1495 989.6667 1489.6666 995 1479 995 L1146 995 C1135.3334 995 1130 989.6667 1130 979 L1130 896 C1130 885.3333 1135.3334 880 1146 880 Z"
         style="fill:none; stroke:black;"
         id="path6136" />
      <path
         style="stroke:none;"
         d="M1474 885 C1484.6666 885 1490 890.3333 1490 901 L1490 974 C1490 984.6667 1484.6666 990 1474 990 L1151 990 C1140.3334 990 1135 984.6667 1135 974 L1135 901 C1135 890.3333 1140.3334 885 1151 885 Z"
         id="path6138" />
      <path
         d="M1474 885 C1484.6666 885 1490 890.3333 1490 901 L1490 974 C1490 984.6667 1484.6666 990 1474 990 L1151 990 C1140.3334 990 1135 984.6667 1135 974 L1135 901 C1135 890.3333 1140.3334 885 1151 885 Z"
         style="fill:none; stroke:black;"
         id="path6140" />
      <text
         x="1193"
         y="962"
         style="fill:black; text-rendering:optimizeLegibility; stroke:none;"
         xml:space="preserve"
         id="text6142">DiamondRing-Regu</text>
      <circle
         r="12.5"
         style="stroke:none;"
         cx="1161.25"
         cy="937.5"
         id="circle6144" />
      <circle
         r="12.5"
         style="fill:none; stroke:black;"
         cx="1161.25"
         cy="937.5"
         id="circle6146" />
    </g>
  </g>
</svg>
